<?xml version="1.0" standalone="no"?>
 <!DOCTYPE svg PUBLIC "-//W3C//DTD SVG 1.1//EN" 
 "http://www.w3.org/Graphics/SVG/1.1/DTD/svg11.dtd"> 
<svg xmlns="http://www.w3.org/2000/svg" version="1.1" 
    width="29.7002cm" height="21.0007cm" viewBox="0 0 116930 82680 ">
<title>SVG Picture created as OneKnob-Eco1.User.svg date 2019/05/17 09:17:15 </title>
  <desc>Picture generated by PCBNEW </desc>
<g style="fill:#000000; fill-opacity:1;stroke:#000000; stroke-opacity:1;
stroke-linecap:round; stroke-linejoin:round; "
 transform="translate(0 0) scale(1 1)">
</g>
<g style="fill:#000000; fill-opacity:0.0; 
stroke:#000000; stroke-width:-0.000393701; stroke-opacity:1; 
stroke-linecap:round; stroke-linejoin:round;">
</g>
<g style="fill:#000000; fill-opacity:0.0; 
stroke:#000000; stroke-width:78.7402; stroke-opacity:1; 
stroke-linecap:round; stroke-linejoin:round;">
<circle cx="50100" cy="41510" r="1718.4" /> 
<circle cx="50100" cy="47900" r="1718.4" /> 
<circle cx="63247.9" cy="49650" r="602.08" /> 
<circle cx="63300" cy="39700" r="602.08" /> 
<circle cx="31550" cy="39750" r="602.08" /> 
<circle cx="31550" cy="49650" r="602.08" /> 
<path d="M63250 51200 A1550 1550 0.0 0 0 64799.2 49700 " />
<path d="M64798.5 39802.5 A1503.33 1503.33 0.0 0 0 63250 38200 " />
<path d="M30000 49700 A1550.81 1550.81 0.0 0 0 31550 51200.8 " />
<path d="M31500 38200 A1550.81 1550.81 0.0 0 0 30011.9 39551.5 " />
<path d="M64800 49700
L64800 39800
" />
<path d="M31450 38200
L63250 38200
" />
<path d="M30000 39600
L30000 49700
" />
<path d="M31500 51200
L63250 51200
" />
<circle cx="58000" cy="44700" r="1414.81" /> 
</g> 
</svg>
