  0
SECTION
  2
HEADER
  9
$ANGBASE
  50
0.0
  9
$ANGDIR
  70
  1
  9
$MEASUREMENT
  70
0
  0
ENDSEC
  0
SECTION
  2
TABLES
  0
TABLE
  2
LTYPE
  70
4
  0
LTYPE
  5
40F
  2
CONTINUOUS
  70
0
  3
Solid line
  72
65
  73
0
  40
0.0
  0
LTYPE
  5
410
  2
DASHDOT
 70
0
  3
Dash Dot ____ _ ____ _
 72
65
 73
4
 40
2.0
 49
1.25
 49
-0.25
 49
0.25
 49
-0.25
  0
LTYPE
  5
411
  2
DASHED
 70
0
  3
Dashed __ __ __ __ __
 72
65
 73
2
 40
0.75
 49
0.5
 49
-0.25
  0
LTYPE
  5
43B
  2
DOTTED
 70
0
  3
Dotted .  .  .  .
 72
65
 73
2
 40
0.2
 49
0.0
 49
-0.2
  0
ENDTAB
  0
TABLE
  2
STYLE
  70
4
  0
STYLE
  2
KICAD
  70
0
  40
0
  41
1
  42
1
  50
0
  71
0
  3
isocp.shx
  0
STYLE
  2
KICADB
  70
0
  40
0
  41
1
  42
1
  50
0
  71
0
  3
isocp.shx
  0
STYLE
  2
KICADI
  70
0
  40
0
  41
1
  42
1
  50
15
  71
0
  3
isocp.shx
  0
STYLE
  2
KICADBI
  70
0
  40
0
  41
1
  42
1
  50
15
  71
0
  3
isocp.shx
  0
ENDTAB
  0
TABLE
  2
LAYER
  70
30
  0
LAYER
  2
BLACK
  70
0
  62
7
  6
CONTINUOUS
  0
LAYER
  2
GRAY1
  70
0
  62
251
  6
CONTINUOUS
  0
LAYER
  2
GRAY2
  70
0
  62
8
  6
CONTINUOUS
  0
LAYER
  2
GRAY3
  70
0
  62
9
  6
CONTINUOUS
  0
LAYER
  2
WHITE
  70
0
  62
7
  6
CONTINUOUS
  0
LAYER
  2
LYELLOW
  70
0
  62
51
  6
CONTINUOUS
  0
LAYER
  2
BLUE1
  70
0
  62
178
  6
CONTINUOUS
  0
LAYER
  2
GREEN1
  70
0
  62
98
  6
CONTINUOUS
  0
LAYER
  2
CYAN1
  70
0
  62
138
  6
CONTINUOUS
  0
LAYER
  2
RED1
  70
0
  62
18
  6
CONTINUOUS
  0
LAYER
  2
MAGENTA1
  70
0
  62
228
  6
CONTINUOUS
  0
LAYER
  2
BROWN1
  70
0
  62
58
  6
CONTINUOUS
  0
LAYER
  2
BLUE2
  70
0
  62
5
  6
CONTINUOUS
  0
LAYER
  2
GREEN2
  70
0
  62
3
  6
CONTINUOUS
  0
LAYER
  2
CYAN2
  70
0
  62
4
  6
CONTINUOUS
  0
LAYER
  2
RED2
  70
0
  62
1
  6
CONTINUOUS
  0
LAYER
  2
MAGENTA2
  70
0
  62
6
  6
CONTINUOUS
  0
LAYER
  2
BROWN2
  70
0
  62
54
  6
CONTINUOUS
  0
LAYER
  2
BLUE3
  70
0
  62
171
  6
CONTINUOUS
  0
LAYER
  2
GREEN3
  70
0
  62
91
  6
CONTINUOUS
  0
LAYER
  2
CYAN3
  70
0
  62
131
  6
CONTINUOUS
  0
LAYER
  2
RED3
  70
0
  62
11
  6
CONTINUOUS
  0
LAYER
  2
MAGENTA3
  70
0
  62
221
  6
CONTINUOUS
  0
LAYER
  2
YELLOW3
  70
0
  62
2
  6
CONTINUOUS
  0
LAYER
  2
BLUE4
  70
0
  62
5
  6
CONTINUOUS
  0
LAYER
  2
GREEN4
  70
0
  62
3
  6
CONTINUOUS
  0
LAYER
  2
CYAN4
  70
0
  62
4
  6
CONTINUOUS
  0
LAYER
  2
RED4
  70
0
  62
1
  6
CONTINUOUS
  0
LAYER
  2
MAGENTA4
  70
0
  62
6
  6
CONTINUOUS
  0
LAYER
  2
YELLOW4
  70
0
  62
2
  6
CONTINUOUS
  0
ENDTAB
  0
ENDSEC
  0
SECTION
  2
ENTITIES
0
LINE
8
BLACK
6
CONTINUOUS
10
160.667
20
-96.9286
11
161.432
21
-96.9814
0
LINE
8
BLACK
6
CONTINUOUS
10
161.432
20
-96.9814
11
161.432
21
-96.9814
0
LINE
8
BLACK
6
CONTINUOUS
10
161.432
20
-96.9814
11
161.432
21
-96.9814
0
LINE
8
BLACK
6
CONTINUOUS
10
161.432
20
-96.9814
11
161.442
21
-96.9827
0
LINE
8
BLACK
6
CONTINUOUS
10
161.442
20
-96.9827
11
161.447
21
-96.984
0
LINE
8
BLACK
6
CONTINUOUS
10
161.447
20
-96.984
11
161.452
21
-96.9849
0
LINE
8
BLACK
6
CONTINUOUS
10
161.452
20
-96.9849
11
162.195
21
-97.1918
0
LINE
8
BLACK
6
CONTINUOUS
10
162.195
20
-97.1918
11
162.205
21
-97.1951
0
LINE
8
BLACK
6
CONTINUOUS
10
162.205
20
-97.1951
11
162.209
21
-97.1974
0
LINE
8
BLACK
6
CONTINUOUS
10
162.209
20
-97.1974
11
162.214
21
-97.1991
0
LINE
8
BLACK
6
CONTINUOUS
10
162.214
20
-97.1991
11
162.901
21
-97.5513
0
LINE
8
BLACK
6
CONTINUOUS
10
162.901
20
-97.5513
11
162.91
21
-97.5566
0
LINE
8
BLACK
6
CONTINUOUS
10
162.91
20
-97.5566
11
162.914
21
-97.5597
0
LINE
8
BLACK
6
CONTINUOUS
10
162.914
20
-97.5597
11
162.918
21
-97.5623
0
LINE
8
BLACK
6
CONTINUOUS
10
162.918
20
-97.5623
11
163.52
21
-98.0454
0
LINE
8
BLACK
6
CONTINUOUS
10
163.52
20
-98.0454
11
163.527
21
-98.0524
0
LINE
8
BLACK
6
CONTINUOUS
10
163.527
20
-98.0524
11
163.531
21
-98.0562
0
LINE
8
BLACK
6
CONTINUOUS
10
163.531
20
-98.0562
11
163.534
21
-98.0596
0
LINE
8
BLACK
6
CONTINUOUS
10
163.534
20
-98.0596
11
164.026
21
-98.6538
0
LINE
8
BLACK
6
CONTINUOUS
10
164.026
20
-98.6538
11
164.026
21
-98.6538
0
LINE
8
BLACK
6
CONTINUOUS
10
164.026
20
-98.6538
11
164.026
21
-98.6539
0
LINE
8
BLACK
6
CONTINUOUS
10
164.026
20
-98.6539
11
164.033
21
-98.6622
0
LINE
8
BLACK
6
CONTINUOUS
10
164.033
20
-98.6622
11
164.035
21
-98.6666
0
LINE
8
BLACK
6
CONTINUOUS
10
164.035
20
-98.6666
11
164.038
21
-98.6706
0
LINE
8
BLACK
6
CONTINUOUS
10
164.038
20
-98.6706
11
164.401
21
-99.3517
0
LINE
8
BLACK
6
CONTINUOUS
10
164.401
20
-99.3517
11
164.401
21
-99.3517
0
LINE
8
BLACK
6
CONTINUOUS
10
164.401
20
-99.3517
11
164.401
21
-99.3517
0
LINE
8
BLACK
6
CONTINUOUS
10
164.401
20
-99.3517
11
164.405
21
-99.3612
0
LINE
8
BLACK
6
CONTINUOUS
10
164.405
20
-99.3612
11
164.406
21
-99.3659
0
LINE
8
BLACK
6
CONTINUOUS
10
164.406
20
-99.3659
11
164.408
21
-99.3704
0
LINE
8
BLACK
6
CONTINUOUS
10
164.408
20
-99.3704
11
164.627
21
-100.111
0
LINE
8
BLACK
6
CONTINUOUS
10
164.627
20
-100.111
11
164.629
21
-100.121
0
LINE
8
BLACK
6
CONTINUOUS
10
164.629
20
-100.121
11
164.63
21
-100.126
0
LINE
8
BLACK
6
CONTINUOUS
10
164.63
20
-100.126
11
164.63
21
-100.13
0
LINE
8
BLACK
6
CONTINUOUS
10
164.63
20
-100.13
11
164.696
21
-100.899
0
LINE
8
BLACK
6
CONTINUOUS
10
164.696
20
-100.899
11
164.696
21
-100.91
0
LINE
8
BLACK
6
CONTINUOUS
10
164.696
20
-100.91
11
164.696
21
-100.911
0
LINE
8
BLACK
6
CONTINUOUS
10
164.696
20
-100.911
11
164.696
21
-100.912
0
LINE
8
BLACK
6
CONTINUOUS
10
164.696
20
-100.912
11
164.689
21
-101.069
0
LINE
8
BLACK
6
CONTINUOUS
10
164.689
20
-101.069
11
164.692
21
-101.083
0
LINE
8
BLACK
6
CONTINUOUS
10
164.692
20
-101.083
11
164.692
21
-126.247
0
LINE
8
BLACK
6
CONTINUOUS
10
164.692
20
-126.247
11
164.687
21
-126.273
0
LINE
8
BLACK
6
CONTINUOUS
10
164.687
20
-126.273
11
164.686
21
-126.276
0
LINE
8
BLACK
6
CONTINUOUS
10
164.686
20
-126.276
11
164.583
21
-127.04
0
LINE
8
BLACK
6
CONTINUOUS
10
164.583
20
-127.04
11
164.581
21
-127.05
0
LINE
8
BLACK
6
CONTINUOUS
10
164.581
20
-127.05
11
164.58
21
-127.055
0
LINE
8
BLACK
6
CONTINUOUS
10
164.58
20
-127.055
11
164.578
21
-127.06
0
LINE
8
BLACK
6
CONTINUOUS
10
164.578
20
-127.06
11
164.316
21
-127.811
0
LINE
8
BLACK
6
CONTINUOUS
10
164.316
20
-127.811
11
164.316
21
-127.811
0
LINE
8
BLACK
6
CONTINUOUS
10
164.316
20
-127.811
11
164.316
21
-127.811
0
LINE
8
BLACK
6
CONTINUOUS
10
164.316
20
-127.811
11
164.312
21
-127.82
0
LINE
8
BLACK
6
CONTINUOUS
10
164.312
20
-127.82
11
164.31
21
-127.825
0
LINE
8
BLACK
6
CONTINUOUS
10
164.31
20
-127.825
11
164.308
21
-127.829
0
LINE
8
BLACK
6
CONTINUOUS
10
164.308
20
-127.829
11
163.9
21
-128.512
0
LINE
8
BLACK
6
CONTINUOUS
10
163.9
20
-128.512
11
163.9
21
-128.512
0
LINE
8
BLACK
6
CONTINUOUS
10
163.9
20
-128.512
11
163.9
21
-128.512
0
LINE
8
BLACK
6
CONTINUOUS
10
163.9
20
-128.512
11
163.894
21
-128.521
0
LINE
8
BLACK
6
CONTINUOUS
10
163.894
20
-128.521
11
163.89
21
-128.525
0
LINE
8
BLACK
6
CONTINUOUS
10
163.89
20
-128.525
11
163.888
21
-128.528
0
LINE
8
BLACK
6
CONTINUOUS
10
163.888
20
-128.528
11
163.35
21
-129.116
0
LINE
8
BLACK
6
CONTINUOUS
10
163.35
20
-129.116
11
163.35
21
-129.116
0
LINE
8
BLACK
6
CONTINUOUS
10
163.35
20
-129.116
11
163.35
21
-129.116
0
LINE
8
BLACK
6
CONTINUOUS
10
163.35
20
-129.116
11
163.343
21
-129.123
0
LINE
8
BLACK
6
CONTINUOUS
10
163.343
20
-129.123
11
163.339
21
-129.126
0
LINE
8
BLACK
6
CONTINUOUS
10
163.339
20
-129.126
11
163.335
21
-129.129
0
LINE
8
BLACK
6
CONTINUOUS
10
163.335
20
-129.129
11
162.691
21
-129.596
0
LINE
8
BLACK
6
CONTINUOUS
10
162.691
20
-129.596
11
162.691
21
-129.596
0
LINE
8
BLACK
6
CONTINUOUS
10
162.691
20
-129.596
11
162.691
21
-129.596
0
LINE
8
BLACK
6
CONTINUOUS
10
162.691
20
-129.596
11
162.682
21
-129.602
0
LINE
8
BLACK
6
CONTINUOUS
10
162.682
20
-129.602
11
162.678
21
-129.604
0
LINE
8
BLACK
6
CONTINUOUS
10
162.678
20
-129.604
11
162.674
21
-129.606
0
LINE
8
BLACK
6
CONTINUOUS
10
162.674
20
-129.606
11
161.949
21
-129.935
0
LINE
8
BLACK
6
CONTINUOUS
10
161.949
20
-129.935
11
161.939
21
-129.938
0
LINE
8
BLACK
6
CONTINUOUS
10
161.939
20
-129.938
11
161.934
21
-129.939
0
LINE
8
BLACK
6
CONTINUOUS
10
161.934
20
-129.939
11
161.93
21
-129.941
0
LINE
8
BLACK
6
CONTINUOUS
10
161.93
20
-129.941
11
161.154
21
-130.117
0
LINE
8
BLACK
6
CONTINUOUS
10
161.154
20
-130.117
11
161.143
21
-130.118
0
LINE
8
BLACK
6
CONTINUOUS
10
161.143
20
-130.118
11
161.14
21
-130.118
0
LINE
8
BLACK
6
CONTINUOUS
10
161.14
20
-130.118
11
161.138
21
-130.119
0
LINE
8
BLACK
6
CONTINUOUS
10
161.138
20
-130.119
11
160.667
21
-130.147
0
LINE
8
BLACK
6
CONTINUOUS
10
160.667
20
-130.147
11
160.664
21
-130.148
0
LINE
8
BLACK
6
CONTINUOUS
10
160.664
20
-130.148
11
80.1546
21
-130.148
0
LINE
8
BLACK
6
CONTINUOUS
10
80.1546
20
-130.148
11
80.1471
21
-130.15
0
LINE
8
BLACK
6
CONTINUOUS
10
80.1471
20
-130.15
11
80.1269
21
-130.15
0
LINE
8
BLACK
6
CONTINUOUS
10
80.1269
20
-130.15
11
80.1118
21
-130.148
0
LINE
8
BLACK
6
CONTINUOUS
10
80.1118
20
-130.148
11
80.0013
21
-130.148
0
LINE
8
BLACK
6
CONTINUOUS
10
80.0013
20
-130.148
11
79.9753
21
-130.143
0
LINE
8
BLACK
6
CONTINUOUS
10
79.9753
20
-130.143
11
79.9558
21
-130.132
0
LINE
8
BLACK
6
CONTINUOUS
10
79.9558
20
-130.132
11
79.3348
21
-130.069
0
LINE
8
BLACK
6
CONTINUOUS
10
79.3348
20
-130.069
11
79.3348
21
-130.069
0
LINE
8
BLACK
6
CONTINUOUS
10
79.3348
20
-130.069
11
79.3348
21
-130.069
0
LINE
8
BLACK
6
CONTINUOUS
10
79.3348
20
-130.069
11
79.3245
21
-130.067
0
LINE
8
BLACK
6
CONTINUOUS
10
79.3245
20
-130.067
11
79.3198
21
-130.066
0
LINE
8
BLACK
6
CONTINUOUS
10
79.3198
20
-130.066
11
79.315
21
-130.065
0
LINE
8
BLACK
6
CONTINUOUS
10
79.315
20
-130.065
11
78.5553
21
-129.827
0
LINE
8
BLACK
6
CONTINUOUS
10
78.5553
20
-129.827
11
78.5455
21
-129.823
0
LINE
8
BLACK
6
CONTINUOUS
10
78.5455
20
-129.823
11
78.5413
21
-129.821
0
LINE
8
BLACK
6
CONTINUOUS
10
78.5413
20
-129.821
11
78.5368
21
-129.819
0
LINE
8
BLACK
6
CONTINUOUS
10
78.5368
20
-129.819
11
77.8405
21
-129.433
0
LINE
8
BLACK
6
CONTINUOUS
10
77.8405
20
-129.433
11
77.8405
21
-129.433
0
LINE
8
BLACK
6
CONTINUOUS
10
77.8405
20
-129.433
11
77.8404
21
-129.433
0
LINE
8
BLACK
6
CONTINUOUS
10
77.8404
20
-129.433
11
77.8316
21
-129.427
0
LINE
8
BLACK
6
CONTINUOUS
10
77.8316
20
-129.427
11
77.8279
21
-129.424
0
LINE
8
BLACK
6
CONTINUOUS
10
77.8279
20
-129.424
11
77.8239
21
-129.421
0
LINE
8
BLACK
6
CONTINUOUS
10
77.8239
20
-129.421
11
77.2194
21
-128.903
0
LINE
8
BLACK
6
CONTINUOUS
10
77.2194
20
-128.903
11
77.2194
21
-128.903
0
LINE
8
BLACK
6
CONTINUOUS
10
77.2194
20
-128.903
11
77.2194
21
-128.903
0
LINE
8
BLACK
6
CONTINUOUS
10
77.2194
20
-128.903
11
77.2118
21
-128.896
0
LINE
8
BLACK
6
CONTINUOUS
10
77.2118
20
-128.896
11
77.2088
21
-128.892
0
LINE
8
BLACK
6
CONTINUOUS
10
77.2088
20
-128.892
11
77.2054
21
-128.889
0
LINE
8
BLACK
6
CONTINUOUS
10
77.2054
20
-128.889
11
76.7175
21
-128.26
0
LINE
8
BLACK
6
CONTINUOUS
10
76.7175
20
-128.26
11
76.7115
21
-128.251
0
LINE
8
BLACK
6
CONTINUOUS
10
76.7115
20
-128.251
11
76.7094
21
-128.247
0
LINE
8
BLACK
6
CONTINUOUS
10
76.7094
20
-128.247
11
76.7068
21
-128.243
0
LINE
8
BLACK
6
CONTINUOUS
10
76.7068
20
-128.243
11
76.3553
21
-127.528
0
LINE
8
BLACK
6
CONTINUOUS
10
76.3553
20
-127.528
11
76.3512
21
-127.519
0
LINE
8
BLACK
6
CONTINUOUS
10
76.3512
20
-127.519
11
76.3499
21
-127.514
0
LINE
8
BLACK
6
CONTINUOUS
10
76.3499
20
-127.514
11
76.3482
21
-127.509
0
LINE
8
BLACK
6
CONTINUOUS
10
76.3482
20
-127.509
11
76.1476
21
-126.739
0
LINE
8
BLACK
6
CONTINUOUS
10
76.1476
20
-126.739
11
76.1454
21
-126.729
0
LINE
8
BLACK
6
CONTINUOUS
10
76.1454
20
-126.729
11
76.1453
21
-126.726
0
LINE
8
BLACK
6
CONTINUOUS
10
76.1453
20
-126.726
11
76.1448
21
-126.723
0
LINE
8
BLACK
6
CONTINUOUS
10
76.1448
20
-126.723
11
76.1008
21
-126.251
0
LINE
8
BLACK
6
CONTINUOUS
10
76.1008
20
-126.251
11
76.1
21
-126.247
0
LINE
8
BLACK
6
CONTINUOUS
10
76.1
20
-126.247
11
76.1
21
-100.575
0
LINE
8
BLACK
6
CONTINUOUS
10
76.1
20
-100.575
11
76.1046
21
-100.549
0
LINE
8
BLACK
6
CONTINUOUS
10
76.1046
20
-100.549
11
76.1222
21
-100.519
0
LINE
8
BLACK
6
CONTINUOUS
10
76.1222
20
-100.519
11
76.1404
21
-100.504
0
LINE
8
BLACK
6
CONTINUOUS
10
76.1404
20
-100.504
11
76.1374
21
-100.498
0
LINE
8
BLACK
6
CONTINUOUS
10
76.1374
20
-100.498
11
76.1319
21
-100.478
0
LINE
8
BLACK
6
CONTINUOUS
10
76.1319
20
-100.478
11
76.1304
21
-100.458
0
LINE
8
BLACK
6
CONTINUOUS
10
76.1304
20
-100.458
11
76.133
21
-100.438
0
LINE
8
BLACK
6
CONTINUOUS
10
76.133
20
-100.438
11
76.3141
21
-99.6629
0
LINE
8
BLACK
6
CONTINUOUS
10
76.3141
20
-99.6629
11
76.317
21
-99.6529
0
LINE
8
BLACK
6
CONTINUOUS
10
76.317
20
-99.6529
11
76.3191
21
-99.6484
0
LINE
8
BLACK
6
CONTINUOUS
10
76.3191
20
-99.6484
11
76.3207
21
-99.6438
0
LINE
8
BLACK
6
CONTINUOUS
10
76.3207
20
-99.6438
11
76.654
21
-98.9208
0
LINE
8
BLACK
6
CONTINUOUS
10
76.654
20
-98.9208
11
76.6589
21
-98.9115
0
LINE
8
BLACK
6
CONTINUOUS
10
76.6589
20
-98.9115
11
76.6618
21
-98.9076
0
LINE
8
BLACK
6
CONTINUOUS
10
76.6618
20
-98.9076
11
76.6643
21
-98.9034
0
LINE
8
BLACK
6
CONTINUOUS
10
76.6643
20
-98.9034
11
77.1362
21
-98.2622
0
LINE
8
BLACK
6
CONTINUOUS
10
77.1362
20
-98.2622
11
77.1428
21
-98.2541
0
LINE
8
BLACK
6
CONTINUOUS
10
77.1428
20
-98.2541
11
77.1465
21
-98.2509
0
LINE
8
BLACK
6
CONTINUOUS
10
77.1465
20
-98.2509
11
77.1498
21
-98.2472
0
LINE
8
BLACK
6
CONTINUOUS
10
77.1498
20
-98.2472
11
77.741
21
-97.714
0
LINE
8
BLACK
6
CONTINUOUS
10
77.741
20
-97.714
11
77.7491
21
-97.7074
0
LINE
8
BLACK
6
CONTINUOUS
10
77.7491
20
-97.7074
11
77.7533
21
-97.705
0
LINE
8
BLACK
6
CONTINUOUS
10
77.7533
20
-97.705
11
77.7573
21
-97.7021
0
LINE
8
BLACK
6
CONTINUOUS
10
77.7573
20
-97.7021
11
78.4436
21
-97.2986
0
LINE
8
BLACK
6
CONTINUOUS
10
78.4436
20
-97.2986
11
78.4436
21
-97.2986
0
LINE
8
BLACK
6
CONTINUOUS
10
78.4436
20
-97.2986
11
78.4436
21
-97.2986
0
LINE
8
BLACK
6
CONTINUOUS
10
78.4436
20
-97.2986
11
78.4529
21
-97.2938
0
LINE
8
BLACK
6
CONTINUOUS
10
78.4529
20
-97.2938
11
78.4575
21
-97.2922
0
LINE
8
BLACK
6
CONTINUOUS
10
78.4575
20
-97.2922
11
78.462
21
-97.2902
0
LINE
8
BLACK
6
CONTINUOUS
10
78.462
20
-97.2902
11
79.2154
21
-97.033
0
LINE
8
BLACK
6
CONTINUOUS
10
79.2154
20
-97.033
11
79.2255
21
-97.0302
0
LINE
8
BLACK
6
CONTINUOUS
10
79.2255
20
-97.0302
11
79.2302
21
-97.0296
0
LINE
8
BLACK
6
CONTINUOUS
10
79.2302
20
-97.0296
11
79.2348
21
-97.0285
0
LINE
8
BLACK
6
CONTINUOUS
10
79.2348
20
-97.0285
11
79.8158
21
-96.9525
0
LINE
8
BLACK
6
CONTINUOUS
10
79.8158
20
-96.9525
11
79.8177
21
-96.9502
0
LINE
8
BLACK
6
CONTINUOUS
10
79.8177
20
-96.9502
11
79.8483
21
-96.9326
0
LINE
8
BLACK
6
CONTINUOUS
10
79.8483
20
-96.9326
11
79.8743
21
-96.928
0
LINE
8
BLACK
6
CONTINUOUS
10
79.8743
20
-96.928
11
160.664
21
-96.928
0
LINE
8
BLACK
6
CONTINUOUS
10
160.664
20
-96.928
11
160.667
21
-96.9286
0
LINE
8
BLACK
6
CONTINUOUS
10
80.0165
20
-97.128
11
79.2706
21
-97.2255
0
LINE
8
BLACK
6
CONTINUOUS
10
79.2706
20
-97.2255
11
78.5362
21
-97.4762
0
LINE
8
BLACK
6
CONTINUOUS
10
78.5362
20
-97.4762
11
77.8674
21
-97.8693
0
LINE
8
BLACK
6
CONTINUOUS
10
77.8674
20
-97.8693
11
77.2913
21
-98.3889
0
LINE
8
BLACK
6
CONTINUOUS
10
77.2913
20
-98.3889
11
76.8314
21
-99.0138
0
LINE
8
BLACK
6
CONTINUOUS
10
76.8314
20
-99.0138
11
76.5066
21
-99.7183
0
LINE
8
BLACK
6
CONTINUOUS
10
76.5066
20
-99.7183
11
76.3277
21
-100.484
0
LINE
8
BLACK
6
CONTINUOUS
10
76.3277
20
-100.484
11
76.3248
21
-100.494
0
LINE
8
BLACK
6
CONTINUOUS
10
76.3248
20
-100.494
11
76.3163
21
-100.512
0
LINE
8
BLACK
6
CONTINUOUS
10
76.3163
20
-100.512
11
76.3042
21
-100.528
0
LINE
8
BLACK
6
CONTINUOUS
10
76.3042
20
-100.528
11
76.2904
21
-100.541
0
LINE
8
BLACK
6
CONTINUOUS
10
76.2904
20
-100.541
11
76.2954
21
-100.549
0
LINE
8
BLACK
6
CONTINUOUS
10
76.2954
20
-100.549
11
76.3
21
-100.575
0
LINE
8
BLACK
6
CONTINUOUS
10
76.3
20
-100.575
11
76.3
21
-126.233
0
LINE
8
BLACK
6
CONTINUOUS
10
76.3
20
-126.233
11
76.3431
21
-126.696
0
LINE
8
BLACK
6
CONTINUOUS
10
76.3431
20
-126.696
11
76.5392
21
-127.449
0
LINE
8
BLACK
6
CONTINUOUS
10
76.5392
20
-127.449
11
76.8817
21
-128.145
0
LINE
8
BLACK
6
CONTINUOUS
10
76.8817
20
-128.145
11
77.3572
21
-128.758
0
LINE
8
BLACK
6
CONTINUOUS
10
77.3572
20
-128.758
11
77.9463
21
-129.263
0
LINE
8
BLACK
6
CONTINUOUS
10
77.9463
20
-129.263
11
78.6248
21
-129.639
0
LINE
8
BLACK
6
CONTINUOUS
10
78.6248
20
-129.639
11
79.3652
21
-129.871
0
LINE
8
BLACK
6
CONTINUOUS
10
79.3652
20
-129.871
11
80.1219
21
-129.948
0
LINE
8
BLACK
6
CONTINUOUS
10
80.1219
20
-129.948
11
160.652
21
-129.948
0
LINE
8
BLACK
6
CONTINUOUS
10
160.652
20
-129.948
11
161.117
21
-129.92
0
LINE
8
BLACK
6
CONTINUOUS
10
161.117
20
-129.92
11
161.876
21
-129.748
0
LINE
8
BLACK
6
CONTINUOUS
10
161.876
20
-129.748
11
162.582
21
-129.428
0
LINE
8
BLACK
6
CONTINUOUS
10
162.582
20
-129.428
11
163.21
21
-128.973
0
LINE
8
BLACK
6
CONTINUOUS
10
163.21
20
-128.973
11
163.733
21
-128.401
0
LINE
8
BLACK
6
CONTINUOUS
10
163.733
20
-128.401
11
164.131
21
-127.735
0
LINE
8
BLACK
6
CONTINUOUS
10
164.131
20
-127.735
11
164.386
21
-127.003
0
LINE
8
BLACK
6
CONTINUOUS
10
164.386
20
-127.003
11
164.491
21
-126.225
0
LINE
8
BLACK
6
CONTINUOUS
10
164.491
20
-126.225
11
164.492
21
-126.218
0
LINE
8
BLACK
6
CONTINUOUS
10
164.492
20
-126.218
11
164.492
21
-101.124
0
LINE
8
BLACK
6
CONTINUOUS
10
164.492
20
-101.124
11
164.489
21
-101.114
0
LINE
8
BLACK
6
CONTINUOUS
10
164.489
20
-101.114
11
164.488
21
-101.094
0
LINE
8
BLACK
6
CONTINUOUS
10
164.488
20
-101.094
11
164.496
21
-100.91
0
LINE
8
BLACK
6
CONTINUOUS
10
164.496
20
-100.91
11
164.432
21
-100.158
0
LINE
8
BLACK
6
CONTINUOUS
10
164.432
20
-100.158
11
164.219
21
-99.4368
0
LINE
8
BLACK
6
CONTINUOUS
10
164.219
20
-99.4368
11
163.866
21
-98.7736
0
LINE
8
BLACK
6
CONTINUOUS
10
163.866
20
-98.7736
11
163.386
21
-98.195
0
LINE
8
BLACK
6
CONTINUOUS
10
163.386
20
-98.195
11
162.8
21
-97.7247
0
LINE
8
BLACK
6
CONTINUOUS
10
162.8
20
-97.7247
11
162.132
21
-97.3817
0
LINE
8
BLACK
6
CONTINUOUS
10
162.132
20
-97.3817
11
161.408
21
-97.1803
0
LINE
8
BLACK
6
CONTINUOUS
10
161.408
20
-97.1803
11
160.652
21
-97.128
0
LINE
8
BLACK
6
CONTINUOUS
10
160.652
20
-97.128
11
80.0165
21
-97.128
0
LINE
8
BLACK
6
CONTINUOUS
10
81.4402
20
-127.122
11
81.0425
21
-127.489
0
LINE
8
BLACK
6
CONTINUOUS
10
81.0425
20
-127.489
11
80.5472
21
-127.708
0
LINE
8
BLACK
6
CONTINUOUS
10
80.5472
20
-127.708
11
80.0076
21
-127.755
0
LINE
8
BLACK
6
CONTINUOUS
10
80.0076
20
-127.755
11
79.482
21
-127.625
0
LINE
8
BLACK
6
CONTINUOUS
10
79.482
20
-127.625
11
79.027
21
-127.331
0
LINE
8
BLACK
6
CONTINUOUS
10
79.027
20
-127.331
11
78.6917
21
-126.906
0
LINE
8
BLACK
6
CONTINUOUS
10
78.6917
20
-126.906
11
78.5123
21
-126.395
0
LINE
8
BLACK
6
CONTINUOUS
10
78.5123
20
-126.395
11
78.508
21
-125.853
0
LINE
8
BLACK
6
CONTINUOUS
10
78.508
20
-125.853
11
78.6794
21
-125.339
0
LINE
8
BLACK
6
CONTINUOUS
10
78.6794
20
-125.339
11
79.008
21
-124.909
0
LINE
8
BLACK
6
CONTINUOUS
10
79.008
20
-124.909
11
79.4583
21
-124.608
0
LINE
8
BLACK
6
CONTINUOUS
10
79.4583
20
-124.608
11
79.9818
21
-124.469
0
LINE
8
BLACK
6
CONTINUOUS
10
79.9818
20
-124.469
11
80.522
21
-124.507
0
LINE
8
BLACK
6
CONTINUOUS
10
80.522
20
-124.507
11
81.0207
21
-124.718
0
LINE
8
BLACK
6
CONTINUOUS
10
81.0207
20
-124.718
11
81.4242
21
-125.08
0
LINE
8
BLACK
6
CONTINUOUS
10
81.4242
20
-125.08
11
81.6888
21
-125.552
0
LINE
8
BLACK
6
CONTINUOUS
10
81.6888
20
-125.552
11
81.7861
21
-126.085
0
LINE
8
BLACK
6
CONTINUOUS
10
81.7861
20
-126.085
11
81.7863
21
-126.111
0
LINE
8
BLACK
6
CONTINUOUS
10
81.7863
20
-126.111
11
81.6974
21
-126.645
0
LINE
8
BLACK
6
CONTINUOUS
10
81.6974
20
-126.645
11
81.4402
21
-127.122
0
LINE
8
BLACK
6
CONTINUOUS
10
81.2664
20
-125.235
11
80.9217
21
-124.916
0
LINE
8
BLACK
6
CONTINUOUS
10
80.9217
20
-124.916
11
80.4924
21
-124.727
0
LINE
8
BLACK
6
CONTINUOUS
10
80.4924
20
-124.727
11
80.0249
21
-124.686
0
LINE
8
BLACK
6
CONTINUOUS
10
80.0249
20
-124.686
11
79.5694
21
-124.799
0
LINE
8
BLACK
6
CONTINUOUS
10
79.5694
20
-124.799
11
79.1751
21
-125.054
0
LINE
8
BLACK
6
CONTINUOUS
10
79.1751
20
-125.054
11
78.8845
21
-125.422
0
LINE
8
BLACK
6
CONTINUOUS
10
78.8845
20
-125.422
11
78.729
21
-125.865
0
LINE
8
BLACK
6
CONTINUOUS
10
78.729
20
-125.865
11
78.7253
21
-126.335
0
LINE
8
BLACK
6
CONTINUOUS
10
78.7253
20
-126.335
11
78.8738
21
-126.78
0
LINE
8
BLACK
6
CONTINUOUS
10
78.8738
20
-126.78
11
79.1586
21
-127.153
0
LINE
8
BLACK
6
CONTINUOUS
10
79.1586
20
-127.153
11
79.5488
21
-127.414
0
LINE
8
BLACK
6
CONTINUOUS
10
79.5488
20
-127.414
11
80.0025
21
-127.534
0
LINE
8
BLACK
6
CONTINUOUS
10
80.0025
20
-127.534
11
80.4707
21
-127.501
0
LINE
8
BLACK
6
CONTINUOUS
10
80.4707
20
-127.501
11
80.9028
21
-127.318
0
LINE
8
BLACK
6
CONTINUOUS
10
80.9028
20
-127.318
11
81.2525
21
-127.005
0
LINE
8
BLACK
6
CONTINUOUS
10
81.2525
20
-127.005
11
81.4818
21
-126.595
0
LINE
8
BLACK
6
CONTINUOUS
10
81.4818
20
-126.595
11
81.5661
21
-126.133
0
LINE
8
BLACK
6
CONTINUOUS
10
81.5661
20
-126.133
11
81.5663
21
-126.111
0
LINE
8
BLACK
6
CONTINUOUS
10
81.5663
20
-126.111
11
81.4892
21
-125.648
0
LINE
8
BLACK
6
CONTINUOUS
10
81.4892
20
-125.648
11
81.2664
21
-125.235
0
LINE
8
BLACK
6
CONTINUOUS
10
161.953
20
-127.122
11
161.555
21
-127.489
0
LINE
8
BLACK
6
CONTINUOUS
10
161.555
20
-127.489
11
161.06
21
-127.708
0
LINE
8
BLACK
6
CONTINUOUS
10
161.06
20
-127.708
11
160.52
21
-127.755
0
LINE
8
BLACK
6
CONTINUOUS
10
160.52
20
-127.755
11
159.995
21
-127.625
0
LINE
8
BLACK
6
CONTINUOUS
10
159.995
20
-127.625
11
159.54
21
-127.331
0
LINE
8
BLACK
6
CONTINUOUS
10
159.54
20
-127.331
11
159.204
21
-126.906
0
LINE
8
BLACK
6
CONTINUOUS
10
159.204
20
-126.906
11
159.025
21
-126.395
0
LINE
8
BLACK
6
CONTINUOUS
10
159.025
20
-126.395
11
159.021
21
-125.853
0
LINE
8
BLACK
6
CONTINUOUS
10
159.021
20
-125.853
11
159.192
21
-125.339
0
LINE
8
BLACK
6
CONTINUOUS
10
159.192
20
-125.339
11
159.521
21
-124.909
0
LINE
8
BLACK
6
CONTINUOUS
10
159.521
20
-124.909
11
159.971
21
-124.608
0
LINE
8
BLACK
6
CONTINUOUS
10
159.971
20
-124.608
11
160.495
21
-124.469
0
LINE
8
BLACK
6
CONTINUOUS
10
160.495
20
-124.469
11
161.035
21
-124.507
0
LINE
8
BLACK
6
CONTINUOUS
10
161.035
20
-124.507
11
161.533
21
-124.718
0
LINE
8
BLACK
6
CONTINUOUS
10
161.533
20
-124.718
11
161.937
21
-125.08
0
LINE
8
BLACK
6
CONTINUOUS
10
161.937
20
-125.08
11
162.201
21
-125.552
0
LINE
8
BLACK
6
CONTINUOUS
10
162.201
20
-125.552
11
162.299
21
-126.085
0
LINE
8
BLACK
6
CONTINUOUS
10
162.299
20
-126.085
11
162.299
21
-126.111
0
LINE
8
BLACK
6
CONTINUOUS
10
162.299
20
-126.111
11
162.21
21
-126.645
0
LINE
8
BLACK
6
CONTINUOUS
10
162.21
20
-126.645
11
161.953
21
-127.122
0
LINE
8
BLACK
6
CONTINUOUS
10
161.779
20
-125.235
11
161.434
21
-124.916
0
LINE
8
BLACK
6
CONTINUOUS
10
161.434
20
-124.916
11
161.005
21
-124.727
0
LINE
8
BLACK
6
CONTINUOUS
10
161.005
20
-124.727
11
160.538
21
-124.686
0
LINE
8
BLACK
6
CONTINUOUS
10
160.538
20
-124.686
11
160.082
21
-124.799
0
LINE
8
BLACK
6
CONTINUOUS
10
160.082
20
-124.799
11
159.688
21
-125.054
0
LINE
8
BLACK
6
CONTINUOUS
10
159.688
20
-125.054
11
159.397
21
-125.422
0
LINE
8
BLACK
6
CONTINUOUS
10
159.397
20
-125.422
11
159.242
21
-125.865
0
LINE
8
BLACK
6
CONTINUOUS
10
159.242
20
-125.865
11
159.238
21
-126.335
0
LINE
8
BLACK
6
CONTINUOUS
10
159.238
20
-126.335
11
159.387
21
-126.78
0
LINE
8
BLACK
6
CONTINUOUS
10
159.387
20
-126.78
11
159.671
21
-127.153
0
LINE
8
BLACK
6
CONTINUOUS
10
159.671
20
-127.153
11
160.062
21
-127.414
0
LINE
8
BLACK
6
CONTINUOUS
10
160.062
20
-127.414
11
160.515
21
-127.534
0
LINE
8
BLACK
6
CONTINUOUS
10
160.515
20
-127.534
11
160.983
21
-127.501
0
LINE
8
BLACK
6
CONTINUOUS
10
160.983
20
-127.501
11
161.416
21
-127.318
0
LINE
8
BLACK
6
CONTINUOUS
10
161.416
20
-127.318
11
161.765
21
-127.005
0
LINE
8
BLACK
6
CONTINUOUS
10
161.765
20
-127.005
11
161.995
21
-126.595
0
LINE
8
BLACK
6
CONTINUOUS
10
161.995
20
-126.595
11
162.079
21
-126.133
0
LINE
8
BLACK
6
CONTINUOUS
10
162.079
20
-126.133
11
162.079
21
-126.111
0
LINE
8
BLACK
6
CONTINUOUS
10
162.079
20
-126.111
11
162.002
21
-125.648
0
LINE
8
BLACK
6
CONTINUOUS
10
162.002
20
-125.648
11
161.779
21
-125.235
0
LINE
8
BLACK
6
CONTINUOUS
10
131.418
20
-123.331
11
131.028
21
-124.089
0
LINE
8
BLACK
6
CONTINUOUS
10
131.028
20
-124.089
11
130.502
21
-124.759
0
LINE
8
BLACK
6
CONTINUOUS
10
130.502
20
-124.759
11
129.858
21
-125.317
0
LINE
8
BLACK
6
CONTINUOUS
10
129.858
20
-125.317
11
129.121
21
-125.744
0
LINE
8
BLACK
6
CONTINUOUS
10
129.121
20
-125.744
11
128.316
21
-126.023
0
LINE
8
BLACK
6
CONTINUOUS
10
128.316
20
-126.023
11
127.473
21
-126.145
0
LINE
8
BLACK
6
CONTINUOUS
10
127.473
20
-126.145
11
126.622
21
-126.106
0
LINE
8
BLACK
6
CONTINUOUS
10
126.622
20
-126.106
11
125.794
21
-125.906
0
LINE
8
BLACK
6
CONTINUOUS
10
125.794
20
-125.906
11
125.018
21
-125.554
0
LINE
8
BLACK
6
CONTINUOUS
10
125.018
20
-125.554
11
124.324
21
-125.061
0
LINE
8
BLACK
6
CONTINUOUS
10
124.324
20
-125.061
11
123.734
21
-124.446
0
LINE
8
BLACK
6
CONTINUOUS
10
123.734
20
-124.446
11
123.272
21
-123.73
0
LINE
8
BLACK
6
CONTINUOUS
10
123.272
20
-123.73
11
122.954
21
-122.94
0
LINE
8
BLACK
6
CONTINUOUS
10
122.954
20
-122.94
11
122.791
21
-122.104
0
LINE
8
BLACK
6
CONTINUOUS
10
122.791
20
-122.104
11
122.788
21
-121.252
0
LINE
8
BLACK
6
CONTINUOUS
10
122.788
20
-121.252
11
122.947
21
-120.415
0
LINE
8
BLACK
6
CONTINUOUS
10
122.947
20
-120.415
11
123.262
21
-119.623
0
LINE
8
BLACK
6
CONTINUOUS
10
123.262
20
-119.623
11
123.72
21
-118.905
0
LINE
8
BLACK
6
CONTINUOUS
10
123.72
20
-118.905
11
124.306
21
-118.286
0
LINE
8
BLACK
6
CONTINUOUS
10
124.306
20
-118.286
11
124.998
21
-117.79
0
LINE
8
BLACK
6
CONTINUOUS
10
124.998
20
-117.79
11
125.772
21
-117.433
0
LINE
8
BLACK
6
CONTINUOUS
10
125.772
20
-117.433
11
126.599
21
-117.229
0
LINE
8
BLACK
6
CONTINUOUS
10
126.599
20
-117.229
11
127.45
21
-117.186
0
LINE
8
BLACK
6
CONTINUOUS
10
127.45
20
-117.186
11
128.293
21
-117.303
0
LINE
8
BLACK
6
CONTINUOUS
10
128.293
20
-117.303
11
129.1
21
-117.579
0
LINE
8
BLACK
6
CONTINUOUS
10
129.1
20
-117.579
11
129.839
21
-118.001
0
LINE
8
BLACK
6
CONTINUOUS
10
129.839
20
-118.001
11
130.485
21
-118.556
0
LINE
8
BLACK
6
CONTINUOUS
10
130.485
20
-118.556
11
131.015
21
-119.223
0
LINE
8
BLACK
6
CONTINUOUS
10
131.015
20
-119.223
11
131.409
21
-119.979
0
LINE
8
BLACK
6
CONTINUOUS
10
131.409
20
-119.979
11
131.653
21
-120.795
0
LINE
8
BLACK
6
CONTINUOUS
10
131.653
20
-120.795
11
131.739
21
-121.643
0
LINE
8
BLACK
6
CONTINUOUS
10
131.739
20
-121.643
11
131.739
21
-121.666
0
LINE
8
BLACK
6
CONTINUOUS
10
131.739
20
-121.666
11
131.658
21
-122.514
0
LINE
8
BLACK
6
CONTINUOUS
10
131.658
20
-122.514
11
131.418
21
-123.331
0
LINE
8
BLACK
6
CONTINUOUS
10
131.214
20
-120.082
11
130.843
21
-119.362
0
LINE
8
BLACK
6
CONTINUOUS
10
130.843
20
-119.362
11
130.342
21
-118.725
0
LINE
8
BLACK
6
CONTINUOUS
10
130.342
20
-118.725
11
129.731
21
-118.194
0
LINE
8
BLACK
6
CONTINUOUS
10
129.731
20
-118.194
11
129.029
21
-117.788
0
LINE
8
BLACK
6
CONTINUOUS
10
129.029
20
-117.788
11
128.264
21
-117.523
0
LINE
8
BLACK
6
CONTINUOUS
10
128.264
20
-117.523
11
127.462
21
-117.406
0
LINE
8
BLACK
6
CONTINUOUS
10
127.462
20
-117.406
11
126.653
21
-117.444
0
LINE
8
BLACK
6
CONTINUOUS
10
126.653
20
-117.444
11
125.866
21
-117.634
0
LINE
8
BLACK
6
CONTINUOUS
10
125.866
20
-117.634
11
125.128
21
-117.969
0
LINE
8
BLACK
6
CONTINUOUS
10
125.128
20
-117.969
11
124.467
21
-118.438
0
LINE
8
BLACK
6
CONTINUOUS
10
124.467
20
-118.438
11
123.907
21
-119.023
0
LINE
8
BLACK
6
CONTINUOUS
10
123.907
20
-119.023
11
123.468
21
-119.703
0
LINE
8
BLACK
6
CONTINUOUS
10
123.468
20
-119.703
11
123.165
21
-120.455
0
LINE
8
BLACK
6
CONTINUOUS
10
123.165
20
-120.455
11
123.01
21
-121.25
0
LINE
8
BLACK
6
CONTINUOUS
10
123.01
20
-121.25
11
123.007
21
-122.06
0
LINE
8
BLACK
6
CONTINUOUS
10
123.007
20
-122.06
11
123.159
21
-122.856
0
LINE
8
BLACK
6
CONTINUOUS
10
123.159
20
-122.856
11
123.457
21
-123.609
0
LINE
8
BLACK
6
CONTINUOUS
10
123.457
20
-123.609
11
123.893
21
-124.292
0
LINE
8
BLACK
6
CONTINUOUS
10
123.893
20
-124.292
11
124.45
21
-124.88
0
LINE
8
BLACK
6
CONTINUOUS
10
124.45
20
-124.88
11
125.109
21
-125.352
0
LINE
8
BLACK
6
CONTINUOUS
10
125.109
20
-125.352
11
125.844
21
-125.691
0
LINE
8
BLACK
6
CONTINUOUS
10
125.844
20
-125.691
11
126.631
21
-125.885
0
LINE
8
BLACK
6
CONTINUOUS
10
126.631
20
-125.885
11
127.44
21
-125.927
0
LINE
8
BLACK
6
CONTINUOUS
10
127.44
20
-125.927
11
128.242
21
-125.815
0
LINE
8
BLACK
6
CONTINUOUS
10
128.242
20
-125.815
11
129.009
21
-125.553
0
LINE
8
BLACK
6
CONTINUOUS
10
129.009
20
-125.553
11
129.712
21
-125.151
0
LINE
8
BLACK
6
CONTINUOUS
10
129.712
20
-125.151
11
130.327
21
-124.623
0
LINE
8
BLACK
6
CONTINUOUS
10
130.327
20
-124.623
11
130.831
21
-123.989
0
LINE
8
BLACK
6
CONTINUOUS
10
130.831
20
-123.989
11
131.205
21
-123.27
0
LINE
8
BLACK
6
CONTINUOUS
10
131.205
20
-123.27
11
131.438
21
-122.494
0
LINE
8
BLACK
6
CONTINUOUS
10
131.438
20
-122.494
11
131.519
21
-121.688
0
LINE
8
BLACK
6
CONTINUOUS
10
131.519
20
-121.688
11
131.519
21
-121.666
0
LINE
8
BLACK
6
CONTINUOUS
10
131.519
20
-121.666
11
131.442
21
-120.86
0
LINE
8
BLACK
6
CONTINUOUS
10
131.442
20
-120.86
11
131.214
21
-120.082
0
LINE
8
BLACK
6
CONTINUOUS
10
150.713
20
-115.048
11
150.324
21
-115.721
0
LINE
8
BLACK
6
CONTINUOUS
10
150.324
20
-115.721
11
149.805
21
-116.298
0
LINE
8
BLACK
6
CONTINUOUS
10
149.805
20
-116.298
11
149.177
21
-116.754
0
LINE
8
BLACK
6
CONTINUOUS
10
149.177
20
-116.754
11
148.468
21
-117.07
0
LINE
8
BLACK
6
CONTINUOUS
10
148.468
20
-117.07
11
147.708
21
-117.231
0
LINE
8
BLACK
6
CONTINUOUS
10
147.708
20
-117.231
11
146.932
21
-117.231
0
LINE
8
BLACK
6
CONTINUOUS
10
146.932
20
-117.231
11
146.172
21
-117.07
0
LINE
8
BLACK
6
CONTINUOUS
10
146.172
20
-117.07
11
145.463
21
-116.754
0
LINE
8
BLACK
6
CONTINUOUS
10
145.463
20
-116.754
11
144.835
21
-116.298
0
LINE
8
BLACK
6
CONTINUOUS
10
144.835
20
-116.298
11
144.316
21
-115.721
0
LINE
8
BLACK
6
CONTINUOUS
10
144.316
20
-115.721
11
143.927
21
-115.048
0
LINE
8
BLACK
6
CONTINUOUS
10
143.927
20
-115.048
11
143.688
21
-114.31
0
LINE
8
BLACK
6
CONTINUOUS
10
143.688
20
-114.31
11
143.606
21
-113.538
0
LINE
8
BLACK
6
CONTINUOUS
10
143.606
20
-113.538
11
143.688
21
-112.766
0
LINE
8
BLACK
6
CONTINUOUS
10
143.688
20
-112.766
11
143.927
21
-112.028
0
LINE
8
BLACK
6
CONTINUOUS
10
143.927
20
-112.028
11
144.316
21
-111.355
0
LINE
8
BLACK
6
CONTINUOUS
10
144.316
20
-111.355
11
144.835
21
-110.778
0
LINE
8
BLACK
6
CONTINUOUS
10
144.835
20
-110.778
11
145.463
21
-110.322
0
LINE
8
BLACK
6
CONTINUOUS
10
145.463
20
-110.322
11
146.172
21
-110.006
0
LINE
8
BLACK
6
CONTINUOUS
10
146.172
20
-110.006
11
146.932
21
-109.845
0
LINE
8
BLACK
6
CONTINUOUS
10
146.932
20
-109.845
11
147.708
21
-109.845
0
LINE
8
BLACK
6
CONTINUOUS
10
147.708
20
-109.845
11
148.468
21
-110.006
0
LINE
8
BLACK
6
CONTINUOUS
10
148.468
20
-110.006
11
149.177
21
-110.322
0
LINE
8
BLACK
6
CONTINUOUS
10
149.177
20
-110.322
11
149.805
21
-110.778
0
LINE
8
BLACK
6
CONTINUOUS
10
149.805
20
-110.778
11
150.324
21
-111.355
0
LINE
8
BLACK
6
CONTINUOUS
10
150.324
20
-111.355
11
150.713
21
-112.028
0
LINE
8
BLACK
6
CONTINUOUS
10
150.713
20
-112.028
11
150.952
21
-112.766
0
LINE
8
BLACK
6
CONTINUOUS
10
150.952
20
-112.766
11
151.034
21
-113.538
0
LINE
8
BLACK
6
CONTINUOUS
10
151.034
20
-113.538
11
150.952
21
-114.31
0
LINE
8
BLACK
6
CONTINUOUS
10
150.952
20
-114.31
11
150.713
21
-115.048
0
LINE
8
BLACK
6
CONTINUOUS
10
150.512
20
-112.117
11
150.146
21
-111.484
0
LINE
8
BLACK
6
CONTINUOUS
10
150.146
20
-111.484
11
149.658
21
-110.942
0
LINE
8
BLACK
6
CONTINUOUS
10
149.658
20
-110.942
11
149.067
21
-110.512
0
LINE
8
BLACK
6
CONTINUOUS
10
149.067
20
-110.512
11
148.4
21
-110.215
0
LINE
8
BLACK
6
CONTINUOUS
10
148.4
20
-110.215
11
147.685
21
-110.064
0
LINE
8
BLACK
6
CONTINUOUS
10
147.685
20
-110.064
11
146.955
21
-110.064
0
LINE
8
BLACK
6
CONTINUOUS
10
146.955
20
-110.064
11
146.24
21
-110.215
0
LINE
8
BLACK
6
CONTINUOUS
10
146.24
20
-110.215
11
145.573
21
-110.512
0
LINE
8
BLACK
6
CONTINUOUS
10
145.573
20
-110.512
11
144.982
21
-110.942
0
LINE
8
BLACK
6
CONTINUOUS
10
144.982
20
-110.942
11
144.494
21
-111.484
0
LINE
8
BLACK
6
CONTINUOUS
10
144.494
20
-111.484
11
144.128
21
-112.117
0
LINE
8
BLACK
6
CONTINUOUS
10
144.128
20
-112.117
11
143.903
21
-112.812
0
LINE
8
BLACK
6
CONTINUOUS
10
143.903
20
-112.812
11
143.826
21
-113.538
0
LINE
8
BLACK
6
CONTINUOUS
10
143.826
20
-113.538
11
143.903
21
-114.264
0
LINE
8
BLACK
6
CONTINUOUS
10
143.903
20
-114.264
11
144.128
21
-114.959
0
LINE
8
BLACK
6
CONTINUOUS
10
144.128
20
-114.959
11
144.494
21
-115.592
0
LINE
8
BLACK
6
CONTINUOUS
10
144.494
20
-115.592
11
144.982
21
-116.134
0
LINE
8
BLACK
6
CONTINUOUS
10
144.982
20
-116.134
11
145.573
21
-116.564
0
LINE
8
BLACK
6
CONTINUOUS
10
145.573
20
-116.564
11
146.24
21
-116.861
0
LINE
8
BLACK
6
CONTINUOUS
10
146.24
20
-116.861
11
146.955
21
-117.012
0
LINE
8
BLACK
6
CONTINUOUS
10
146.955
20
-117.012
11
147.685
21
-117.012
0
LINE
8
BLACK
6
CONTINUOUS
10
147.685
20
-117.012
11
148.4
21
-116.861
0
LINE
8
BLACK
6
CONTINUOUS
10
148.4
20
-116.861
11
149.067
21
-116.564
0
LINE
8
BLACK
6
CONTINUOUS
10
149.067
20
-116.564
11
149.658
21
-116.134
0
LINE
8
BLACK
6
CONTINUOUS
10
149.658
20
-116.134
11
150.146
21
-115.592
0
LINE
8
BLACK
6
CONTINUOUS
10
150.146
20
-115.592
11
150.512
21
-114.959
0
LINE
8
BLACK
6
CONTINUOUS
10
150.512
20
-114.959
11
150.737
21
-114.264
0
LINE
8
BLACK
6
CONTINUOUS
10
150.737
20
-114.264
11
150.814
21
-113.538
0
LINE
8
BLACK
6
CONTINUOUS
10
150.814
20
-113.538
11
150.737
21
-112.812
0
LINE
8
BLACK
6
CONTINUOUS
10
150.737
20
-112.812
11
150.512
21
-112.117
0
LINE
8
BLACK
6
CONTINUOUS
10
131.418
20
-107.101
11
131.028
21
-107.858
0
LINE
8
BLACK
6
CONTINUOUS
10
131.028
20
-107.858
11
130.502
21
-108.528
0
LINE
8
BLACK
6
CONTINUOUS
10
130.502
20
-108.528
11
129.858
21
-109.086
0
LINE
8
BLACK
6
CONTINUOUS
10
129.858
20
-109.086
11
129.121
21
-109.513
0
LINE
8
BLACK
6
CONTINUOUS
10
129.121
20
-109.513
11
128.316
21
-109.793
0
LINE
8
BLACK
6
CONTINUOUS
10
128.316
20
-109.793
11
127.473
21
-109.915
0
LINE
8
BLACK
6
CONTINUOUS
10
127.473
20
-109.915
11
126.622
21
-109.875
0
LINE
8
BLACK
6
CONTINUOUS
10
126.622
20
-109.875
11
125.794
21
-109.676
0
LINE
8
BLACK
6
CONTINUOUS
10
125.794
20
-109.676
11
125.018
21
-109.323
0
LINE
8
BLACK
6
CONTINUOUS
10
125.018
20
-109.323
11
124.324
21
-108.83
0
LINE
8
BLACK
6
CONTINUOUS
10
124.324
20
-108.83
11
123.734
21
-108.215
0
LINE
8
BLACK
6
CONTINUOUS
10
123.734
20
-108.215
11
123.272
21
-107.499
0
LINE
8
BLACK
6
CONTINUOUS
10
123.272
20
-107.499
11
122.954
21
-106.709
0
LINE
8
BLACK
6
CONTINUOUS
10
122.954
20
-106.709
11
122.791
21
-105.873
0
LINE
8
BLACK
6
CONTINUOUS
10
122.791
20
-105.873
11
122.788
21
-105.021
0
LINE
8
BLACK
6
CONTINUOUS
10
122.788
20
-105.021
11
122.947
21
-104.184
0
LINE
8
BLACK
6
CONTINUOUS
10
122.947
20
-104.184
11
123.262
21
-103.392
0
LINE
8
BLACK
6
CONTINUOUS
10
123.262
20
-103.392
11
123.72
21
-102.674
0
LINE
8
BLACK
6
CONTINUOUS
10
123.72
20
-102.674
11
124.306
21
-102.056
0
LINE
8
BLACK
6
CONTINUOUS
10
124.306
20
-102.056
11
124.998
21
-101.559
0
LINE
8
BLACK
6
CONTINUOUS
10
124.998
20
-101.559
11
125.772
21
-101.203
0
LINE
8
BLACK
6
CONTINUOUS
10
125.772
20
-101.203
11
126.599
21
-100.999
0
LINE
8
BLACK
6
CONTINUOUS
10
126.599
20
-100.999
11
127.45
21
-100.955
0
LINE
8
BLACK
6
CONTINUOUS
10
127.45
20
-100.955
11
128.293
21
-101.073
0
LINE
8
BLACK
6
CONTINUOUS
10
128.293
20
-101.073
11
129.1
21
-101.348
0
LINE
8
BLACK
6
CONTINUOUS
10
129.1
20
-101.348
11
129.839
21
-101.771
0
LINE
8
BLACK
6
CONTINUOUS
10
129.839
20
-101.771
11
130.485
21
-102.326
0
LINE
8
BLACK
6
CONTINUOUS
10
130.485
20
-102.326
11
131.015
21
-102.993
0
LINE
8
BLACK
6
CONTINUOUS
10
131.015
20
-102.993
11
131.409
21
-103.748
0
LINE
8
BLACK
6
CONTINUOUS
10
131.409
20
-103.748
11
131.653
21
-104.564
0
LINE
8
BLACK
6
CONTINUOUS
10
131.653
20
-104.564
11
131.739
21
-105.412
0
LINE
8
BLACK
6
CONTINUOUS
10
131.739
20
-105.412
11
131.739
21
-105.435
0
LINE
8
BLACK
6
CONTINUOUS
10
131.739
20
-105.435
11
131.658
21
-106.283
0
LINE
8
BLACK
6
CONTINUOUS
10
131.658
20
-106.283
11
131.418
21
-107.101
0
LINE
8
BLACK
6
CONTINUOUS
10
131.214
20
-103.852
11
130.843
21
-103.131
0
LINE
8
BLACK
6
CONTINUOUS
10
130.843
20
-103.131
11
130.342
21
-102.494
0
LINE
8
BLACK
6
CONTINUOUS
10
130.342
20
-102.494
11
129.731
21
-101.963
0
LINE
8
BLACK
6
CONTINUOUS
10
129.731
20
-101.963
11
129.029
21
-101.558
0
LINE
8
BLACK
6
CONTINUOUS
10
129.029
20
-101.558
11
128.264
21
-101.292
0
LINE
8
BLACK
6
CONTINUOUS
10
128.264
20
-101.292
11
127.462
21
-101.176
0
LINE
8
BLACK
6
CONTINUOUS
10
127.462
20
-101.176
11
126.653
21
-101.213
0
LINE
8
BLACK
6
CONTINUOUS
10
126.653
20
-101.213
11
125.866
21
-101.403
0
LINE
8
BLACK
6
CONTINUOUS
10
125.866
20
-101.403
11
125.128
21
-101.738
0
LINE
8
BLACK
6
CONTINUOUS
10
125.128
20
-101.738
11
124.467
21
-102.207
0
LINE
8
BLACK
6
CONTINUOUS
10
124.467
20
-102.207
11
123.907
21
-102.792
0
LINE
8
BLACK
6
CONTINUOUS
10
123.907
20
-102.792
11
123.468
21
-103.473
0
LINE
8
BLACK
6
CONTINUOUS
10
123.468
20
-103.473
11
123.165
21
-104.224
0
LINE
8
BLACK
6
CONTINUOUS
10
123.165
20
-104.224
11
123.01
21
-105.019
0
LINE
8
BLACK
6
CONTINUOUS
10
123.01
20
-105.019
11
123.007
21
-105.829
0
LINE
8
BLACK
6
CONTINUOUS
10
123.007
20
-105.829
11
123.159
21
-106.625
0
LINE
8
BLACK
6
CONTINUOUS
10
123.159
20
-106.625
11
123.457
21
-107.378
0
LINE
8
BLACK
6
CONTINUOUS
10
123.457
20
-107.378
11
123.893
21
-108.061
0
LINE
8
BLACK
6
CONTINUOUS
10
123.893
20
-108.061
11
124.45
21
-108.649
0
LINE
8
BLACK
6
CONTINUOUS
10
124.45
20
-108.649
11
125.109
21
-109.121
0
LINE
8
BLACK
6
CONTINUOUS
10
125.109
20
-109.121
11
125.844
21
-109.46
0
LINE
8
BLACK
6
CONTINUOUS
10
125.844
20
-109.46
11
126.631
21
-109.654
0
LINE
8
BLACK
6
CONTINUOUS
10
126.631
20
-109.654
11
127.44
21
-109.696
0
LINE
8
BLACK
6
CONTINUOUS
10
127.44
20
-109.696
11
128.242
21
-109.584
0
LINE
8
BLACK
6
CONTINUOUS
10
128.242
20
-109.584
11
129.009
21
-109.322
0
LINE
8
BLACK
6
CONTINUOUS
10
129.009
20
-109.322
11
129.712
21
-108.92
0
LINE
8
BLACK
6
CONTINUOUS
10
129.712
20
-108.92
11
130.327
21
-108.393
0
LINE
8
BLACK
6
CONTINUOUS
10
130.327
20
-108.393
11
130.831
21
-107.758
0
LINE
8
BLACK
6
CONTINUOUS
10
130.831
20
-107.758
11
131.205
21
-107.04
0
LINE
8
BLACK
6
CONTINUOUS
10
131.205
20
-107.04
11
131.438
21
-106.264
0
LINE
8
BLACK
6
CONTINUOUS
10
131.438
20
-106.264
11
131.519
21
-105.458
0
LINE
8
BLACK
6
CONTINUOUS
10
131.519
20
-105.458
11
131.519
21
-105.435
0
LINE
8
BLACK
6
CONTINUOUS
10
131.519
20
-105.435
11
131.442
21
-104.629
0
LINE
8
BLACK
6
CONTINUOUS
10
131.442
20
-104.629
11
131.214
21
-103.852
0
LINE
8
BLACK
6
CONTINUOUS
10
81.4402
20
-101.976
11
81.0425
21
-102.343
0
LINE
8
BLACK
6
CONTINUOUS
10
81.0425
20
-102.343
11
80.5472
21
-102.562
0
LINE
8
BLACK
6
CONTINUOUS
10
80.5472
20
-102.562
11
80.0076
21
-102.609
0
LINE
8
BLACK
6
CONTINUOUS
10
80.0076
20
-102.609
11
79.482
21
-102.479
0
LINE
8
BLACK
6
CONTINUOUS
10
79.482
20
-102.479
11
79.027
21
-102.185
0
LINE
8
BLACK
6
CONTINUOUS
10
79.027
20
-102.185
11
78.6917
21
-101.76
0
LINE
8
BLACK
6
CONTINUOUS
10
78.6917
20
-101.76
11
78.5123
21
-101.249
0
LINE
8
BLACK
6
CONTINUOUS
10
78.5123
20
-101.249
11
78.508
21
-100.707
0
LINE
8
BLACK
6
CONTINUOUS
10
78.508
20
-100.707
11
78.6794
21
-100.193
0
LINE
8
BLACK
6
CONTINUOUS
10
78.6794
20
-100.193
11
79.008
21
-99.7627
0
LINE
8
BLACK
6
CONTINUOUS
10
79.008
20
-99.7627
11
79.4583
21
-99.4618
0
LINE
8
BLACK
6
CONTINUOUS
10
79.4583
20
-99.4618
11
79.9818
21
-99.323
0
LINE
8
BLACK
6
CONTINUOUS
10
79.9818
20
-99.323
11
80.522
21
-99.3613
0
LINE
8
BLACK
6
CONTINUOUS
10
80.522
20
-99.3613
11
81.0207
21
-99.5725
0
LINE
8
BLACK
6
CONTINUOUS
10
81.0207
20
-99.5725
11
81.4242
21
-99.9338
0
LINE
8
BLACK
6
CONTINUOUS
10
81.4242
20
-99.9338
11
81.6888
21
-100.406
0
LINE
8
BLACK
6
CONTINUOUS
10
81.6888
20
-100.406
11
81.7861
21
-100.939
0
LINE
8
BLACK
6
CONTINUOUS
10
81.7861
20
-100.939
11
81.7863
21
-100.965
0
LINE
8
BLACK
6
CONTINUOUS
10
81.7863
20
-100.965
11
81.6974
21
-101.499
0
LINE
8
BLACK
6
CONTINUOUS
10
81.6974
20
-101.499
11
81.4402
21
-101.976
0
LINE
8
BLACK
6
CONTINUOUS
10
81.2664
20
-100.089
11
80.9217
21
-99.7704
0
LINE
8
BLACK
6
CONTINUOUS
10
80.9217
20
-99.7704
11
80.4924
21
-99.5806
0
LINE
8
BLACK
6
CONTINUOUS
10
80.4924
20
-99.5806
11
80.0249
21
-99.5401
0
LINE
8
BLACK
6
CONTINUOUS
10
80.0249
20
-99.5401
11
79.5694
21
-99.6533
0
LINE
8
BLACK
6
CONTINUOUS
10
79.5694
20
-99.6533
11
79.1751
21
-99.9079
0
LINE
8
BLACK
6
CONTINUOUS
10
79.1751
20
-99.9079
11
78.8845
21
-100.276
0
LINE
8
BLACK
6
CONTINUOUS
10
78.8845
20
-100.276
11
78.729
21
-100.719
0
LINE
8
BLACK
6
CONTINUOUS
10
78.729
20
-100.719
11
78.7253
21
-101.189
0
LINE
8
BLACK
6
CONTINUOUS
10
78.7253
20
-101.189
11
78.8738
21
-101.634
0
LINE
8
BLACK
6
CONTINUOUS
10
78.8738
20
-101.634
11
79.1586
21
-102.007
0
LINE
8
BLACK
6
CONTINUOUS
10
79.1586
20
-102.007
11
79.5488
21
-102.268
0
LINE
8
BLACK
6
CONTINUOUS
10
79.5488
20
-102.268
11
80.0025
21
-102.388
0
LINE
8
BLACK
6
CONTINUOUS
10
80.0025
20
-102.388
11
80.4707
21
-102.355
0
LINE
8
BLACK
6
CONTINUOUS
10
80.4707
20
-102.355
11
80.9028
21
-102.172
0
LINE
8
BLACK
6
CONTINUOUS
10
80.9028
20
-102.172
11
81.2525
21
-101.859
0
LINE
8
BLACK
6
CONTINUOUS
10
81.2525
20
-101.859
11
81.4818
21
-101.449
0
LINE
8
BLACK
6
CONTINUOUS
10
81.4818
20
-101.449
11
81.5661
21
-100.987
0
LINE
8
BLACK
6
CONTINUOUS
10
81.5661
20
-100.987
11
81.5663
21
-100.965
0
LINE
8
BLACK
6
CONTINUOUS
10
81.5663
20
-100.965
11
81.4892
21
-100.502
0
LINE
8
BLACK
6
CONTINUOUS
10
81.4892
20
-100.502
11
81.2664
21
-100.089
0
LINE
8
BLACK
6
CONTINUOUS
10
162.085
20
-101.849
11
161.687
21
-102.216
0
LINE
8
BLACK
6
CONTINUOUS
10
161.687
20
-102.216
11
161.192
21
-102.435
0
LINE
8
BLACK
6
CONTINUOUS
10
161.192
20
-102.435
11
160.653
21
-102.482
0
LINE
8
BLACK
6
CONTINUOUS
10
160.653
20
-102.482
11
160.127
21
-102.352
0
LINE
8
BLACK
6
CONTINUOUS
10
160.127
20
-102.352
11
159.672
21
-102.058
0
LINE
8
BLACK
6
CONTINUOUS
10
159.672
20
-102.058
11
159.337
21
-101.633
0
LINE
8
BLACK
6
CONTINUOUS
10
159.337
20
-101.633
11
159.157
21
-101.122
0
LINE
8
BLACK
6
CONTINUOUS
10
159.157
20
-101.122
11
159.153
21
-100.58
0
LINE
8
BLACK
6
CONTINUOUS
10
159.153
20
-100.58
11
159.324
21
-100.066
0
LINE
8
BLACK
6
CONTINUOUS
10
159.324
20
-100.066
11
159.653
21
-99.6357
0
LINE
8
BLACK
6
CONTINUOUS
10
159.653
20
-99.6357
11
160.103
21
-99.3348
0
LINE
8
BLACK
6
CONTINUOUS
10
160.103
20
-99.3348
11
160.627
21
-99.196
0
LINE
8
BLACK
6
CONTINUOUS
10
160.627
20
-99.196
11
161.167
21
-99.2343
0
LINE
8
BLACK
6
CONTINUOUS
10
161.167
20
-99.2343
11
161.666
21
-99.4455
0
LINE
8
BLACK
6
CONTINUOUS
10
161.666
20
-99.4455
11
162.069
21
-99.8068
0
LINE
8
BLACK
6
CONTINUOUS
10
162.069
20
-99.8068
11
162.334
21
-100.279
0
LINE
8
BLACK
6
CONTINUOUS
10
162.334
20
-100.279
11
162.431
21
-100.812
0
LINE
8
BLACK
6
CONTINUOUS
10
162.431
20
-100.812
11
162.431
21
-100.838
0
LINE
8
BLACK
6
CONTINUOUS
10
162.431
20
-100.838
11
162.342
21
-101.372
0
LINE
8
BLACK
6
CONTINUOUS
10
162.342
20
-101.372
11
162.085
21
-101.849
0
LINE
8
BLACK
6
CONTINUOUS
10
161.911
20
-99.962
11
161.567
21
-99.6434
0
LINE
8
BLACK
6
CONTINUOUS
10
161.567
20
-99.6434
11
161.137
21
-99.4536
0
LINE
8
BLACK
6
CONTINUOUS
10
161.137
20
-99.4536
11
160.67
21
-99.4131
0
LINE
8
BLACK
6
CONTINUOUS
10
160.67
20
-99.4131
11
160.214
21
-99.5263
0
LINE
8
BLACK
6
CONTINUOUS
10
160.214
20
-99.5263
11
159.82
21
-99.7809
0
LINE
8
BLACK
6
CONTINUOUS
10
159.82
20
-99.7809
11
159.53
21
-100.149
0
LINE
8
BLACK
6
CONTINUOUS
10
159.53
20
-100.149
11
159.374
21
-100.592
0
LINE
8
BLACK
6
CONTINUOUS
10
159.374
20
-100.592
11
159.37
21
-101.062
0
LINE
8
BLACK
6
CONTINUOUS
10
159.37
20
-101.062
11
159.519
21
-101.507
0
LINE
8
BLACK
6
CONTINUOUS
10
159.519
20
-101.507
11
159.804
21
-101.88
0
LINE
8
BLACK
6
CONTINUOUS
10
159.804
20
-101.88
11
160.194
21
-102.141
0
LINE
8
BLACK
6
CONTINUOUS
10
160.194
20
-102.141
11
160.647
21
-102.261
0
LINE
8
BLACK
6
CONTINUOUS
10
160.647
20
-102.261
11
161.116
21
-102.228
0
LINE
8
BLACK
6
CONTINUOUS
10
161.116
20
-102.228
11
161.548
21
-102.045
0
LINE
8
BLACK
6
CONTINUOUS
10
161.548
20
-102.045
11
161.897
21
-101.732
0
LINE
8
BLACK
6
CONTINUOUS
10
161.897
20
-101.732
11
162.127
21
-101.322
0
LINE
8
BLACK
6
CONTINUOUS
10
162.127
20
-101.322
11
162.211
21
-100.86
0
LINE
8
BLACK
6
CONTINUOUS
10
162.211
20
-100.86
11
162.211
21
-100.838
0
LINE
8
BLACK
6
CONTINUOUS
10
162.211
20
-100.838
11
162.134
21
-100.375
0
LINE
8
BLACK
6
CONTINUOUS
10
162.134
20
-100.375
11
161.911
21
-99.962
  0
ENDSEC
  0
EOF
