  0
SECTION
  2
HEADER
  9
$ANGBASE
  50
0.0
  9
$ANGDIR
  70
  1
  9
$MEASUREMENT
  70
0
  0
ENDSEC
  0
SECTION
  2
TABLES
  0
TABLE
  2
LTYPE
  70
4
  0
LTYPE
  5
40F
  2
CONTINUOUS
  70
0
  3
Solid line
  72
65
  73
0
  40
0.0
  0
LTYPE
  5
410
  2
DASHDOT
 70
0
  3
Dash Dot ____ _ ____ _
 72
65
 73
4
 40
2.0
 49
1.25
 49
-0.25
 49
0.25
 49
-0.25
  0
LTYPE
  5
411
  2
DASHED
 70
0
  3
Dashed __ __ __ __ __
 72
65
 73
2
 40
0.75
 49
0.5
 49
-0.25
  0
LTYPE
  5
43B
  2
DOTTED
 70
0
  3
Dotted .  .  .  .
 72
65
 73
2
 40
0.2
 49
0.0
 49
-0.2
  0
ENDTAB
  0
TABLE
  2
STYLE
  70
4
  0
STYLE
  2
KICAD
  70
0
  40
0
  41
1
  42
1
  50
0
  71
0
  3
isocp.shx
  0
STYLE
  2
KICADB
  70
0
  40
0
  41
1
  42
1
  50
0
  71
0
  3
isocp.shx
  0
STYLE
  2
KICADI
  70
0
  40
0
  41
1
  42
1
  50
15
  71
0
  3
isocp.shx
  0
STYLE
  2
KICADBI
  70
0
  40
0
  41
1
  42
1
  50
15
  71
0
  3
isocp.shx
  0
ENDTAB
  0
TABLE
  2
LAYER
  70
30
  0
LAYER
  2
BLACK
  70
0
  62
7
  6
CONTINUOUS
  0
LAYER
  2
GRAY1
  70
0
  62
251
  6
CONTINUOUS
  0
LAYER
  2
GRAY2
  70
0
  62
8
  6
CONTINUOUS
  0
LAYER
  2
GRAY3
  70
0
  62
9
  6
CONTINUOUS
  0
LAYER
  2
WHITE
  70
0
  62
7
  6
CONTINUOUS
  0
LAYER
  2
LYELLOW
  70
0
  62
51
  6
CONTINUOUS
  0
LAYER
  2
BLUE1
  70
0
  62
178
  6
CONTINUOUS
  0
LAYER
  2
GREEN1
  70
0
  62
98
  6
CONTINUOUS
  0
LAYER
  2
CYAN1
  70
0
  62
138
  6
CONTINUOUS
  0
LAYER
  2
RED1
  70
0
  62
18
  6
CONTINUOUS
  0
LAYER
  2
MAGENTA1
  70
0
  62
228
  6
CONTINUOUS
  0
LAYER
  2
BROWN1
  70
0
  62
58
  6
CONTINUOUS
  0
LAYER
  2
BLUE2
  70
0
  62
5
  6
CONTINUOUS
  0
LAYER
  2
GREEN2
  70
0
  62
3
  6
CONTINUOUS
  0
LAYER
  2
CYAN2
  70
0
  62
4
  6
CONTINUOUS
  0
LAYER
  2
RED2
  70
0
  62
1
  6
CONTINUOUS
  0
LAYER
  2
MAGENTA2
  70
0
  62
6
  6
CONTINUOUS
  0
LAYER
  2
BROWN2
  70
0
  62
54
  6
CONTINUOUS
  0
LAYER
  2
BLUE3
  70
0
  62
171
  6
CONTINUOUS
  0
LAYER
  2
GREEN3
  70
0
  62
91
  6
CONTINUOUS
  0
LAYER
  2
CYAN3
  70
0
  62
131
  6
CONTINUOUS
  0
LAYER
  2
RED3
  70
0
  62
11
  6
CONTINUOUS
  0
LAYER
  2
MAGENTA3
  70
0
  62
221
  6
CONTINUOUS
  0
LAYER
  2
YELLOW3
  70
0
  62
2
  6
CONTINUOUS
  0
LAYER
  2
BLUE4
  70
0
  62
5
  6
CONTINUOUS
  0
LAYER
  2
GREEN4
  70
0
  62
3
  6
CONTINUOUS
  0
LAYER
  2
CYAN4
  70
0
  62
4
  6
CONTINUOUS
  0
LAYER
  2
RED4
  70
0
  62
1
  6
CONTINUOUS
  0
LAYER
  2
MAGENTA4
  70
0
  62
6
  6
CONTINUOUS
  0
LAYER
  2
YELLOW4
  70
0
  62
2
  6
CONTINUOUS
  0
ENDTAB
  0
ENDSEC
  0
SECTION
  2
ENTITIES
0
LINE
8
BLACK
6
CONTINUOUS
10
160.667
20
-96.9286
11
161.432
21
-96.9814
0
LINE
8
BLACK
6
CONTINUOUS
10
161.432
20
-96.9814
11
161.432
21
-96.9814
0
LINE
8
BLACK
6
CONTINUOUS
10
161.432
20
-96.9814
11
161.432
21
-96.9814
0
LINE
8
BLACK
6
CONTINUOUS
10
161.432
20
-96.9814
11
161.442
21
-96.9827
0
LINE
8
BLACK
6
CONTINUOUS
10
161.442
20
-96.9827
11
161.447
21
-96.984
0
LINE
8
BLACK
6
CONTINUOUS
10
161.447
20
-96.984
11
161.452
21
-96.9849
0
LINE
8
BLACK
6
CONTINUOUS
10
161.452
20
-96.9849
11
162.195
21
-97.1918
0
LINE
8
BLACK
6
CONTINUOUS
10
162.195
20
-97.1918
11
162.205
21
-97.1951
0
LINE
8
BLACK
6
CONTINUOUS
10
162.205
20
-97.1951
11
162.209
21
-97.1974
0
LINE
8
BLACK
6
CONTINUOUS
10
162.209
20
-97.1974
11
162.214
21
-97.1991
0
LINE
8
BLACK
6
CONTINUOUS
10
162.214
20
-97.1991
11
162.901
21
-97.5513
0
LINE
8
BLACK
6
CONTINUOUS
10
162.901
20
-97.5513
11
162.91
21
-97.5566
0
LINE
8
BLACK
6
CONTINUOUS
10
162.91
20
-97.5566
11
162.914
21
-97.5597
0
LINE
8
BLACK
6
CONTINUOUS
10
162.914
20
-97.5597
11
162.918
21
-97.5623
0
LINE
8
BLACK
6
CONTINUOUS
10
162.918
20
-97.5623
11
163.52
21
-98.0454
0
LINE
8
BLACK
6
CONTINUOUS
10
163.52
20
-98.0454
11
163.527
21
-98.0524
0
LINE
8
BLACK
6
CONTINUOUS
10
163.527
20
-98.0524
11
163.531
21
-98.0562
0
LINE
8
BLACK
6
CONTINUOUS
10
163.531
20
-98.0562
11
163.534
21
-98.0596
0
LINE
8
BLACK
6
CONTINUOUS
10
163.534
20
-98.0596
11
164.026
21
-98.6538
0
LINE
8
BLACK
6
CONTINUOUS
10
164.026
20
-98.6538
11
164.026
21
-98.6538
0
LINE
8
BLACK
6
CONTINUOUS
10
164.026
20
-98.6538
11
164.026
21
-98.6539
0
LINE
8
BLACK
6
CONTINUOUS
10
164.026
20
-98.6539
11
164.033
21
-98.6622
0
LINE
8
BLACK
6
CONTINUOUS
10
164.033
20
-98.6622
11
164.035
21
-98.6666
0
LINE
8
BLACK
6
CONTINUOUS
10
164.035
20
-98.6666
11
164.038
21
-98.6706
0
LINE
8
BLACK
6
CONTINUOUS
10
164.038
20
-98.6706
11
164.401
21
-99.3517
0
LINE
8
BLACK
6
CONTINUOUS
10
164.401
20
-99.3517
11
164.401
21
-99.3517
0
LINE
8
BLACK
6
CONTINUOUS
10
164.401
20
-99.3517
11
164.401
21
-99.3517
0
LINE
8
BLACK
6
CONTINUOUS
10
164.401
20
-99.3517
11
164.405
21
-99.3612
0
LINE
8
BLACK
6
CONTINUOUS
10
164.405
20
-99.3612
11
164.406
21
-99.3659
0
LINE
8
BLACK
6
CONTINUOUS
10
164.406
20
-99.3659
11
164.408
21
-99.3704
0
LINE
8
BLACK
6
CONTINUOUS
10
164.408
20
-99.3704
11
164.627
21
-100.111
0
LINE
8
BLACK
6
CONTINUOUS
10
164.627
20
-100.111
11
164.629
21
-100.121
0
LINE
8
BLACK
6
CONTINUOUS
10
164.629
20
-100.121
11
164.63
21
-100.126
0
LINE
8
BLACK
6
CONTINUOUS
10
164.63
20
-100.126
11
164.63
21
-100.13
0
LINE
8
BLACK
6
CONTINUOUS
10
164.63
20
-100.13
11
164.696
21
-100.899
0
LINE
8
BLACK
6
CONTINUOUS
10
164.696
20
-100.899
11
164.696
21
-100.91
0
LINE
8
BLACK
6
CONTINUOUS
10
164.696
20
-100.91
11
164.696
21
-100.911
0
LINE
8
BLACK
6
CONTINUOUS
10
164.696
20
-100.911
11
164.696
21
-100.912
0
LINE
8
BLACK
6
CONTINUOUS
10
164.696
20
-100.912
11
164.689
21
-101.069
0
LINE
8
BLACK
6
CONTINUOUS
10
164.689
20
-101.069
11
164.692
21
-101.083
0
LINE
8
BLACK
6
CONTINUOUS
10
164.692
20
-101.083
11
164.692
21
-126.247
0
LINE
8
BLACK
6
CONTINUOUS
10
164.692
20
-126.247
11
164.687
21
-126.273
0
LINE
8
BLACK
6
CONTINUOUS
10
164.687
20
-126.273
11
164.686
21
-126.276
0
LINE
8
BLACK
6
CONTINUOUS
10
164.686
20
-126.276
11
164.583
21
-127.04
0
LINE
8
BLACK
6
CONTINUOUS
10
164.583
20
-127.04
11
164.581
21
-127.05
0
LINE
8
BLACK
6
CONTINUOUS
10
164.581
20
-127.05
11
164.58
21
-127.055
0
LINE
8
BLACK
6
CONTINUOUS
10
164.58
20
-127.055
11
164.578
21
-127.06
0
LINE
8
BLACK
6
CONTINUOUS
10
164.578
20
-127.06
11
164.316
21
-127.811
0
LINE
8
BLACK
6
CONTINUOUS
10
164.316
20
-127.811
11
164.316
21
-127.811
0
LINE
8
BLACK
6
CONTINUOUS
10
164.316
20
-127.811
11
164.316
21
-127.811
0
LINE
8
BLACK
6
CONTINUOUS
10
164.316
20
-127.811
11
164.312
21
-127.82
0
LINE
8
BLACK
6
CONTINUOUS
10
164.312
20
-127.82
11
164.31
21
-127.825
0
LINE
8
BLACK
6
CONTINUOUS
10
164.31
20
-127.825
11
164.308
21
-127.829
0
LINE
8
BLACK
6
CONTINUOUS
10
164.308
20
-127.829
11
163.9
21
-128.512
0
LINE
8
BLACK
6
CONTINUOUS
10
163.9
20
-128.512
11
163.9
21
-128.512
0
LINE
8
BLACK
6
CONTINUOUS
10
163.9
20
-128.512
11
163.9
21
-128.512
0
LINE
8
BLACK
6
CONTINUOUS
10
163.9
20
-128.512
11
163.894
21
-128.521
0
LINE
8
BLACK
6
CONTINUOUS
10
163.894
20
-128.521
11
163.89
21
-128.525
0
LINE
8
BLACK
6
CONTINUOUS
10
163.89
20
-128.525
11
163.888
21
-128.528
0
LINE
8
BLACK
6
CONTINUOUS
10
163.888
20
-128.528
11
163.35
21
-129.116
0
LINE
8
BLACK
6
CONTINUOUS
10
163.35
20
-129.116
11
163.35
21
-129.116
0
LINE
8
BLACK
6
CONTINUOUS
10
163.35
20
-129.116
11
163.35
21
-129.116
0
LINE
8
BLACK
6
CONTINUOUS
10
163.35
20
-129.116
11
163.343
21
-129.123
0
LINE
8
BLACK
6
CONTINUOUS
10
163.343
20
-129.123
11
163.339
21
-129.126
0
LINE
8
BLACK
6
CONTINUOUS
10
163.339
20
-129.126
11
163.335
21
-129.129
0
LINE
8
BLACK
6
CONTINUOUS
10
163.335
20
-129.129
11
162.691
21
-129.596
0
LINE
8
BLACK
6
CONTINUOUS
10
162.691
20
-129.596
11
162.691
21
-129.596
0
LINE
8
BLACK
6
CONTINUOUS
10
162.691
20
-129.596
11
162.691
21
-129.596
0
LINE
8
BLACK
6
CONTINUOUS
10
162.691
20
-129.596
11
162.682
21
-129.602
0
LINE
8
BLACK
6
CONTINUOUS
10
162.682
20
-129.602
11
162.678
21
-129.604
0
LINE
8
BLACK
6
CONTINUOUS
10
162.678
20
-129.604
11
162.674
21
-129.606
0
LINE
8
BLACK
6
CONTINUOUS
10
162.674
20
-129.606
11
161.949
21
-129.935
0
LINE
8
BLACK
6
CONTINUOUS
10
161.949
20
-129.935
11
161.939
21
-129.938
0
LINE
8
BLACK
6
CONTINUOUS
10
161.939
20
-129.938
11
161.934
21
-129.939
0
LINE
8
BLACK
6
CONTINUOUS
10
161.934
20
-129.939
11
161.93
21
-129.941
0
LINE
8
BLACK
6
CONTINUOUS
10
161.93
20
-129.941
11
161.154
21
-130.117
0
LINE
8
BLACK
6
CONTINUOUS
10
161.154
20
-130.117
11
161.143
21
-130.118
0
LINE
8
BLACK
6
CONTINUOUS
10
161.143
20
-130.118
11
161.14
21
-130.118
0
LINE
8
BLACK
6
CONTINUOUS
10
161.14
20
-130.118
11
161.138
21
-130.119
0
LINE
8
BLACK
6
CONTINUOUS
10
161.138
20
-130.119
11
160.667
21
-130.147
0
LINE
8
BLACK
6
CONTINUOUS
10
160.667
20
-130.147
11
160.664
21
-130.148
0
LINE
8
BLACK
6
CONTINUOUS
10
160.664
20
-130.148
11
80.1546
21
-130.148
0
LINE
8
BLACK
6
CONTINUOUS
10
80.1546
20
-130.148
11
80.1471
21
-130.15
0
LINE
8
BLACK
6
CONTINUOUS
10
80.1471
20
-130.15
11
80.1269
21
-130.15
0
LINE
8
BLACK
6
CONTINUOUS
10
80.1269
20
-130.15
11
80.1118
21
-130.148
0
LINE
8
BLACK
6
CONTINUOUS
10
80.1118
20
-130.148
11
80.0013
21
-130.148
0
LINE
8
BLACK
6
CONTINUOUS
10
80.0013
20
-130.148
11
79.9753
21
-130.143
0
LINE
8
BLACK
6
CONTINUOUS
10
79.9753
20
-130.143
11
79.9558
21
-130.132
0
LINE
8
BLACK
6
CONTINUOUS
10
79.9558
20
-130.132
11
79.3348
21
-130.069
0
LINE
8
BLACK
6
CONTINUOUS
10
79.3348
20
-130.069
11
79.3348
21
-130.069
0
LINE
8
BLACK
6
CONTINUOUS
10
79.3348
20
-130.069
11
79.3348
21
-130.069
0
LINE
8
BLACK
6
CONTINUOUS
10
79.3348
20
-130.069
11
79.3245
21
-130.067
0
LINE
8
BLACK
6
CONTINUOUS
10
79.3245
20
-130.067
11
79.3198
21
-130.066
0
LINE
8
BLACK
6
CONTINUOUS
10
79.3198
20
-130.066
11
79.315
21
-130.065
0
LINE
8
BLACK
6
CONTINUOUS
10
79.315
20
-130.065
11
78.5553
21
-129.827
0
LINE
8
BLACK
6
CONTINUOUS
10
78.5553
20
-129.827
11
78.5455
21
-129.823
0
LINE
8
BLACK
6
CONTINUOUS
10
78.5455
20
-129.823
11
78.5413
21
-129.821
0
LINE
8
BLACK
6
CONTINUOUS
10
78.5413
20
-129.821
11
78.5368
21
-129.819
0
LINE
8
BLACK
6
CONTINUOUS
10
78.5368
20
-129.819
11
77.8405
21
-129.433
0
LINE
8
BLACK
6
CONTINUOUS
10
77.8405
20
-129.433
11
77.8405
21
-129.433
0
LINE
8
BLACK
6
CONTINUOUS
10
77.8405
20
-129.433
11
77.8404
21
-129.433
0
LINE
8
BLACK
6
CONTINUOUS
10
77.8404
20
-129.433
11
77.8316
21
-129.427
0
LINE
8
BLACK
6
CONTINUOUS
10
77.8316
20
-129.427
11
77.8279
21
-129.424
0
LINE
8
BLACK
6
CONTINUOUS
10
77.8279
20
-129.424
11
77.8239
21
-129.421
0
LINE
8
BLACK
6
CONTINUOUS
10
77.8239
20
-129.421
11
77.2194
21
-128.903
0
LINE
8
BLACK
6
CONTINUOUS
10
77.2194
20
-128.903
11
77.2194
21
-128.903
0
LINE
8
BLACK
6
CONTINUOUS
10
77.2194
20
-128.903
11
77.2194
21
-128.903
0
LINE
8
BLACK
6
CONTINUOUS
10
77.2194
20
-128.903
11
77.2118
21
-128.896
0
LINE
8
BLACK
6
CONTINUOUS
10
77.2118
20
-128.896
11
77.2088
21
-128.892
0
LINE
8
BLACK
6
CONTINUOUS
10
77.2088
20
-128.892
11
77.2054
21
-128.889
0
LINE
8
BLACK
6
CONTINUOUS
10
77.2054
20
-128.889
11
76.7175
21
-128.26
0
LINE
8
BLACK
6
CONTINUOUS
10
76.7175
20
-128.26
11
76.7115
21
-128.251
0
LINE
8
BLACK
6
CONTINUOUS
10
76.7115
20
-128.251
11
76.7094
21
-128.247
0
LINE
8
BLACK
6
CONTINUOUS
10
76.7094
20
-128.247
11
76.7068
21
-128.243
0
LINE
8
BLACK
6
CONTINUOUS
10
76.7068
20
-128.243
11
76.3553
21
-127.528
0
LINE
8
BLACK
6
CONTINUOUS
10
76.3553
20
-127.528
11
76.3512
21
-127.519
0
LINE
8
BLACK
6
CONTINUOUS
10
76.3512
20
-127.519
11
76.3499
21
-127.514
0
LINE
8
BLACK
6
CONTINUOUS
10
76.3499
20
-127.514
11
76.3482
21
-127.509
0
LINE
8
BLACK
6
CONTINUOUS
10
76.3482
20
-127.509
11
76.1476
21
-126.739
0
LINE
8
BLACK
6
CONTINUOUS
10
76.1476
20
-126.739
11
76.1454
21
-126.729
0
LINE
8
BLACK
6
CONTINUOUS
10
76.1454
20
-126.729
11
76.1453
21
-126.726
0
LINE
8
BLACK
6
CONTINUOUS
10
76.1453
20
-126.726
11
76.1448
21
-126.723
0
LINE
8
BLACK
6
CONTINUOUS
10
76.1448
20
-126.723
11
76.1008
21
-126.251
0
LINE
8
BLACK
6
CONTINUOUS
10
76.1008
20
-126.251
11
76.1
21
-126.247
0
LINE
8
BLACK
6
CONTINUOUS
10
76.1
20
-126.247
11
76.1
21
-100.575
0
LINE
8
BLACK
6
CONTINUOUS
10
76.1
20
-100.575
11
76.1046
21
-100.549
0
LINE
8
BLACK
6
CONTINUOUS
10
76.1046
20
-100.549
11
76.1222
21
-100.519
0
LINE
8
BLACK
6
CONTINUOUS
10
76.1222
20
-100.519
11
76.1404
21
-100.504
0
LINE
8
BLACK
6
CONTINUOUS
10
76.1404
20
-100.504
11
76.1374
21
-100.498
0
LINE
8
BLACK
6
CONTINUOUS
10
76.1374
20
-100.498
11
76.1319
21
-100.478
0
LINE
8
BLACK
6
CONTINUOUS
10
76.1319
20
-100.478
11
76.1304
21
-100.458
0
LINE
8
BLACK
6
CONTINUOUS
10
76.1304
20
-100.458
11
76.133
21
-100.438
0
LINE
8
BLACK
6
CONTINUOUS
10
76.133
20
-100.438
11
76.3141
21
-99.6629
0
LINE
8
BLACK
6
CONTINUOUS
10
76.3141
20
-99.6629
11
76.317
21
-99.6529
0
LINE
8
BLACK
6
CONTINUOUS
10
76.317
20
-99.6529
11
76.3191
21
-99.6484
0
LINE
8
BLACK
6
CONTINUOUS
10
76.3191
20
-99.6484
11
76.3207
21
-99.6438
0
LINE
8
BLACK
6
CONTINUOUS
10
76.3207
20
-99.6438
11
76.654
21
-98.9208
0
LINE
8
BLACK
6
CONTINUOUS
10
76.654
20
-98.9208
11
76.6589
21
-98.9115
0
LINE
8
BLACK
6
CONTINUOUS
10
76.6589
20
-98.9115
11
76.6618
21
-98.9076
0
LINE
8
BLACK
6
CONTINUOUS
10
76.6618
20
-98.9076
11
76.6643
21
-98.9034
0
LINE
8
BLACK
6
CONTINUOUS
10
76.6643
20
-98.9034
11
77.1362
21
-98.2622
0
LINE
8
BLACK
6
CONTINUOUS
10
77.1362
20
-98.2622
11
77.1428
21
-98.2541
0
LINE
8
BLACK
6
CONTINUOUS
10
77.1428
20
-98.2541
11
77.1465
21
-98.2509
0
LINE
8
BLACK
6
CONTINUOUS
10
77.1465
20
-98.2509
11
77.1498
21
-98.2472
0
LINE
8
BLACK
6
CONTINUOUS
10
77.1498
20
-98.2472
11
77.741
21
-97.714
0
LINE
8
BLACK
6
CONTINUOUS
10
77.741
20
-97.714
11
77.7491
21
-97.7074
0
LINE
8
BLACK
6
CONTINUOUS
10
77.7491
20
-97.7074
11
77.7533
21
-97.705
0
LINE
8
BLACK
6
CONTINUOUS
10
77.7533
20
-97.705
11
77.7573
21
-97.7021
0
LINE
8
BLACK
6
CONTINUOUS
10
77.7573
20
-97.7021
11
78.4436
21
-97.2986
0
LINE
8
BLACK
6
CONTINUOUS
10
78.4436
20
-97.2986
11
78.4436
21
-97.2986
0
LINE
8
BLACK
6
CONTINUOUS
10
78.4436
20
-97.2986
11
78.4436
21
-97.2986
0
LINE
8
BLACK
6
CONTINUOUS
10
78.4436
20
-97.2986
11
78.4529
21
-97.2938
0
LINE
8
BLACK
6
CONTINUOUS
10
78.4529
20
-97.2938
11
78.4575
21
-97.2922
0
LINE
8
BLACK
6
CONTINUOUS
10
78.4575
20
-97.2922
11
78.462
21
-97.2902
0
LINE
8
BLACK
6
CONTINUOUS
10
78.462
20
-97.2902
11
79.2154
21
-97.033
0
LINE
8
BLACK
6
CONTINUOUS
10
79.2154
20
-97.033
11
79.2255
21
-97.0302
0
LINE
8
BLACK
6
CONTINUOUS
10
79.2255
20
-97.0302
11
79.2302
21
-97.0296
0
LINE
8
BLACK
6
CONTINUOUS
10
79.2302
20
-97.0296
11
79.2348
21
-97.0285
0
LINE
8
BLACK
6
CONTINUOUS
10
79.2348
20
-97.0285
11
79.8158
21
-96.9525
0
LINE
8
BLACK
6
CONTINUOUS
10
79.8158
20
-96.9525
11
79.8177
21
-96.9502
0
LINE
8
BLACK
6
CONTINUOUS
10
79.8177
20
-96.9502
11
79.8483
21
-96.9326
0
LINE
8
BLACK
6
CONTINUOUS
10
79.8483
20
-96.9326
11
79.8743
21
-96.928
0
LINE
8
BLACK
6
CONTINUOUS
10
79.8743
20
-96.928
11
160.664
21
-96.928
0
LINE
8
BLACK
6
CONTINUOUS
10
160.664
20
-96.928
11
160.667
21
-96.9286
0
LINE
8
BLACK
6
CONTINUOUS
10
80.0165
20
-97.128
11
79.2706
21
-97.2255
0
LINE
8
BLACK
6
CONTINUOUS
10
79.2706
20
-97.2255
11
78.5362
21
-97.4762
0
LINE
8
BLACK
6
CONTINUOUS
10
78.5362
20
-97.4762
11
77.8674
21
-97.8693
0
LINE
8
BLACK
6
CONTINUOUS
10
77.8674
20
-97.8693
11
77.2913
21
-98.3889
0
LINE
8
BLACK
6
CONTINUOUS
10
77.2913
20
-98.3889
11
76.8314
21
-99.0138
0
LINE
8
BLACK
6
CONTINUOUS
10
76.8314
20
-99.0138
11
76.5066
21
-99.7183
0
LINE
8
BLACK
6
CONTINUOUS
10
76.5066
20
-99.7183
11
76.3277
21
-100.484
0
LINE
8
BLACK
6
CONTINUOUS
10
76.3277
20
-100.484
11
76.3248
21
-100.494
0
LINE
8
BLACK
6
CONTINUOUS
10
76.3248
20
-100.494
11
76.3163
21
-100.512
0
LINE
8
BLACK
6
CONTINUOUS
10
76.3163
20
-100.512
11
76.3042
21
-100.528
0
LINE
8
BLACK
6
CONTINUOUS
10
76.3042
20
-100.528
11
76.2904
21
-100.541
0
LINE
8
BLACK
6
CONTINUOUS
10
76.2904
20
-100.541
11
76.2954
21
-100.549
0
LINE
8
BLACK
6
CONTINUOUS
10
76.2954
20
-100.549
11
76.3
21
-100.575
0
LINE
8
BLACK
6
CONTINUOUS
10
76.3
20
-100.575
11
76.3
21
-126.233
0
LINE
8
BLACK
6
CONTINUOUS
10
76.3
20
-126.233
11
76.3431
21
-126.696
0
LINE
8
BLACK
6
CONTINUOUS
10
76.3431
20
-126.696
11
76.5392
21
-127.449
0
LINE
8
BLACK
6
CONTINUOUS
10
76.5392
20
-127.449
11
76.8817
21
-128.145
0
LINE
8
BLACK
6
CONTINUOUS
10
76.8817
20
-128.145
11
77.3572
21
-128.758
0
LINE
8
BLACK
6
CONTINUOUS
10
77.3572
20
-128.758
11
77.9463
21
-129.263
0
LINE
8
BLACK
6
CONTINUOUS
10
77.9463
20
-129.263
11
78.6248
21
-129.639
0
LINE
8
BLACK
6
CONTINUOUS
10
78.6248
20
-129.639
11
79.3652
21
-129.871
0
LINE
8
BLACK
6
CONTINUOUS
10
79.3652
20
-129.871
11
80.1219
21
-129.948
0
LINE
8
BLACK
6
CONTINUOUS
10
80.1219
20
-129.948
11
160.652
21
-129.948
0
LINE
8
BLACK
6
CONTINUOUS
10
160.652
20
-129.948
11
161.117
21
-129.92
0
LINE
8
BLACK
6
CONTINUOUS
10
161.117
20
-129.92
11
161.876
21
-129.748
0
LINE
8
BLACK
6
CONTINUOUS
10
161.876
20
-129.748
11
162.582
21
-129.428
0
LINE
8
BLACK
6
CONTINUOUS
10
162.582
20
-129.428
11
163.21
21
-128.973
0
LINE
8
BLACK
6
CONTINUOUS
10
163.21
20
-128.973
11
163.733
21
-128.401
0
LINE
8
BLACK
6
CONTINUOUS
10
163.733
20
-128.401
11
164.131
21
-127.735
0
LINE
8
BLACK
6
CONTINUOUS
10
164.131
20
-127.735
11
164.386
21
-127.003
0
LINE
8
BLACK
6
CONTINUOUS
10
164.386
20
-127.003
11
164.491
21
-126.225
0
LINE
8
BLACK
6
CONTINUOUS
10
164.491
20
-126.225
11
164.492
21
-126.218
0
LINE
8
BLACK
6
CONTINUOUS
10
164.492
20
-126.218
11
164.492
21
-101.124
0
LINE
8
BLACK
6
CONTINUOUS
10
164.492
20
-101.124
11
164.489
21
-101.114
0
LINE
8
BLACK
6
CONTINUOUS
10
164.489
20
-101.114
11
164.488
21
-101.094
0
LINE
8
BLACK
6
CONTINUOUS
10
164.488
20
-101.094
11
164.496
21
-100.91
0
LINE
8
BLACK
6
CONTINUOUS
10
164.496
20
-100.91
11
164.432
21
-100.158
0
LINE
8
BLACK
6
CONTINUOUS
10
164.432
20
-100.158
11
164.219
21
-99.4368
0
LINE
8
BLACK
6
CONTINUOUS
10
164.219
20
-99.4368
11
163.866
21
-98.7736
0
LINE
8
BLACK
6
CONTINUOUS
10
163.866
20
-98.7736
11
163.386
21
-98.195
0
LINE
8
BLACK
6
CONTINUOUS
10
163.386
20
-98.195
11
162.8
21
-97.7247
0
LINE
8
BLACK
6
CONTINUOUS
10
162.8
20
-97.7247
11
162.132
21
-97.3817
0
LINE
8
BLACK
6
CONTINUOUS
10
162.132
20
-97.3817
11
161.408
21
-97.1803
0
LINE
8
BLACK
6
CONTINUOUS
10
161.408
20
-97.1803
11
160.652
21
-97.128
0
LINE
8
BLACK
6
CONTINUOUS
10
160.652
20
-97.128
11
80.0165
21
-97.128
0
LINE
8
BLACK
6
CONTINUOUS
10
89.4024
20
-127.244
11
89.013
21
-127.696
0
LINE
8
BLACK
6
CONTINUOUS
10
89.013
20
-127.696
11
88.5124
21
-128.021
0
LINE
8
BLACK
6
CONTINUOUS
10
88.5124
20
-128.021
11
87.941
21
-128.192
0
LINE
8
BLACK
6
CONTINUOUS
10
87.941
20
-128.192
11
87.3445
21
-128.195
0
LINE
8
BLACK
6
CONTINUOUS
10
87.3445
20
-128.195
11
86.771
21
-128.031
0
LINE
8
BLACK
6
CONTINUOUS
10
86.771
20
-128.031
11
86.2665
21
-127.713
0
LINE
8
BLACK
6
CONTINUOUS
10
86.2665
20
-127.713
11
85.8716
21
-127.266
0
LINE
8
BLACK
6
CONTINUOUS
10
85.8716
20
-127.266
11
85.6181
21
-126.726
0
LINE
8
BLACK
6
CONTINUOUS
10
85.6181
20
-126.726
11
85.5264
21
-126.137
0
LINE
8
BLACK
6
CONTINUOUS
10
85.5264
20
-126.137
11
85.6037
21
-125.545
0
LINE
8
BLACK
6
CONTINUOUS
10
85.6037
20
-125.545
11
85.8439
21
-124.999
0
LINE
8
BLACK
6
CONTINUOUS
10
85.8439
20
-124.999
11
86.2277
21
-124.543
0
LINE
8
BLACK
6
CONTINUOUS
10
86.2277
20
-124.543
11
86.7243
21
-124.212
0
LINE
8
BLACK
6
CONTINUOUS
10
86.7243
20
-124.212
11
87.2936
21
-124.034
0
LINE
8
BLACK
6
CONTINUOUS
10
87.2936
20
-124.034
11
87.89
21
-124.023
0
LINE
8
BLACK
6
CONTINUOUS
10
87.89
20
-124.023
11
88.4655
21
-124.18
0
LINE
8
BLACK
6
CONTINUOUS
10
88.4655
20
-124.18
11
88.9738
21
-124.492
0
LINE
8
BLACK
6
CONTINUOUS
10
88.9738
20
-124.492
11
89.3741
21
-124.935
0
LINE
8
BLACK
6
CONTINUOUS
10
89.3741
20
-124.935
11
89.6342
21
-125.471
0
LINE
8
BLACK
6
CONTINUOUS
10
89.6342
20
-125.471
11
89.7332
21
-126.06
0
LINE
8
BLACK
6
CONTINUOUS
10
89.7332
20
-126.06
11
89.7338
21
-126.111
0
LINE
8
BLACK
6
CONTINUOUS
10
89.7338
20
-126.111
11
89.6492
21
-126.701
0
LINE
8
BLACK
6
CONTINUOUS
10
89.6492
20
-126.701
11
89.4024
21
-127.244
0
LINE
8
BLACK
6
CONTINUOUS
10
89.217
20
-125.096
11
88.8684
21
-124.691
0
LINE
8
BLACK
6
CONTINUOUS
10
88.8684
20
-124.691
11
88.4202
21
-124.401
0
LINE
8
BLACK
6
CONTINUOUS
10
88.4202
20
-124.401
11
87.9084
21
-124.248
0
LINE
8
BLACK
6
CONTINUOUS
10
87.9084
20
-124.248
11
87.3743
21
-124.245
0
LINE
8
BLACK
6
CONTINUOUS
10
87.3743
20
-124.245
11
86.8608
21
-124.391
0
LINE
8
BLACK
6
CONTINUOUS
10
86.8608
20
-124.391
11
86.4091
21
-124.676
0
LINE
8
BLACK
6
CONTINUOUS
10
86.4091
20
-124.676
11
86.0555
21
-125.077
0
LINE
8
BLACK
6
CONTINUOUS
10
86.0555
20
-125.077
11
85.8285
21
-125.56
0
LINE
8
BLACK
6
CONTINUOUS
10
85.8285
20
-125.56
11
85.7463
21
-126.088
0
LINE
8
BLACK
6
CONTINUOUS
10
85.7463
20
-126.088
11
85.8156
21
-126.618
0
LINE
8
BLACK
6
CONTINUOUS
10
85.8156
20
-126.618
11
86.0307
21
-127.106
0
LINE
8
BLACK
6
CONTINUOUS
10
86.0307
20
-127.106
11
86.3744
21
-127.515
0
LINE
8
BLACK
6
CONTINUOUS
10
86.3744
20
-127.515
11
86.819
21
-127.811
0
LINE
8
BLACK
6
CONTINUOUS
10
86.819
20
-127.811
11
87.3288
21
-127.971
0
LINE
8
BLACK
6
CONTINUOUS
10
87.3288
20
-127.971
11
87.8628
21
-127.98
0
LINE
8
BLACK
6
CONTINUOUS
10
87.8628
20
-127.98
11
88.3781
21
-127.84
0
LINE
8
BLACK
6
CONTINUOUS
10
88.3781
20
-127.84
11
88.8333
21
-127.56
0
LINE
8
BLACK
6
CONTINUOUS
10
88.8333
20
-127.56
11
89.1917
21
-127.164
0
LINE
8
BLACK
6
CONTINUOUS
10
89.1917
20
-127.164
11
89.4246
21
-126.684
0
LINE
8
BLACK
6
CONTINUOUS
10
89.4246
20
-126.684
11
89.5132
21
-126.157
0
LINE
8
BLACK
6
CONTINUOUS
10
89.5132
20
-126.157
11
89.5138
21
-126.111
0
LINE
8
BLACK
6
CONTINUOUS
10
89.5138
20
-126.111
11
89.4381
21
-125.582
0
LINE
8
BLACK
6
CONTINUOUS
10
89.4381
20
-125.582
11
89.217
21
-125.096
0
LINE
8
BLACK
6
CONTINUOUS
10
114.83
20
-126.635
11
114.831
21
-126.635
0
LINE
8
BLACK
6
CONTINUOUS
10
114.831
20
-126.635
11
114.847
21
-126.638
0
LINE
8
BLACK
6
CONTINUOUS
10
114.847
20
-126.638
11
114.864
21
-126.641
0
LINE
8
BLACK
6
CONTINUOUS
10
114.864
20
-126.641
11
114.864
21
-126.641
0
LINE
8
BLACK
6
CONTINUOUS
10
114.864
20
-126.641
11
114.865
21
-126.642
0
LINE
8
BLACK
6
CONTINUOUS
10
114.865
20
-126.642
11
115.055
21
-126.713
0
LINE
8
BLACK
6
CONTINUOUS
10
115.055
20
-126.713
11
115.067
21
-126.72
0
LINE
8
BLACK
6
CONTINUOUS
10
115.067
20
-126.72
11
115.08
21
-126.727
0
LINE
8
BLACK
6
CONTINUOUS
10
115.08
20
-126.727
11
115.175
21
-126.798
0
LINE
8
BLACK
6
CONTINUOUS
10
115.175
20
-126.798
11
115.187
21
-126.81
0
LINE
8
BLACK
6
CONTINUOUS
10
115.187
20
-126.81
11
115.199
21
-126.823
0
LINE
8
BLACK
6
CONTINUOUS
10
115.199
20
-126.823
11
115.294
21
-126.965
0
LINE
8
BLACK
6
CONTINUOUS
10
115.294
20
-126.965
11
115.299
21
-126.976
0
LINE
8
BLACK
6
CONTINUOUS
10
115.299
20
-126.976
11
115.305
21
-126.987
0
LINE
8
BLACK
6
CONTINUOUS
10
115.305
20
-126.987
11
115.305
21
-126.992
0
LINE
8
BLACK
6
CONTINUOUS
10
115.305
20
-126.992
11
115.308
21
-126.997
0
LINE
8
BLACK
6
CONTINUOUS
10
115.308
20
-126.997
11
115.308
21
-127.009
0
LINE
8
BLACK
6
CONTINUOUS
10
115.308
20
-127.009
11
115.311
21
-127.021
0
LINE
8
BLACK
6
CONTINUOUS
10
115.311
20
-127.021
11
115.311
21
-127.449
0
LINE
8
BLACK
6
CONTINUOUS
10
115.311
20
-127.449
11
115.308
21
-127.461
0
LINE
8
BLACK
6
CONTINUOUS
10
115.308
20
-127.461
11
115.308
21
-127.473
0
LINE
8
BLACK
6
CONTINUOUS
10
115.308
20
-127.473
11
115.305
21
-127.478
0
LINE
8
BLACK
6
CONTINUOUS
10
115.305
20
-127.478
11
115.305
21
-127.484
0
LINE
8
BLACK
6
CONTINUOUS
10
115.305
20
-127.484
11
115.299
21
-127.494
0
LINE
8
BLACK
6
CONTINUOUS
10
115.299
20
-127.494
11
115.294
21
-127.505
0
LINE
8
BLACK
6
CONTINUOUS
10
115.294
20
-127.505
11
115.199
21
-127.648
0
LINE
8
BLACK
6
CONTINUOUS
10
115.199
20
-127.648
11
115.187
21
-127.66
0
LINE
8
BLACK
6
CONTINUOUS
10
115.187
20
-127.66
11
115.175
21
-127.672
0
LINE
8
BLACK
6
CONTINUOUS
10
115.175
20
-127.672
11
115.08
21
-127.744
0
LINE
8
BLACK
6
CONTINUOUS
10
115.08
20
-127.744
11
115.067
21
-127.75
0
LINE
8
BLACK
6
CONTINUOUS
10
115.067
20
-127.75
11
115.055
21
-127.757
0
LINE
8
BLACK
6
CONTINUOUS
10
115.055
20
-127.757
11
114.865
21
-127.829
0
LINE
8
BLACK
6
CONTINUOUS
10
114.865
20
-127.829
11
114.864
21
-127.829
0
LINE
8
BLACK
6
CONTINUOUS
10
114.864
20
-127.829
11
114.864
21
-127.829
0
LINE
8
BLACK
6
CONTINUOUS
10
114.864
20
-127.829
11
114.847
21
-127.832
0
LINE
8
BLACK
6
CONTINUOUS
10
114.847
20
-127.832
11
114.831
21
-127.835
0
LINE
8
BLACK
6
CONTINUOUS
10
114.831
20
-127.835
11
114.83
21
-127.835
0
LINE
8
BLACK
6
CONTINUOUS
10
114.83
20
-127.835
11
114.83
21
-127.835
0
LINE
8
BLACK
6
CONTINUOUS
10
114.83
20
-127.835
11
114.544
21
-127.835
0
LINE
8
BLACK
6
CONTINUOUS
10
114.544
20
-127.835
11
114.543
21
-127.835
0
LINE
8
BLACK
6
CONTINUOUS
10
114.543
20
-127.835
11
114.543
21
-127.835
0
LINE
8
BLACK
6
CONTINUOUS
10
114.543
20
-127.835
11
114.526
21
-127.832
0
LINE
8
BLACK
6
CONTINUOUS
10
114.526
20
-127.832
11
114.51
21
-127.829
0
LINE
8
BLACK
6
CONTINUOUS
10
114.51
20
-127.829
11
114.509
21
-127.829
0
LINE
8
BLACK
6
CONTINUOUS
10
114.509
20
-127.829
11
114.509
21
-127.829
0
LINE
8
BLACK
6
CONTINUOUS
10
114.509
20
-127.829
11
114.318
21
-127.757
0
LINE
8
BLACK
6
CONTINUOUS
10
114.318
20
-127.757
11
114.306
21
-127.75
0
LINE
8
BLACK
6
CONTINUOUS
10
114.306
20
-127.75
11
114.293
21
-127.744
0
LINE
8
BLACK
6
CONTINUOUS
10
114.293
20
-127.744
11
114.198
21
-127.672
0
LINE
8
BLACK
6
CONTINUOUS
10
114.198
20
-127.672
11
114.187
21
-127.66
0
LINE
8
BLACK
6
CONTINUOUS
10
114.187
20
-127.66
11
114.175
21
-127.648
0
LINE
8
BLACK
6
CONTINUOUS
10
114.175
20
-127.648
11
114.08
21
-127.505
0
LINE
8
BLACK
6
CONTINUOUS
10
114.08
20
-127.505
11
114.075
21
-127.494
0
LINE
8
BLACK
6
CONTINUOUS
10
114.075
20
-127.494
11
114.069
21
-127.484
0
LINE
8
BLACK
6
CONTINUOUS
10
114.069
20
-127.484
11
114.068
21
-127.478
0
LINE
8
BLACK
6
CONTINUOUS
10
114.068
20
-127.478
11
114.066
21
-127.473
0
LINE
8
BLACK
6
CONTINUOUS
10
114.066
20
-127.473
11
114.065
21
-127.461
0
LINE
8
BLACK
6
CONTINUOUS
10
114.065
20
-127.461
11
114.063
21
-127.449
0
LINE
8
BLACK
6
CONTINUOUS
10
114.063
20
-127.449
11
114.063
21
-127.021
0
LINE
8
BLACK
6
CONTINUOUS
10
114.063
20
-127.021
11
114.065
21
-127.009
0
LINE
8
BLACK
6
CONTINUOUS
10
114.065
20
-127.009
11
114.066
21
-126.997
0
LINE
8
BLACK
6
CONTINUOUS
10
114.066
20
-126.997
11
114.068
21
-126.992
0
LINE
8
BLACK
6
CONTINUOUS
10
114.068
20
-126.992
11
114.069
21
-126.987
0
LINE
8
BLACK
6
CONTINUOUS
10
114.069
20
-126.987
11
114.075
21
-126.976
0
LINE
8
BLACK
6
CONTINUOUS
10
114.075
20
-126.976
11
114.08
21
-126.965
0
LINE
8
BLACK
6
CONTINUOUS
10
114.08
20
-126.965
11
114.175
21
-126.823
0
LINE
8
BLACK
6
CONTINUOUS
10
114.175
20
-126.823
11
114.187
21
-126.81
0
LINE
8
BLACK
6
CONTINUOUS
10
114.187
20
-126.81
11
114.198
21
-126.798
0
LINE
8
BLACK
6
CONTINUOUS
10
114.198
20
-126.798
11
114.293
21
-126.727
0
LINE
8
BLACK
6
CONTINUOUS
10
114.293
20
-126.727
11
114.306
21
-126.72
0
LINE
8
BLACK
6
CONTINUOUS
10
114.306
20
-126.72
11
114.318
21
-126.713
0
LINE
8
BLACK
6
CONTINUOUS
10
114.318
20
-126.713
11
114.509
21
-126.642
0
LINE
8
BLACK
6
CONTINUOUS
10
114.509
20
-126.642
11
114.509
21
-126.641
0
LINE
8
BLACK
6
CONTINUOUS
10
114.509
20
-126.641
11
114.51
21
-126.641
0
LINE
8
BLACK
6
CONTINUOUS
10
114.51
20
-126.641
11
114.526
21
-126.638
0
LINE
8
BLACK
6
CONTINUOUS
10
114.526
20
-126.638
11
114.543
21
-126.635
0
LINE
8
BLACK
6
CONTINUOUS
10
114.543
20
-126.635
11
114.543
21
-126.635
0
LINE
8
BLACK
6
CONTINUOUS
10
114.543
20
-126.635
11
114.544
21
-126.635
0
LINE
8
BLACK
6
CONTINUOUS
10
114.544
20
-126.635
11
114.83
21
-126.635
0
LINE
8
BLACK
6
CONTINUOUS
10
114.83
20
-126.635
11
114.83
21
-126.635
0
LINE
8
BLACK
6
CONTINUOUS
10
114.562
20
-126.835
11
114.402
21
-126.895
0
LINE
8
BLACK
6
CONTINUOUS
10
114.402
20
-126.895
11
114.332
21
-126.948
0
LINE
8
BLACK
6
CONTINUOUS
10
114.332
20
-126.948
11
114.263
21
-127.051
0
LINE
8
BLACK
6
CONTINUOUS
10
114.263
20
-127.051
11
114.263
21
-127.419
0
LINE
8
BLACK
6
CONTINUOUS
10
114.263
20
-127.419
11
114.332
21
-127.523
0
LINE
8
BLACK
6
CONTINUOUS
10
114.332
20
-127.523
11
114.402
21
-127.575
0
LINE
8
BLACK
6
CONTINUOUS
10
114.402
20
-127.575
11
114.562
21
-127.635
0
LINE
8
BLACK
6
CONTINUOUS
10
114.562
20
-127.635
11
114.811
21
-127.635
0
LINE
8
BLACK
6
CONTINUOUS
10
114.811
20
-127.635
11
114.972
21
-127.575
0
LINE
8
BLACK
6
CONTINUOUS
10
114.972
20
-127.575
11
115.042
21
-127.523
0
LINE
8
BLACK
6
CONTINUOUS
10
115.042
20
-127.523
11
115.111
21
-127.419
0
LINE
8
BLACK
6
CONTINUOUS
10
115.111
20
-127.419
11
115.111
21
-127.051
0
LINE
8
BLACK
6
CONTINUOUS
10
115.111
20
-127.051
11
115.042
21
-126.948
0
LINE
8
BLACK
6
CONTINUOUS
10
115.042
20
-126.948
11
114.972
21
-126.895
0
LINE
8
BLACK
6
CONTINUOUS
10
114.972
20
-126.895
11
114.811
21
-126.835
0
LINE
8
BLACK
6
CONTINUOUS
10
114.811
20
-126.835
11
114.562
21
-126.835
0
LINE
8
BLACK
6
CONTINUOUS
10
111.021
20
-126.635
11
111.021
21
-126.635
0
LINE
8
BLACK
6
CONTINUOUS
10
111.021
20
-126.635
11
111.038
21
-126.638
0
LINE
8
BLACK
6
CONTINUOUS
10
111.038
20
-126.638
11
111.054
21
-126.641
0
LINE
8
BLACK
6
CONTINUOUS
10
111.054
20
-126.641
11
111.055
21
-126.641
0
LINE
8
BLACK
6
CONTINUOUS
10
111.055
20
-126.641
11
111.055
21
-126.642
0
LINE
8
BLACK
6
CONTINUOUS
10
111.055
20
-126.642
11
111.246
21
-126.713
0
LINE
8
BLACK
6
CONTINUOUS
10
111.246
20
-126.713
11
111.258
21
-126.72
0
LINE
8
BLACK
6
CONTINUOUS
10
111.258
20
-126.72
11
111.271
21
-126.727
0
LINE
8
BLACK
6
CONTINUOUS
10
111.271
20
-126.727
11
111.366
21
-126.798
0
LINE
8
BLACK
6
CONTINUOUS
10
111.366
20
-126.798
11
111.377
21
-126.81
0
LINE
8
BLACK
6
CONTINUOUS
10
111.377
20
-126.81
11
111.389
21
-126.823
0
LINE
8
BLACK
6
CONTINUOUS
10
111.389
20
-126.823
11
111.484
21
-126.965
0
LINE
8
BLACK
6
CONTINUOUS
10
111.484
20
-126.965
11
111.489
21
-126.976
0
LINE
8
BLACK
6
CONTINUOUS
10
111.489
20
-126.976
11
111.495
21
-126.987
0
LINE
8
BLACK
6
CONTINUOUS
10
111.495
20
-126.987
11
111.496
21
-126.992
0
LINE
8
BLACK
6
CONTINUOUS
10
111.496
20
-126.992
11
111.498
21
-126.997
0
LINE
8
BLACK
6
CONTINUOUS
10
111.498
20
-126.997
11
111.499
21
-127.009
0
LINE
8
BLACK
6
CONTINUOUS
10
111.499
20
-127.009
11
111.501
21
-127.021
0
LINE
8
BLACK
6
CONTINUOUS
10
111.501
20
-127.021
11
111.501
21
-127.449
0
LINE
8
BLACK
6
CONTINUOUS
10
111.501
20
-127.449
11
111.499
21
-127.461
0
LINE
8
BLACK
6
CONTINUOUS
10
111.499
20
-127.461
11
111.498
21
-127.473
0
LINE
8
BLACK
6
CONTINUOUS
10
111.498
20
-127.473
11
111.496
21
-127.478
0
LINE
8
BLACK
6
CONTINUOUS
10
111.496
20
-127.478
11
111.495
21
-127.484
0
LINE
8
BLACK
6
CONTINUOUS
10
111.495
20
-127.484
11
111.489
21
-127.494
0
LINE
8
BLACK
6
CONTINUOUS
10
111.489
20
-127.494
11
111.484
21
-127.505
0
LINE
8
BLACK
6
CONTINUOUS
10
111.484
20
-127.505
11
111.389
21
-127.648
0
LINE
8
BLACK
6
CONTINUOUS
10
111.389
20
-127.648
11
111.377
21
-127.66
0
LINE
8
BLACK
6
CONTINUOUS
10
111.377
20
-127.66
11
111.366
21
-127.672
0
LINE
8
BLACK
6
CONTINUOUS
10
111.366
20
-127.672
11
111.271
21
-127.744
0
LINE
8
BLACK
6
CONTINUOUS
10
111.271
20
-127.744
11
111.258
21
-127.75
0
LINE
8
BLACK
6
CONTINUOUS
10
111.258
20
-127.75
11
111.246
21
-127.757
0
LINE
8
BLACK
6
CONTINUOUS
10
111.246
20
-127.757
11
111.055
21
-127.829
0
LINE
8
BLACK
6
CONTINUOUS
10
111.055
20
-127.829
11
111.055
21
-127.829
0
LINE
8
BLACK
6
CONTINUOUS
10
111.055
20
-127.829
11
111.054
21
-127.829
0
LINE
8
BLACK
6
CONTINUOUS
10
111.054
20
-127.829
11
111.038
21
-127.832
0
LINE
8
BLACK
6
CONTINUOUS
10
111.038
20
-127.832
11
111.021
21
-127.835
0
LINE
8
BLACK
6
CONTINUOUS
10
111.021
20
-127.835
11
111.021
21
-127.835
0
LINE
8
BLACK
6
CONTINUOUS
10
111.021
20
-127.835
11
111.02
21
-127.835
0
LINE
8
BLACK
6
CONTINUOUS
10
111.02
20
-127.835
11
110.734
21
-127.835
0
LINE
8
BLACK
6
CONTINUOUS
10
110.734
20
-127.835
11
110.734
21
-127.835
0
LINE
8
BLACK
6
CONTINUOUS
10
110.734
20
-127.835
11
110.733
21
-127.835
0
LINE
8
BLACK
6
CONTINUOUS
10
110.733
20
-127.835
11
110.717
21
-127.832
0
LINE
8
BLACK
6
CONTINUOUS
10
110.717
20
-127.832
11
110.7
21
-127.829
0
LINE
8
BLACK
6
CONTINUOUS
10
110.7
20
-127.829
11
110.7
21
-127.829
0
LINE
8
BLACK
6
CONTINUOUS
10
110.7
20
-127.829
11
110.699
21
-127.829
0
LINE
8
BLACK
6
CONTINUOUS
10
110.699
20
-127.829
11
110.509
21
-127.757
0
LINE
8
BLACK
6
CONTINUOUS
10
110.509
20
-127.757
11
110.497
21
-127.75
0
LINE
8
BLACK
6
CONTINUOUS
10
110.497
20
-127.75
11
110.484
21
-127.744
0
LINE
8
BLACK
6
CONTINUOUS
10
110.484
20
-127.744
11
110.389
21
-127.672
0
LINE
8
BLACK
6
CONTINUOUS
10
110.389
20
-127.672
11
110.377
21
-127.66
0
LINE
8
BLACK
6
CONTINUOUS
10
110.377
20
-127.66
11
110.365
21
-127.648
0
LINE
8
BLACK
6
CONTINUOUS
10
110.365
20
-127.648
11
110.27
21
-127.505
0
LINE
8
BLACK
6
CONTINUOUS
10
110.27
20
-127.505
11
110.265
21
-127.494
0
LINE
8
BLACK
6
CONTINUOUS
10
110.265
20
-127.494
11
110.259
21
-127.484
0
LINE
8
BLACK
6
CONTINUOUS
10
110.259
20
-127.484
11
110.258
21
-127.478
0
LINE
8
BLACK
6
CONTINUOUS
10
110.258
20
-127.478
11
110.256
21
-127.473
0
LINE
8
BLACK
6
CONTINUOUS
10
110.256
20
-127.473
11
110.255
21
-127.461
0
LINE
8
BLACK
6
CONTINUOUS
10
110.255
20
-127.461
11
110.253
21
-127.449
0
LINE
8
BLACK
6
CONTINUOUS
10
110.253
20
-127.449
11
110.253
21
-127.021
0
LINE
8
BLACK
6
CONTINUOUS
10
110.253
20
-127.021
11
110.255
21
-127.009
0
LINE
8
BLACK
6
CONTINUOUS
10
110.255
20
-127.009
11
110.256
21
-126.997
0
LINE
8
BLACK
6
CONTINUOUS
10
110.256
20
-126.997
11
110.258
21
-126.992
0
LINE
8
BLACK
6
CONTINUOUS
10
110.258
20
-126.992
11
110.259
21
-126.987
0
LINE
8
BLACK
6
CONTINUOUS
10
110.259
20
-126.987
11
110.265
21
-126.976
0
LINE
8
BLACK
6
CONTINUOUS
10
110.265
20
-126.976
11
110.27
21
-126.965
0
LINE
8
BLACK
6
CONTINUOUS
10
110.27
20
-126.965
11
110.365
21
-126.823
0
LINE
8
BLACK
6
CONTINUOUS
10
110.365
20
-126.823
11
110.377
21
-126.81
0
LINE
8
BLACK
6
CONTINUOUS
10
110.377
20
-126.81
11
110.389
21
-126.798
0
LINE
8
BLACK
6
CONTINUOUS
10
110.389
20
-126.798
11
110.484
21
-126.727
0
LINE
8
BLACK
6
CONTINUOUS
10
110.484
20
-126.727
11
110.497
21
-126.72
0
LINE
8
BLACK
6
CONTINUOUS
10
110.497
20
-126.72
11
110.509
21
-126.713
0
LINE
8
BLACK
6
CONTINUOUS
10
110.509
20
-126.713
11
110.699
21
-126.642
0
LINE
8
BLACK
6
CONTINUOUS
10
110.699
20
-126.642
11
110.7
21
-126.641
0
LINE
8
BLACK
6
CONTINUOUS
10
110.7
20
-126.641
11
110.7
21
-126.641
0
LINE
8
BLACK
6
CONTINUOUS
10
110.7
20
-126.641
11
110.717
21
-126.638
0
LINE
8
BLACK
6
CONTINUOUS
10
110.717
20
-126.638
11
110.733
21
-126.635
0
LINE
8
BLACK
6
CONTINUOUS
10
110.733
20
-126.635
11
110.734
21
-126.635
0
LINE
8
BLACK
6
CONTINUOUS
10
110.734
20
-126.635
11
110.734
21
-126.635
0
LINE
8
BLACK
6
CONTINUOUS
10
110.734
20
-126.635
11
111.02
21
-126.635
0
LINE
8
BLACK
6
CONTINUOUS
10
111.02
20
-126.635
11
111.021
21
-126.635
0
LINE
8
BLACK
6
CONTINUOUS
10
110.752
20
-126.835
11
110.592
21
-126.895
0
LINE
8
BLACK
6
CONTINUOUS
10
110.592
20
-126.895
11
110.522
21
-126.948
0
LINE
8
BLACK
6
CONTINUOUS
10
110.522
20
-126.948
11
110.453
21
-127.051
0
LINE
8
BLACK
6
CONTINUOUS
10
110.453
20
-127.051
11
110.453
21
-127.419
0
LINE
8
BLACK
6
CONTINUOUS
10
110.453
20
-127.419
11
110.522
21
-127.523
0
LINE
8
BLACK
6
CONTINUOUS
10
110.522
20
-127.523
11
110.592
21
-127.575
0
LINE
8
BLACK
6
CONTINUOUS
10
110.592
20
-127.575
11
110.752
21
-127.635
0
LINE
8
BLACK
6
CONTINUOUS
10
110.752
20
-127.635
11
111.002
21
-127.635
0
LINE
8
BLACK
6
CONTINUOUS
10
111.002
20
-127.635
11
111.162
21
-127.575
0
LINE
8
BLACK
6
CONTINUOUS
10
111.162
20
-127.575
11
111.232
21
-127.523
0
LINE
8
BLACK
6
CONTINUOUS
10
111.232
20
-127.523
11
111.301
21
-127.419
0
LINE
8
BLACK
6
CONTINUOUS
10
111.301
20
-127.419
11
111.301
21
-127.051
0
LINE
8
BLACK
6
CONTINUOUS
10
111.301
20
-127.051
11
111.232
21
-126.948
0
LINE
8
BLACK
6
CONTINUOUS
10
111.232
20
-126.948
11
111.162
21
-126.895
0
LINE
8
BLACK
6
CONTINUOUS
10
111.162
20
-126.895
11
111.002
21
-126.835
0
LINE
8
BLACK
6
CONTINUOUS
10
111.002
20
-126.835
11
110.752
21
-126.835
0
LINE
8
BLACK
6
CONTINUOUS
10
108.163
20
-126.635
11
108.164
21
-126.635
0
LINE
8
BLACK
6
CONTINUOUS
10
108.164
20
-126.635
11
108.181
21
-126.638
0
LINE
8
BLACK
6
CONTINUOUS
10
108.181
20
-126.638
11
108.197
21
-126.641
0
LINE
8
BLACK
6
CONTINUOUS
10
108.197
20
-126.641
11
108.198
21
-126.641
0
LINE
8
BLACK
6
CONTINUOUS
10
108.198
20
-126.641
11
108.198
21
-126.642
0
LINE
8
BLACK
6
CONTINUOUS
10
108.198
20
-126.642
11
108.389
21
-126.713
0
LINE
8
BLACK
6
CONTINUOUS
10
108.389
20
-126.713
11
108.418
21
-126.731
0
LINE
8
BLACK
6
CONTINUOUS
10
108.418
20
-126.731
11
108.44
21
-126.757
0
LINE
8
BLACK
6
CONTINUOUS
10
108.44
20
-126.757
11
108.452
21
-126.79
0
LINE
8
BLACK
6
CONTINUOUS
10
108.452
20
-126.79
11
108.452
21
-126.825
0
LINE
8
BLACK
6
CONTINUOUS
10
108.452
20
-126.825
11
108.44
21
-126.857
0
LINE
8
BLACK
6
CONTINUOUS
10
108.44
20
-126.857
11
108.417
21
-126.884
0
LINE
8
BLACK
6
CONTINUOUS
10
108.417
20
-126.884
11
108.387
21
-126.901
0
LINE
8
BLACK
6
CONTINUOUS
10
108.387
20
-126.901
11
108.352
21
-126.907
0
LINE
8
BLACK
6
CONTINUOUS
10
108.352
20
-126.907
11
108.318
21
-126.9
0
LINE
8
BLACK
6
CONTINUOUS
10
108.318
20
-126.9
11
108.145
21
-126.835
0
LINE
8
BLACK
6
CONTINUOUS
10
108.145
20
-126.835
11
107.8
21
-126.835
0
LINE
8
BLACK
6
CONTINUOUS
10
107.8
20
-126.835
11
107.64
21
-126.895
0
LINE
8
BLACK
6
CONTINUOUS
10
107.64
20
-126.895
11
107.57
21
-126.948
0
LINE
8
BLACK
6
CONTINUOUS
10
107.57
20
-126.948
11
107.501
21
-127.051
0
LINE
8
BLACK
6
CONTINUOUS
10
107.501
20
-127.051
11
107.501
21
-127.419
0
LINE
8
BLACK
6
CONTINUOUS
10
107.501
20
-127.419
11
107.57
21
-127.523
0
LINE
8
BLACK
6
CONTINUOUS
10
107.57
20
-127.523
11
107.64
21
-127.575
0
LINE
8
BLACK
6
CONTINUOUS
10
107.64
20
-127.575
11
107.8
21
-127.635
0
LINE
8
BLACK
6
CONTINUOUS
10
107.8
20
-127.635
11
108.145
21
-127.635
0
LINE
8
BLACK
6
CONTINUOUS
10
108.145
20
-127.635
11
108.318
21
-127.57
0
LINE
8
BLACK
6
CONTINUOUS
10
108.318
20
-127.57
11
108.352
21
-127.564
0
LINE
8
BLACK
6
CONTINUOUS
10
108.352
20
-127.564
11
108.387
21
-127.569
0
LINE
8
BLACK
6
CONTINUOUS
10
108.387
20
-127.569
11
108.417
21
-127.587
0
LINE
8
BLACK
6
CONTINUOUS
10
108.417
20
-127.587
11
108.44
21
-127.613
0
LINE
8
BLACK
6
CONTINUOUS
10
108.44
20
-127.613
11
108.452
21
-127.645
0
LINE
8
BLACK
6
CONTINUOUS
10
108.452
20
-127.645
11
108.452
21
-127.68
0
LINE
8
BLACK
6
CONTINUOUS
10
108.452
20
-127.68
11
108.44
21
-127.713
0
LINE
8
BLACK
6
CONTINUOUS
10
108.44
20
-127.713
11
108.418
21
-127.74
0
LINE
8
BLACK
6
CONTINUOUS
10
108.418
20
-127.74
11
108.389
21
-127.757
0
LINE
8
BLACK
6
CONTINUOUS
10
108.389
20
-127.757
11
108.198
21
-127.829
0
LINE
8
BLACK
6
CONTINUOUS
10
108.198
20
-127.829
11
108.198
21
-127.829
0
LINE
8
BLACK
6
CONTINUOUS
10
108.198
20
-127.829
11
108.197
21
-127.829
0
LINE
8
BLACK
6
CONTINUOUS
10
108.197
20
-127.829
11
108.181
21
-127.832
0
LINE
8
BLACK
6
CONTINUOUS
10
108.181
20
-127.832
11
108.164
21
-127.835
0
LINE
8
BLACK
6
CONTINUOUS
10
108.164
20
-127.835
11
108.163
21
-127.835
0
LINE
8
BLACK
6
CONTINUOUS
10
108.163
20
-127.835
11
108.163
21
-127.835
0
LINE
8
BLACK
6
CONTINUOUS
10
108.163
20
-127.835
11
107.782
21
-127.835
0
LINE
8
BLACK
6
CONTINUOUS
10
107.782
20
-127.835
11
107.781
21
-127.835
0
LINE
8
BLACK
6
CONTINUOUS
10
107.781
20
-127.835
11
107.781
21
-127.835
0
LINE
8
BLACK
6
CONTINUOUS
10
107.781
20
-127.835
11
107.764
21
-127.832
0
LINE
8
BLACK
6
CONTINUOUS
10
107.764
20
-127.832
11
107.748
21
-127.829
0
LINE
8
BLACK
6
CONTINUOUS
10
107.748
20
-127.829
11
107.747
21
-127.829
0
LINE
8
BLACK
6
CONTINUOUS
10
107.747
20
-127.829
11
107.747
21
-127.829
0
LINE
8
BLACK
6
CONTINUOUS
10
107.747
20
-127.829
11
107.556
21
-127.757
0
LINE
8
BLACK
6
CONTINUOUS
10
107.556
20
-127.757
11
107.544
21
-127.75
0
LINE
8
BLACK
6
CONTINUOUS
10
107.544
20
-127.75
11
107.532
21
-127.744
0
LINE
8
BLACK
6
CONTINUOUS
10
107.532
20
-127.744
11
107.436
21
-127.672
0
LINE
8
BLACK
6
CONTINUOUS
10
107.436
20
-127.672
11
107.425
21
-127.66
0
LINE
8
BLACK
6
CONTINUOUS
10
107.425
20
-127.66
11
107.413
21
-127.648
0
LINE
8
BLACK
6
CONTINUOUS
10
107.413
20
-127.648
11
107.318
21
-127.505
0
LINE
8
BLACK
6
CONTINUOUS
10
107.318
20
-127.505
11
107.313
21
-127.494
0
LINE
8
BLACK
6
CONTINUOUS
10
107.313
20
-127.494
11
107.307
21
-127.484
0
LINE
8
BLACK
6
CONTINUOUS
10
107.307
20
-127.484
11
107.306
21
-127.478
0
LINE
8
BLACK
6
CONTINUOUS
10
107.306
20
-127.478
11
107.304
21
-127.473
0
LINE
8
BLACK
6
CONTINUOUS
10
107.304
20
-127.473
11
107.303
21
-127.461
0
LINE
8
BLACK
6
CONTINUOUS
10
107.303
20
-127.461
11
107.301
21
-127.449
0
LINE
8
BLACK
6
CONTINUOUS
10
107.301
20
-127.449
11
107.301
21
-127.021
0
LINE
8
BLACK
6
CONTINUOUS
10
107.301
20
-127.021
11
107.303
21
-127.009
0
LINE
8
BLACK
6
CONTINUOUS
10
107.303
20
-127.009
11
107.304
21
-126.997
0
LINE
8
BLACK
6
CONTINUOUS
10
107.304
20
-126.997
11
107.306
21
-126.992
0
LINE
8
BLACK
6
CONTINUOUS
10
107.306
20
-126.992
11
107.307
21
-126.987
0
LINE
8
BLACK
6
CONTINUOUS
10
107.307
20
-126.987
11
107.313
21
-126.976
0
LINE
8
BLACK
6
CONTINUOUS
10
107.313
20
-126.976
11
107.318
21
-126.965
0
LINE
8
BLACK
6
CONTINUOUS
10
107.318
20
-126.965
11
107.413
21
-126.823
0
LINE
8
BLACK
6
CONTINUOUS
10
107.413
20
-126.823
11
107.425
21
-126.81
0
LINE
8
BLACK
6
CONTINUOUS
10
107.425
20
-126.81
11
107.436
21
-126.798
0
LINE
8
BLACK
6
CONTINUOUS
10
107.436
20
-126.798
11
107.532
21
-126.727
0
LINE
8
BLACK
6
CONTINUOUS
10
107.532
20
-126.727
11
107.544
21
-126.72
0
LINE
8
BLACK
6
CONTINUOUS
10
107.544
20
-126.72
11
107.556
21
-126.713
0
LINE
8
BLACK
6
CONTINUOUS
10
107.556
20
-126.713
11
107.747
21
-126.642
0
LINE
8
BLACK
6
CONTINUOUS
10
107.747
20
-126.642
11
107.747
21
-126.641
0
LINE
8
BLACK
6
CONTINUOUS
10
107.747
20
-126.641
11
107.748
21
-126.641
0
LINE
8
BLACK
6
CONTINUOUS
10
107.748
20
-126.641
11
107.764
21
-126.638
0
LINE
8
BLACK
6
CONTINUOUS
10
107.764
20
-126.638
11
107.781
21
-126.635
0
LINE
8
BLACK
6
CONTINUOUS
10
107.781
20
-126.635
11
107.781
21
-126.635
0
LINE
8
BLACK
6
CONTINUOUS
10
107.781
20
-126.635
11
107.782
21
-126.635
0
LINE
8
BLACK
6
CONTINUOUS
10
107.782
20
-126.635
11
108.163
21
-126.635
0
LINE
8
BLACK
6
CONTINUOUS
10
108.163
20
-126.635
11
108.163
21
-126.635
0
LINE
8
BLACK
6
CONTINUOUS
10
106.259
20
-126.635
11
106.259
21
-126.635
0
LINE
8
BLACK
6
CONTINUOUS
10
106.259
20
-126.635
11
106.276
21
-126.638
0
LINE
8
BLACK
6
CONTINUOUS
10
106.276
20
-126.638
11
106.292
21
-126.641
0
LINE
8
BLACK
6
CONTINUOUS
10
106.292
20
-126.641
11
106.293
21
-126.641
0
LINE
8
BLACK
6
CONTINUOUS
10
106.293
20
-126.641
11
106.293
21
-126.642
0
LINE
8
BLACK
6
CONTINUOUS
10
106.293
20
-126.642
11
106.484
21
-126.713
0
LINE
8
BLACK
6
CONTINUOUS
10
106.484
20
-126.713
11
106.496
21
-126.72
0
LINE
8
BLACK
6
CONTINUOUS
10
106.496
20
-126.72
11
106.508
21
-126.726
0
LINE
8
BLACK
6
CONTINUOUS
10
106.508
20
-126.726
11
106.51
21
-126.729
0
LINE
8
BLACK
6
CONTINUOUS
10
106.51
20
-126.729
11
106.514
21
-126.731
0
LINE
8
BLACK
6
CONTINUOUS
10
106.514
20
-126.731
11
106.522
21
-126.741
0
LINE
8
BLACK
6
CONTINUOUS
10
106.522
20
-126.741
11
106.532
21
-126.751
0
LINE
8
BLACK
6
CONTINUOUS
10
106.532
20
-126.751
11
106.627
21
-126.894
0
LINE
8
BLACK
6
CONTINUOUS
10
106.627
20
-126.894
11
106.632
21
-126.905
0
LINE
8
BLACK
6
CONTINUOUS
10
106.632
20
-126.905
11
106.638
21
-126.915
0
LINE
8
BLACK
6
CONTINUOUS
10
106.638
20
-126.915
11
106.639
21
-126.921
0
LINE
8
BLACK
6
CONTINUOUS
10
106.639
20
-126.921
11
106.641
21
-126.926
0
LINE
8
BLACK
6
CONTINUOUS
10
106.641
20
-126.926
11
106.642
21
-126.938
0
LINE
8
BLACK
6
CONTINUOUS
10
106.642
20
-126.938
11
106.644
21
-126.949
0
LINE
8
BLACK
6
CONTINUOUS
10
106.644
20
-126.949
11
106.644
21
-127.735
0
LINE
8
BLACK
6
CONTINUOUS
10
106.644
20
-127.735
11
106.638
21
-127.769
0
LINE
8
BLACK
6
CONTINUOUS
10
106.638
20
-127.769
11
106.62
21
-127.799
0
LINE
8
BLACK
6
CONTINUOUS
10
106.62
20
-127.799
11
106.594
21
-127.822
0
LINE
8
BLACK
6
CONTINUOUS
10
106.594
20
-127.822
11
106.561
21
-127.834
0
LINE
8
BLACK
6
CONTINUOUS
10
106.561
20
-127.834
11
106.527
21
-127.834
0
LINE
8
BLACK
6
CONTINUOUS
10
106.527
20
-127.834
11
106.494
21
-127.822
0
LINE
8
BLACK
6
CONTINUOUS
10
106.494
20
-127.822
11
106.467
21
-127.799
0
LINE
8
BLACK
6
CONTINUOUS
10
106.467
20
-127.799
11
106.467
21
-127.799
0
LINE
8
BLACK
6
CONTINUOUS
10
106.467
20
-127.799
11
106.389
21
-127.829
0
LINE
8
BLACK
6
CONTINUOUS
10
106.389
20
-127.829
11
106.388
21
-127.829
0
LINE
8
BLACK
6
CONTINUOUS
10
106.388
20
-127.829
11
106.388
21
-127.829
0
LINE
8
BLACK
6
CONTINUOUS
10
106.388
20
-127.829
11
106.371
21
-127.832
0
LINE
8
BLACK
6
CONTINUOUS
10
106.371
20
-127.832
11
106.354
21
-127.835
0
LINE
8
BLACK
6
CONTINUOUS
10
106.354
20
-127.835
11
106.354
21
-127.835
0
LINE
8
BLACK
6
CONTINUOUS
10
106.354
20
-127.835
11
106.353
21
-127.835
0
LINE
8
BLACK
6
CONTINUOUS
10
106.353
20
-127.835
11
105.877
21
-127.835
0
LINE
8
BLACK
6
CONTINUOUS
10
105.877
20
-127.835
11
105.877
21
-127.835
0
LINE
8
BLACK
6
CONTINUOUS
10
105.877
20
-127.835
11
105.876
21
-127.835
0
LINE
8
BLACK
6
CONTINUOUS
10
105.876
20
-127.835
11
105.86
21
-127.832
0
LINE
8
BLACK
6
CONTINUOUS
10
105.86
20
-127.832
11
105.843
21
-127.829
0
LINE
8
BLACK
6
CONTINUOUS
10
105.843
20
-127.829
11
105.843
21
-127.829
0
LINE
8
BLACK
6
CONTINUOUS
10
105.843
20
-127.829
11
105.842
21
-127.829
0
LINE
8
BLACK
6
CONTINUOUS
10
105.842
20
-127.829
11
105.652
21
-127.757
0
LINE
8
BLACK
6
CONTINUOUS
10
105.652
20
-127.757
11
105.64
21
-127.75
0
LINE
8
BLACK
6
CONTINUOUS
10
105.64
20
-127.75
11
105.628
21
-127.744
0
LINE
8
BLACK
6
CONTINUOUS
10
105.628
20
-127.744
11
105.625
21
-127.742
0
LINE
8
BLACK
6
CONTINUOUS
10
105.625
20
-127.742
11
105.622
21
-127.74
0
LINE
8
BLACK
6
CONTINUOUS
10
105.622
20
-127.74
11
105.613
21
-127.729
0
LINE
8
BLACK
6
CONTINUOUS
10
105.613
20
-127.729
11
105.604
21
-127.719
0
LINE
8
BLACK
6
CONTINUOUS
10
105.604
20
-127.719
11
105.508
21
-127.576
0
LINE
8
BLACK
6
CONTINUOUS
10
105.508
20
-127.576
11
105.504
21
-127.565
0
LINE
8
BLACK
6
CONTINUOUS
10
105.504
20
-127.565
11
105.498
21
-127.555
0
LINE
8
BLACK
6
CONTINUOUS
10
105.498
20
-127.555
11
105.497
21
-127.55
0
LINE
8
BLACK
6
CONTINUOUS
10
105.497
20
-127.55
11
105.494
21
-127.545
0
LINE
8
BLACK
6
CONTINUOUS
10
105.494
20
-127.545
11
105.494
21
-127.533
0
LINE
8
BLACK
6
CONTINUOUS
10
105.494
20
-127.533
11
105.492
21
-127.521
0
LINE
8
BLACK
6
CONTINUOUS
10
105.492
20
-127.521
11
105.492
21
-127.378
0
LINE
8
BLACK
6
CONTINUOUS
10
105.492
20
-127.378
11
105.494
21
-127.366
0
LINE
8
BLACK
6
CONTINUOUS
10
105.494
20
-127.366
11
105.494
21
-127.354
0
LINE
8
BLACK
6
CONTINUOUS
10
105.494
20
-127.354
11
105.497
21
-127.349
0
LINE
8
BLACK
6
CONTINUOUS
10
105.497
20
-127.349
11
105.498
21
-127.344
0
LINE
8
BLACK
6
CONTINUOUS
10
105.498
20
-127.344
11
105.504
21
-127.333
0
LINE
8
BLACK
6
CONTINUOUS
10
105.504
20
-127.333
11
105.508
21
-127.323
0
LINE
8
BLACK
6
CONTINUOUS
10
105.508
20
-127.323
11
105.604
21
-127.18
0
LINE
8
BLACK
6
CONTINUOUS
10
105.604
20
-127.18
11
105.613
21
-127.17
0
LINE
8
BLACK
6
CONTINUOUS
10
105.613
20
-127.17
11
105.622
21
-127.159
0
LINE
8
BLACK
6
CONTINUOUS
10
105.622
20
-127.159
11
105.625
21
-127.157
0
LINE
8
BLACK
6
CONTINUOUS
10
105.625
20
-127.157
11
105.628
21
-127.155
0
LINE
8
BLACK
6
CONTINUOUS
10
105.628
20
-127.155
11
105.64
21
-127.149
0
LINE
8
BLACK
6
CONTINUOUS
10
105.64
20
-127.149
11
105.652
21
-127.142
0
LINE
8
BLACK
6
CONTINUOUS
10
105.652
20
-127.142
11
105.842
21
-127.07
0
LINE
8
BLACK
6
CONTINUOUS
10
105.842
20
-127.07
11
105.843
21
-127.07
0
LINE
8
BLACK
6
CONTINUOUS
10
105.843
20
-127.07
11
105.843
21
-127.07
0
LINE
8
BLACK
6
CONTINUOUS
10
105.843
20
-127.07
11
105.86
21
-127.067
0
LINE
8
BLACK
6
CONTINUOUS
10
105.86
20
-127.067
11
105.876
21
-127.064
0
LINE
8
BLACK
6
CONTINUOUS
10
105.876
20
-127.064
11
105.877
21
-127.064
0
LINE
8
BLACK
6
CONTINUOUS
10
105.877
20
-127.064
11
105.877
21
-127.064
0
LINE
8
BLACK
6
CONTINUOUS
10
105.877
20
-127.064
11
106.335
21
-127.064
0
LINE
8
BLACK
6
CONTINUOUS
10
106.335
20
-127.064
11
106.444
21
-127.023
0
LINE
8
BLACK
6
CONTINUOUS
10
106.444
20
-127.023
11
106.444
21
-126.98
0
LINE
8
BLACK
6
CONTINUOUS
10
106.444
20
-126.98
11
106.383
21
-126.889
0
LINE
8
BLACK
6
CONTINUOUS
10
106.383
20
-126.889
11
106.24
21
-126.835
0
LINE
8
BLACK
6
CONTINUOUS
10
106.24
20
-126.835
11
105.895
21
-126.835
0
LINE
8
BLACK
6
CONTINUOUS
10
105.895
20
-126.835
11
105.722
21
-126.9
0
LINE
8
BLACK
6
CONTINUOUS
10
105.722
20
-126.9
11
105.688
21
-126.907
0
LINE
8
BLACK
6
CONTINUOUS
10
105.688
20
-126.907
11
105.653
21
-126.901
0
LINE
8
BLACK
6
CONTINUOUS
10
105.653
20
-126.901
11
105.623
21
-126.884
0
LINE
8
BLACK
6
CONTINUOUS
10
105.623
20
-126.884
11
105.601
21
-126.857
0
LINE
8
BLACK
6
CONTINUOUS
10
105.601
20
-126.857
11
105.588
21
-126.825
0
LINE
8
BLACK
6
CONTINUOUS
10
105.588
20
-126.825
11
105.588
21
-126.79
0
LINE
8
BLACK
6
CONTINUOUS
10
105.588
20
-126.79
11
105.6
21
-126.757
0
LINE
8
BLACK
6
CONTINUOUS
10
105.6
20
-126.757
11
105.622
21
-126.731
0
LINE
8
BLACK
6
CONTINUOUS
10
105.622
20
-126.731
11
105.652
21
-126.713
0
LINE
8
BLACK
6
CONTINUOUS
10
105.652
20
-126.713
11
105.842
21
-126.642
0
LINE
8
BLACK
6
CONTINUOUS
10
105.842
20
-126.642
11
105.843
21
-126.641
0
LINE
8
BLACK
6
CONTINUOUS
10
105.843
20
-126.641
11
105.843
21
-126.641
0
LINE
8
BLACK
6
CONTINUOUS
10
105.843
20
-126.641
11
105.86
21
-126.638
0
LINE
8
BLACK
6
CONTINUOUS
10
105.86
20
-126.638
11
105.876
21
-126.635
0
LINE
8
BLACK
6
CONTINUOUS
10
105.876
20
-126.635
11
105.877
21
-126.635
0
LINE
8
BLACK
6
CONTINUOUS
10
105.877
20
-126.635
11
105.877
21
-126.635
0
LINE
8
BLACK
6
CONTINUOUS
10
105.877
20
-126.635
11
106.258
21
-126.635
0
LINE
8
BLACK
6
CONTINUOUS
10
106.258
20
-126.635
11
106.259
21
-126.635
0
LINE
8
BLACK
6
CONTINUOUS
10
106.389
20
-127.257
11
106.388
21
-127.257
0
LINE
8
BLACK
6
CONTINUOUS
10
106.388
20
-127.257
11
106.388
21
-127.258
0
LINE
8
BLACK
6
CONTINUOUS
10
106.388
20
-127.258
11
106.371
21
-127.261
0
LINE
8
BLACK
6
CONTINUOUS
10
106.371
20
-127.261
11
106.354
21
-127.264
0
LINE
8
BLACK
6
CONTINUOUS
10
106.354
20
-127.264
11
106.354
21
-127.264
0
LINE
8
BLACK
6
CONTINUOUS
10
106.354
20
-127.264
11
106.353
21
-127.264
0
LINE
8
BLACK
6
CONTINUOUS
10
106.353
20
-127.264
11
105.895
21
-127.264
0
LINE
8
BLACK
6
CONTINUOUS
10
105.895
20
-127.264
11
105.752
21
-127.317
0
LINE
8
BLACK
6
CONTINUOUS
10
105.752
20
-127.317
11
105.692
21
-127.408
0
LINE
8
BLACK
6
CONTINUOUS
10
105.692
20
-127.408
11
105.692
21
-127.491
0
LINE
8
BLACK
6
CONTINUOUS
10
105.692
20
-127.491
11
105.752
21
-127.581
0
LINE
8
BLACK
6
CONTINUOUS
10
105.752
20
-127.581
11
105.895
21
-127.635
0
LINE
8
BLACK
6
CONTINUOUS
10
105.895
20
-127.635
11
106.335
21
-127.635
0
LINE
8
BLACK
6
CONTINUOUS
10
106.335
20
-127.635
11
106.444
21
-127.594
0
LINE
8
BLACK
6
CONTINUOUS
10
106.444
20
-127.594
11
106.444
21
-127.237
0
LINE
8
BLACK
6
CONTINUOUS
10
106.444
20
-127.237
11
106.389
21
-127.257
0
LINE
8
BLACK
6
CONTINUOUS
10
116.118
20
-126.149
11
116.144
21
-126.171
0
LINE
8
BLACK
6
CONTINUOUS
10
116.144
20
-126.171
11
116.162
21
-126.201
0
LINE
8
BLACK
6
CONTINUOUS
10
116.162
20
-126.201
11
116.168
21
-126.235
0
LINE
8
BLACK
6
CONTINUOUS
10
116.168
20
-126.235
11
116.168
21
-126.635
0
LINE
8
BLACK
6
CONTINUOUS
10
116.168
20
-126.635
11
116.544
21
-126.635
0
LINE
8
BLACK
6
CONTINUOUS
10
116.544
20
-126.635
11
116.578
21
-126.641
0
LINE
8
BLACK
6
CONTINUOUS
10
116.578
20
-126.641
11
116.608
21
-126.659
0
LINE
8
BLACK
6
CONTINUOUS
10
116.608
20
-126.659
11
116.63
21
-126.685
0
LINE
8
BLACK
6
CONTINUOUS
10
116.63
20
-126.685
11
116.642
21
-126.718
0
LINE
8
BLACK
6
CONTINUOUS
10
116.642
20
-126.718
11
116.642
21
-126.753
0
LINE
8
BLACK
6
CONTINUOUS
10
116.642
20
-126.753
11
116.63
21
-126.785
0
LINE
8
BLACK
6
CONTINUOUS
10
116.63
20
-126.785
11
116.608
21
-126.812
0
LINE
8
BLACK
6
CONTINUOUS
10
116.608
20
-126.812
11
116.578
21
-126.829
0
LINE
8
BLACK
6
CONTINUOUS
10
116.578
20
-126.829
11
116.544
21
-126.835
0
LINE
8
BLACK
6
CONTINUOUS
10
116.544
20
-126.835
11
116.168
21
-126.835
0
LINE
8
BLACK
6
CONTINUOUS
10
116.168
20
-126.835
11
116.168
21
-127.491
0
LINE
8
BLACK
6
CONTINUOUS
10
116.168
20
-127.491
11
116.228
21
-127.581
0
LINE
8
BLACK
6
CONTINUOUS
10
116.228
20
-127.581
11
116.372
21
-127.635
0
LINE
8
BLACK
6
CONTINUOUS
10
116.372
20
-127.635
11
116.544
21
-127.635
0
LINE
8
BLACK
6
CONTINUOUS
10
116.544
20
-127.635
11
116.578
21
-127.641
0
LINE
8
BLACK
6
CONTINUOUS
10
116.578
20
-127.641
11
116.608
21
-127.659
0
LINE
8
BLACK
6
CONTINUOUS
10
116.608
20
-127.659
11
116.63
21
-127.685
0
LINE
8
BLACK
6
CONTINUOUS
10
116.63
20
-127.685
11
116.642
21
-127.718
0
LINE
8
BLACK
6
CONTINUOUS
10
116.642
20
-127.718
11
116.642
21
-127.753
0
LINE
8
BLACK
6
CONTINUOUS
10
116.642
20
-127.753
11
116.63
21
-127.785
0
LINE
8
BLACK
6
CONTINUOUS
10
116.63
20
-127.785
11
116.608
21
-127.812
0
LINE
8
BLACK
6
CONTINUOUS
10
116.608
20
-127.812
11
116.578
21
-127.829
0
LINE
8
BLACK
6
CONTINUOUS
10
116.578
20
-127.829
11
116.544
21
-127.835
0
LINE
8
BLACK
6
CONTINUOUS
10
116.544
20
-127.835
11
116.353
21
-127.835
0
LINE
8
BLACK
6
CONTINUOUS
10
116.353
20
-127.835
11
116.353
21
-127.835
0
LINE
8
BLACK
6
CONTINUOUS
10
116.353
20
-127.835
11
116.352
21
-127.835
0
LINE
8
BLACK
6
CONTINUOUS
10
116.352
20
-127.835
11
116.336
21
-127.832
0
LINE
8
BLACK
6
CONTINUOUS
10
116.336
20
-127.832
11
116.319
21
-127.829
0
LINE
8
BLACK
6
CONTINUOUS
10
116.319
20
-127.829
11
116.319
21
-127.829
0
LINE
8
BLACK
6
CONTINUOUS
10
116.319
20
-127.829
11
116.318
21
-127.829
0
LINE
8
BLACK
6
CONTINUOUS
10
116.318
20
-127.829
11
116.128
21
-127.757
0
LINE
8
BLACK
6
CONTINUOUS
10
116.128
20
-127.757
11
116.116
21
-127.75
0
LINE
8
BLACK
6
CONTINUOUS
10
116.116
20
-127.75
11
116.104
21
-127.744
0
LINE
8
BLACK
6
CONTINUOUS
10
116.104
20
-127.744
11
116.101
21
-127.742
0
LINE
8
BLACK
6
CONTINUOUS
10
116.101
20
-127.742
11
116.098
21
-127.74
0
LINE
8
BLACK
6
CONTINUOUS
10
116.098
20
-127.74
11
116.089
21
-127.729
0
LINE
8
BLACK
6
CONTINUOUS
10
116.089
20
-127.729
11
116.08
21
-127.719
0
LINE
8
BLACK
6
CONTINUOUS
10
116.08
20
-127.719
11
115.984
21
-127.576
0
LINE
8
BLACK
6
CONTINUOUS
10
115.984
20
-127.576
11
115.98
21
-127.565
0
LINE
8
BLACK
6
CONTINUOUS
10
115.98
20
-127.565
11
115.974
21
-127.555
0
LINE
8
BLACK
6
CONTINUOUS
10
115.974
20
-127.555
11
115.973
21
-127.55
0
LINE
8
BLACK
6
CONTINUOUS
10
115.973
20
-127.55
11
115.971
21
-127.545
0
LINE
8
BLACK
6
CONTINUOUS
10
115.971
20
-127.545
11
115.97
21
-127.533
0
LINE
8
BLACK
6
CONTINUOUS
10
115.97
20
-127.533
11
115.968
21
-127.521
0
LINE
8
BLACK
6
CONTINUOUS
10
115.968
20
-127.521
11
115.968
21
-126.835
0
LINE
8
BLACK
6
CONTINUOUS
10
115.968
20
-126.835
11
115.782
21
-126.835
0
LINE
8
BLACK
6
CONTINUOUS
10
115.782
20
-126.835
11
115.748
21
-126.829
0
LINE
8
BLACK
6
CONTINUOUS
10
115.748
20
-126.829
11
115.718
21
-126.812
0
LINE
8
BLACK
6
CONTINUOUS
10
115.718
20
-126.812
11
115.695
21
-126.785
0
LINE
8
BLACK
6
CONTINUOUS
10
115.695
20
-126.785
11
115.683
21
-126.753
0
LINE
8
BLACK
6
CONTINUOUS
10
115.683
20
-126.753
11
115.683
21
-126.718
0
LINE
8
BLACK
6
CONTINUOUS
10
115.683
20
-126.718
11
115.695
21
-126.685
0
LINE
8
BLACK
6
CONTINUOUS
10
115.695
20
-126.685
11
115.718
21
-126.659
0
LINE
8
BLACK
6
CONTINUOUS
10
115.718
20
-126.659
11
115.748
21
-126.641
0
LINE
8
BLACK
6
CONTINUOUS
10
115.748
20
-126.641
11
115.782
21
-126.635
0
LINE
8
BLACK
6
CONTINUOUS
10
115.782
20
-126.635
11
115.968
21
-126.635
0
LINE
8
BLACK
6
CONTINUOUS
10
115.968
20
-126.635
11
115.968
21
-126.235
0
LINE
8
BLACK
6
CONTINUOUS
10
115.968
20
-126.235
11
115.974
21
-126.201
0
LINE
8
BLACK
6
CONTINUOUS
10
115.974
20
-126.201
11
115.991
21
-126.171
0
LINE
8
BLACK
6
CONTINUOUS
10
115.991
20
-126.171
11
116.018
21
-126.149
0
LINE
8
BLACK
6
CONTINUOUS
10
116.018
20
-126.149
11
116.05
21
-126.137
0
LINE
8
BLACK
6
CONTINUOUS
10
116.05
20
-126.137
11
116.085
21
-126.137
0
LINE
8
BLACK
6
CONTINUOUS
10
116.085
20
-126.137
11
116.118
21
-126.149
0
LINE
8
BLACK
6
CONTINUOUS
10
104.745
20
-126.137
11
104.752
21
-126.137
0
LINE
8
BLACK
6
CONTINUOUS
10
104.752
20
-126.137
11
104.761
21
-126.14
0
LINE
8
BLACK
6
CONTINUOUS
10
104.761
20
-126.14
11
104.772
21
-126.142
0
LINE
8
BLACK
6
CONTINUOUS
10
104.772
20
-126.142
11
104.778
21
-126.146
0
LINE
8
BLACK
6
CONTINUOUS
10
104.778
20
-126.146
11
104.784
21
-126.149
0
LINE
8
BLACK
6
CONTINUOUS
10
104.784
20
-126.149
11
104.792
21
-126.155
0
LINE
8
BLACK
6
CONTINUOUS
10
104.792
20
-126.155
11
104.801
21
-126.161
0
LINE
8
BLACK
6
CONTINUOUS
10
104.801
20
-126.161
11
104.806
21
-126.166
0
LINE
8
BLACK
6
CONTINUOUS
10
104.806
20
-126.166
11
104.811
21
-126.171
0
LINE
8
BLACK
6
CONTINUOUS
10
104.811
20
-126.171
11
104.816
21
-126.18
0
LINE
8
BLACK
6
CONTINUOUS
10
104.816
20
-126.18
11
104.823
21
-126.188
0
LINE
8
BLACK
6
CONTINUOUS
10
104.823
20
-126.188
11
104.825
21
-126.195
0
LINE
8
BLACK
6
CONTINUOUS
10
104.825
20
-126.195
11
104.828
21
-126.201
0
LINE
8
BLACK
6
CONTINUOUS
10
104.828
20
-126.201
11
104.83
21
-126.211
0
LINE
8
BLACK
6
CONTINUOUS
10
104.83
20
-126.211
11
104.833
21
-126.221
0
LINE
8
BLACK
6
CONTINUOUS
10
104.833
20
-126.221
11
104.833
21
-126.228
0
LINE
8
BLACK
6
CONTINUOUS
10
104.833
20
-126.228
11
104.834
21
-126.235
0
LINE
8
BLACK
6
CONTINUOUS
10
104.834
20
-126.235
11
104.834
21
-127.735
0
LINE
8
BLACK
6
CONTINUOUS
10
104.834
20
-127.735
11
104.828
21
-127.769
0
LINE
8
BLACK
6
CONTINUOUS
10
104.828
20
-127.769
11
104.811
21
-127.799
0
LINE
8
BLACK
6
CONTINUOUS
10
104.811
20
-127.799
11
104.784
21
-127.822
0
LINE
8
BLACK
6
CONTINUOUS
10
104.784
20
-127.822
11
104.752
21
-127.834
0
LINE
8
BLACK
6
CONTINUOUS
10
104.752
20
-127.834
11
104.717
21
-127.834
0
LINE
8
BLACK
6
CONTINUOUS
10
104.717
20
-127.834
11
104.684
21
-127.822
0
LINE
8
BLACK
6
CONTINUOUS
10
104.684
20
-127.822
11
104.658
21
-127.799
0
LINE
8
BLACK
6
CONTINUOUS
10
104.658
20
-127.799
11
104.64
21
-127.769
0
LINE
8
BLACK
6
CONTINUOUS
10
104.64
20
-127.769
11
104.634
21
-127.735
0
LINE
8
BLACK
6
CONTINUOUS
10
104.634
20
-127.735
11
104.634
21
-126.585
0
LINE
8
BLACK
6
CONTINUOUS
10
104.634
20
-126.585
11
104.153
21
-127.359
0
LINE
8
BLACK
6
CONTINUOUS
10
104.153
20
-127.359
11
104.143
21
-127.37
0
LINE
8
BLACK
6
CONTINUOUS
10
104.143
20
-127.37
11
104.134
21
-127.381
0
LINE
8
BLACK
6
CONTINUOUS
10
104.134
20
-127.381
11
104.132
21
-127.383
0
LINE
8
BLACK
6
CONTINUOUS
10
104.132
20
-127.383
11
104.129
21
-127.385
0
LINE
8
BLACK
6
CONTINUOUS
10
104.129
20
-127.385
11
104.117
21
-127.392
0
LINE
8
BLACK
6
CONTINUOUS
10
104.117
20
-127.392
11
104.105
21
-127.399
0
LINE
8
BLACK
6
CONTINUOUS
10
104.105
20
-127.399
11
104.102
21
-127.4
0
LINE
8
BLACK
6
CONTINUOUS
10
104.102
20
-127.4
11
104.099
21
-127.402
0
LINE
8
BLACK
6
CONTINUOUS
10
104.099
20
-127.402
11
104.085
21
-127.404
0
LINE
8
BLACK
6
CONTINUOUS
10
104.085
20
-127.404
11
104.071
21
-127.407
0
LINE
8
BLACK
6
CONTINUOUS
10
104.071
20
-127.407
11
104.068
21
-127.406
0
LINE
8
BLACK
6
CONTINUOUS
10
104.068
20
-127.406
11
104.064
21
-127.407
0
LINE
8
BLACK
6
CONTINUOUS
10
104.064
20
-127.407
11
104.051
21
-127.404
0
LINE
8
BLACK
6
CONTINUOUS
10
104.051
20
-127.404
11
104.037
21
-127.402
0
LINE
8
BLACK
6
CONTINUOUS
10
104.037
20
-127.402
11
104.034
21
-127.4
0
LINE
8
BLACK
6
CONTINUOUS
10
104.034
20
-127.4
11
104.03
21
-127.399
0
LINE
8
BLACK
6
CONTINUOUS
10
104.03
20
-127.399
11
104.018
21
-127.392
0
LINE
8
BLACK
6
CONTINUOUS
10
104.018
20
-127.392
11
104.006
21
-127.385
0
LINE
8
BLACK
6
CONTINUOUS
10
104.006
20
-127.385
11
104.004
21
-127.383
0
LINE
8
BLACK
6
CONTINUOUS
10
104.004
20
-127.383
11
104.001
21
-127.381
0
LINE
8
BLACK
6
CONTINUOUS
10
104.001
20
-127.381
11
103.992
21
-127.37
0
LINE
8
BLACK
6
CONTINUOUS
10
103.992
20
-127.37
11
103.983
21
-127.359
0
LINE
8
BLACK
6
CONTINUOUS
10
103.983
20
-127.359
11
103.501
21
-126.585
0
LINE
8
BLACK
6
CONTINUOUS
10
103.501
20
-126.585
11
103.501
21
-127.735
0
LINE
8
BLACK
6
CONTINUOUS
10
103.501
20
-127.735
11
103.495
21
-127.769
0
LINE
8
BLACK
6
CONTINUOUS
10
103.495
20
-127.769
11
103.478
21
-127.799
0
LINE
8
BLACK
6
CONTINUOUS
10
103.478
20
-127.799
11
103.451
21
-127.822
0
LINE
8
BLACK
6
CONTINUOUS
10
103.451
20
-127.822
11
103.418
21
-127.834
0
LINE
8
BLACK
6
CONTINUOUS
10
103.418
20
-127.834
11
103.384
21
-127.834
0
LINE
8
BLACK
6
CONTINUOUS
10
103.384
20
-127.834
11
103.351
21
-127.822
0
LINE
8
BLACK
6
CONTINUOUS
10
103.351
20
-127.822
11
103.324
21
-127.799
0
LINE
8
BLACK
6
CONTINUOUS
10
103.324
20
-127.799
11
103.307
21
-127.769
0
LINE
8
BLACK
6
CONTINUOUS
10
103.307
20
-127.769
11
103.301
21
-127.735
0
LINE
8
BLACK
6
CONTINUOUS
10
103.301
20
-127.735
11
103.301
21
-126.235
0
LINE
8
BLACK
6
CONTINUOUS
10
103.301
20
-126.235
11
103.302
21
-126.228
0
LINE
8
BLACK
6
CONTINUOUS
10
103.302
20
-126.228
11
103.302
21
-126.221
0
LINE
8
BLACK
6
CONTINUOUS
10
103.302
20
-126.221
11
103.305
21
-126.211
0
LINE
8
BLACK
6
CONTINUOUS
10
103.305
20
-126.211
11
103.307
21
-126.201
0
LINE
8
BLACK
6
CONTINUOUS
10
103.307
20
-126.201
11
103.311
21
-126.195
0
LINE
8
BLACK
6
CONTINUOUS
10
103.311
20
-126.195
11
103.313
21
-126.188
0
LINE
8
BLACK
6
CONTINUOUS
10
103.313
20
-126.188
11
103.319
21
-126.18
0
LINE
8
BLACK
6
CONTINUOUS
10
103.319
20
-126.18
11
103.324
21
-126.171
0
LINE
8
BLACK
6
CONTINUOUS
10
103.324
20
-126.171
11
103.33
21
-126.166
0
LINE
8
BLACK
6
CONTINUOUS
10
103.33
20
-126.166
11
103.334
21
-126.161
0
LINE
8
BLACK
6
CONTINUOUS
10
103.334
20
-126.161
11
103.343
21
-126.155
0
LINE
8
BLACK
6
CONTINUOUS
10
103.343
20
-126.155
11
103.351
21
-126.149
0
LINE
8
BLACK
6
CONTINUOUS
10
103.351
20
-126.149
11
103.358
21
-126.146
0
LINE
8
BLACK
6
CONTINUOUS
10
103.358
20
-126.146
11
103.364
21
-126.142
0
LINE
8
BLACK
6
CONTINUOUS
10
103.364
20
-126.142
11
103.374
21
-126.14
0
LINE
8
BLACK
6
CONTINUOUS
10
103.374
20
-126.14
11
103.384
21
-126.137
0
LINE
8
BLACK
6
CONTINUOUS
10
103.384
20
-126.137
11
103.391
21
-126.137
0
LINE
8
BLACK
6
CONTINUOUS
10
103.391
20
-126.137
11
103.398
21
-126.135
0
LINE
8
BLACK
6
CONTINUOUS
10
103.398
20
-126.135
11
103.408
21
-126.137
0
LINE
8
BLACK
6
CONTINUOUS
10
103.408
20
-126.137
11
103.418
21
-126.137
0
LINE
8
BLACK
6
CONTINUOUS
10
103.418
20
-126.137
11
103.425
21
-126.139
0
LINE
8
BLACK
6
CONTINUOUS
10
103.425
20
-126.139
11
103.432
21
-126.14
0
LINE
8
BLACK
6
CONTINUOUS
10
103.432
20
-126.14
11
103.441
21
-126.145
0
LINE
8
BLACK
6
CONTINUOUS
10
103.441
20
-126.145
11
103.451
21
-126.149
0
LINE
8
BLACK
6
CONTINUOUS
10
103.451
20
-126.149
11
103.456
21
-126.153
0
LINE
8
BLACK
6
CONTINUOUS
10
103.456
20
-126.153
11
103.463
21
-126.156
0
LINE
8
BLACK
6
CONTINUOUS
10
103.463
20
-126.156
11
103.47
21
-126.164
0
LINE
8
BLACK
6
CONTINUOUS
10
103.47
20
-126.164
11
103.478
21
-126.171
0
LINE
8
BLACK
6
CONTINUOUS
10
103.478
20
-126.171
11
103.481
21
-126.177
0
LINE
8
BLACK
6
CONTINUOUS
10
103.481
20
-126.177
11
103.486
21
-126.182
0
LINE
8
BLACK
6
CONTINUOUS
10
103.486
20
-126.182
11
104.068
21
-127.117
0
LINE
8
BLACK
6
CONTINUOUS
10
104.068
20
-127.117
11
104.649
21
-126.182
0
LINE
8
BLACK
6
CONTINUOUS
10
104.649
20
-126.182
11
104.654
21
-126.177
0
LINE
8
BLACK
6
CONTINUOUS
10
104.654
20
-126.177
11
104.658
21
-126.171
0
LINE
8
BLACK
6
CONTINUOUS
10
104.658
20
-126.171
11
104.666
21
-126.164
0
LINE
8
BLACK
6
CONTINUOUS
10
104.666
20
-126.164
11
104.673
21
-126.156
0
LINE
8
BLACK
6
CONTINUOUS
10
104.673
20
-126.156
11
104.679
21
-126.153
0
LINE
8
BLACK
6
CONTINUOUS
10
104.679
20
-126.153
11
104.684
21
-126.149
0
LINE
8
BLACK
6
CONTINUOUS
10
104.684
20
-126.149
11
104.694
21
-126.145
0
LINE
8
BLACK
6
CONTINUOUS
10
104.694
20
-126.145
11
104.703
21
-126.14
0
LINE
8
BLACK
6
CONTINUOUS
10
104.703
20
-126.14
11
104.71
21
-126.139
0
LINE
8
BLACK
6
CONTINUOUS
10
104.71
20
-126.139
11
104.717
21
-126.137
0
LINE
8
BLACK
6
CONTINUOUS
10
104.717
20
-126.137
11
104.727
21
-126.137
0
LINE
8
BLACK
6
CONTINUOUS
10
104.727
20
-126.137
11
104.738
21
-126.135
0
LINE
8
BLACK
6
CONTINUOUS
10
104.738
20
-126.135
11
104.745
21
-126.137
0
LINE
8
BLACK
6
CONTINUOUS
10
109.816
20
-126.641
11
109.846
21
-126.659
0
LINE
8
BLACK
6
CONTINUOUS
10
109.846
20
-126.659
11
109.869
21
-126.685
0
LINE
8
BLACK
6
CONTINUOUS
10
109.869
20
-126.685
11
109.88
21
-126.718
0
LINE
8
BLACK
6
CONTINUOUS
10
109.88
20
-126.718
11
109.88
21
-126.753
0
LINE
8
BLACK
6
CONTINUOUS
10
109.88
20
-126.753
11
109.869
21
-126.785
0
LINE
8
BLACK
6
CONTINUOUS
10
109.869
20
-126.785
11
109.846
21
-126.812
0
LINE
8
BLACK
6
CONTINUOUS
10
109.846
20
-126.812
11
109.816
21
-126.829
0
LINE
8
BLACK
6
CONTINUOUS
10
109.816
20
-126.829
11
109.782
21
-126.835
0
LINE
8
BLACK
6
CONTINUOUS
10
109.782
20
-126.835
11
109.61
21
-126.835
0
LINE
8
BLACK
6
CONTINUOUS
10
109.61
20
-126.835
11
109.45
21
-126.895
0
LINE
8
BLACK
6
CONTINUOUS
10
109.45
20
-126.895
11
109.379
21
-126.948
0
LINE
8
BLACK
6
CONTINUOUS
10
109.379
20
-126.948
11
109.311
21
-127.051
0
LINE
8
BLACK
6
CONTINUOUS
10
109.311
20
-127.051
11
109.311
21
-127.735
0
LINE
8
BLACK
6
CONTINUOUS
10
109.311
20
-127.735
11
109.305
21
-127.769
0
LINE
8
BLACK
6
CONTINUOUS
10
109.305
20
-127.769
11
109.287
21
-127.799
0
LINE
8
BLACK
6
CONTINUOUS
10
109.287
20
-127.799
11
109.261
21
-127.822
0
LINE
8
BLACK
6
CONTINUOUS
10
109.261
20
-127.822
11
109.228
21
-127.834
0
LINE
8
BLACK
6
CONTINUOUS
10
109.228
20
-127.834
11
109.193
21
-127.834
0
LINE
8
BLACK
6
CONTINUOUS
10
109.193
20
-127.834
11
109.161
21
-127.822
0
LINE
8
BLACK
6
CONTINUOUS
10
109.161
20
-127.822
11
109.134
21
-127.799
0
LINE
8
BLACK
6
CONTINUOUS
10
109.134
20
-127.799
11
109.117
21
-127.769
0
LINE
8
BLACK
6
CONTINUOUS
10
109.117
20
-127.769
11
109.111
21
-127.735
0
LINE
8
BLACK
6
CONTINUOUS
10
109.111
20
-127.735
11
109.111
21
-126.735
0
LINE
8
BLACK
6
CONTINUOUS
10
109.111
20
-126.735
11
109.117
21
-126.701
0
LINE
8
BLACK
6
CONTINUOUS
10
109.117
20
-126.701
11
109.134
21
-126.671
0
LINE
8
BLACK
6
CONTINUOUS
10
109.134
20
-126.671
11
109.161
21
-126.649
0
LINE
8
BLACK
6
CONTINUOUS
10
109.161
20
-126.649
11
109.193
21
-126.637
0
LINE
8
BLACK
6
CONTINUOUS
10
109.193
20
-126.637
11
109.228
21
-126.637
0
LINE
8
BLACK
6
CONTINUOUS
10
109.228
20
-126.637
11
109.261
21
-126.649
0
LINE
8
BLACK
6
CONTINUOUS
10
109.261
20
-126.649
11
109.287
21
-126.671
0
LINE
8
BLACK
6
CONTINUOUS
10
109.287
20
-126.671
11
109.305
21
-126.701
0
LINE
8
BLACK
6
CONTINUOUS
10
109.305
20
-126.701
11
109.311
21
-126.735
0
LINE
8
BLACK
6
CONTINUOUS
10
109.311
20
-126.735
11
109.311
21
-126.749
0
LINE
8
BLACK
6
CONTINUOUS
10
109.311
20
-126.749
11
109.341
21
-126.727
0
LINE
8
BLACK
6
CONTINUOUS
10
109.341
20
-126.727
11
109.354
21
-126.72
0
LINE
8
BLACK
6
CONTINUOUS
10
109.354
20
-126.72
11
109.366
21
-126.713
0
LINE
8
BLACK
6
CONTINUOUS
10
109.366
20
-126.713
11
109.556
21
-126.642
0
LINE
8
BLACK
6
CONTINUOUS
10
109.556
20
-126.642
11
109.557
21
-126.641
0
LINE
8
BLACK
6
CONTINUOUS
10
109.557
20
-126.641
11
109.557
21
-126.641
0
LINE
8
BLACK
6
CONTINUOUS
10
109.557
20
-126.641
11
109.574
21
-126.638
0
LINE
8
BLACK
6
CONTINUOUS
10
109.574
20
-126.638
11
109.591
21
-126.635
0
LINE
8
BLACK
6
CONTINUOUS
10
109.591
20
-126.635
11
109.591
21
-126.635
0
LINE
8
BLACK
6
CONTINUOUS
10
109.591
20
-126.635
11
109.592
21
-126.635
0
LINE
8
BLACK
6
CONTINUOUS
10
109.592
20
-126.635
11
109.782
21
-126.635
0
LINE
8
BLACK
6
CONTINUOUS
10
109.782
20
-126.635
11
109.816
21
-126.641
0
LINE
8
BLACK
6
CONTINUOUS
10
113.021
20
-126.135
11
113.021
21
-126.135
0
LINE
8
BLACK
6
CONTINUOUS
10
113.021
20
-126.135
11
113.038
21
-126.138
0
LINE
8
BLACK
6
CONTINUOUS
10
113.038
20
-126.138
11
113.054
21
-126.141
0
LINE
8
BLACK
6
CONTINUOUS
10
113.054
20
-126.141
11
113.055
21
-126.141
0
LINE
8
BLACK
6
CONTINUOUS
10
113.055
20
-126.141
11
113.055
21
-126.142
0
LINE
8
BLACK
6
CONTINUOUS
10
113.055
20
-126.142
11
113.246
21
-126.213
0
LINE
8
BLACK
6
CONTINUOUS
10
113.246
20
-126.213
11
113.258
21
-126.22
0
LINE
8
BLACK
6
CONTINUOUS
10
113.258
20
-126.22
11
113.271
21
-126.227
0
LINE
8
BLACK
6
CONTINUOUS
10
113.271
20
-126.227
11
113.366
21
-126.298
0
LINE
8
BLACK
6
CONTINUOUS
10
113.366
20
-126.298
11
113.377
21
-126.31
0
LINE
8
BLACK
6
CONTINUOUS
10
113.377
20
-126.31
11
113.389
21
-126.323
0
LINE
8
BLACK
6
CONTINUOUS
10
113.389
20
-126.323
11
113.484
21
-126.465
0
LINE
8
BLACK
6
CONTINUOUS
10
113.484
20
-126.465
11
113.489
21
-126.476
0
LINE
8
BLACK
6
CONTINUOUS
10
113.489
20
-126.476
11
113.495
21
-126.487
0
LINE
8
BLACK
6
CONTINUOUS
10
113.495
20
-126.487
11
113.496
21
-126.492
0
LINE
8
BLACK
6
CONTINUOUS
10
113.496
20
-126.492
11
113.498
21
-126.497
0
LINE
8
BLACK
6
CONTINUOUS
10
113.498
20
-126.497
11
113.499
21
-126.509
0
LINE
8
BLACK
6
CONTINUOUS
10
113.499
20
-126.509
11
113.501
21
-126.521
0
LINE
8
BLACK
6
CONTINUOUS
10
113.501
20
-126.521
11
113.501
21
-126.735
0
LINE
8
BLACK
6
CONTINUOUS
10
113.501
20
-126.735
11
113.499
21
-126.747
0
LINE
8
BLACK
6
CONTINUOUS
10
113.499
20
-126.747
11
113.498
21
-126.759
0
LINE
8
BLACK
6
CONTINUOUS
10
113.498
20
-126.759
11
113.496
21
-126.764
0
LINE
8
BLACK
6
CONTINUOUS
10
113.496
20
-126.764
11
113.495
21
-126.769
0
LINE
8
BLACK
6
CONTINUOUS
10
113.495
20
-126.769
11
113.489
21
-126.78
0
LINE
8
BLACK
6
CONTINUOUS
10
113.489
20
-126.78
11
113.484
21
-126.791
0
LINE
8
BLACK
6
CONTINUOUS
10
113.484
20
-126.791
11
113.389
21
-126.933
0
LINE
8
BLACK
6
CONTINUOUS
10
113.389
20
-126.933
11
113.377
21
-126.946
0
LINE
8
BLACK
6
CONTINUOUS
10
113.377
20
-126.946
11
113.366
21
-126.958
0
LINE
8
BLACK
6
CONTINUOUS
10
113.366
20
-126.958
11
113.271
21
-127.029
0
LINE
8
BLACK
6
CONTINUOUS
10
113.271
20
-127.029
11
113.258
21
-127.036
0
LINE
8
BLACK
6
CONTINUOUS
10
113.258
20
-127.036
11
113.246
21
-127.043
0
LINE
8
BLACK
6
CONTINUOUS
10
113.246
20
-127.043
11
113.055
21
-127.115
0
LINE
8
BLACK
6
CONTINUOUS
10
113.055
20
-127.115
11
113.055
21
-127.115
0
LINE
8
BLACK
6
CONTINUOUS
10
113.055
20
-127.115
11
113.054
21
-127.115
0
LINE
8
BLACK
6
CONTINUOUS
10
113.054
20
-127.115
11
113.038
21
-127.118
0
LINE
8
BLACK
6
CONTINUOUS
10
113.038
20
-127.118
11
113.021
21
-127.121
0
LINE
8
BLACK
6
CONTINUOUS
10
113.021
20
-127.121
11
113.021
21
-127.121
0
LINE
8
BLACK
6
CONTINUOUS
10
113.021
20
-127.121
11
113.02
21
-127.121
0
LINE
8
BLACK
6
CONTINUOUS
10
113.02
20
-127.121
11
112.358
21
-127.121
0
LINE
8
BLACK
6
CONTINUOUS
10
112.358
20
-127.121
11
112.358
21
-127.735
0
LINE
8
BLACK
6
CONTINUOUS
10
112.358
20
-127.735
11
112.352
21
-127.769
0
LINE
8
BLACK
6
CONTINUOUS
10
112.352
20
-127.769
11
112.335
21
-127.799
0
LINE
8
BLACK
6
CONTINUOUS
10
112.335
20
-127.799
11
112.308
21
-127.822
0
LINE
8
BLACK
6
CONTINUOUS
10
112.308
20
-127.822
11
112.276
21
-127.834
0
LINE
8
BLACK
6
CONTINUOUS
10
112.276
20
-127.834
11
112.241
21
-127.834
0
LINE
8
BLACK
6
CONTINUOUS
10
112.241
20
-127.834
11
112.208
21
-127.822
0
LINE
8
BLACK
6
CONTINUOUS
10
112.208
20
-127.822
11
112.182
21
-127.799
0
LINE
8
BLACK
6
CONTINUOUS
10
112.182
20
-127.799
11
112.164
21
-127.769
0
LINE
8
BLACK
6
CONTINUOUS
10
112.164
20
-127.769
11
112.158
21
-127.735
0
LINE
8
BLACK
6
CONTINUOUS
10
112.158
20
-127.735
11
112.158
21
-126.235
0
LINE
8
BLACK
6
CONTINUOUS
10
112.158
20
-126.235
11
112.16
21
-126.227
0
LINE
8
BLACK
6
CONTINUOUS
10
112.16
20
-126.227
11
112.16
21
-126.218
0
LINE
8
BLACK
6
CONTINUOUS
10
112.16
20
-126.218
11
112.163
21
-126.21
0
LINE
8
BLACK
6
CONTINUOUS
10
112.163
20
-126.21
11
112.164
21
-126.201
0
LINE
8
BLACK
6
CONTINUOUS
10
112.164
20
-126.201
11
112.169
21
-126.193
0
LINE
8
BLACK
6
CONTINUOUS
10
112.169
20
-126.193
11
112.172
21
-126.185
0
LINE
8
BLACK
6
CONTINUOUS
10
112.172
20
-126.185
11
112.177
21
-126.178
0
LINE
8
BLACK
6
CONTINUOUS
10
112.177
20
-126.178
11
112.182
21
-126.171
0
LINE
8
BLACK
6
CONTINUOUS
10
112.182
20
-126.171
11
112.188
21
-126.165
0
LINE
8
BLACK
6
CONTINUOUS
10
112.188
20
-126.165
11
112.194
21
-126.159
0
LINE
8
BLACK
6
CONTINUOUS
10
112.194
20
-126.159
11
112.201
21
-126.154
0
LINE
8
BLACK
6
CONTINUOUS
10
112.201
20
-126.154
11
112.208
21
-126.149
0
LINE
8
BLACK
6
CONTINUOUS
10
112.208
20
-126.149
11
112.216
21
-126.146
0
LINE
8
BLACK
6
CONTINUOUS
10
112.216
20
-126.146
11
112.224
21
-126.141
0
LINE
8
BLACK
6
CONTINUOUS
10
112.224
20
-126.141
11
112.233
21
-126.14
0
LINE
8
BLACK
6
CONTINUOUS
10
112.233
20
-126.14
11
112.241
21
-126.137
0
LINE
8
BLACK
6
CONTINUOUS
10
112.241
20
-126.137
11
112.25
21
-126.137
0
LINE
8
BLACK
6
CONTINUOUS
10
112.25
20
-126.137
11
112.258
21
-126.135
0
LINE
8
BLACK
6
CONTINUOUS
10
112.258
20
-126.135
11
113.02
21
-126.135
0
LINE
8
BLACK
6
CONTINUOUS
10
113.02
20
-126.135
11
113.021
21
-126.135
0
LINE
8
BLACK
6
CONTINUOUS
10
112.358
20
-126.335
11
112.358
21
-126.921
0
LINE
8
BLACK
6
CONTINUOUS
10
112.358
20
-126.921
11
113.002
21
-126.921
0
LINE
8
BLACK
6
CONTINUOUS
10
113.002
20
-126.921
11
113.162
21
-126.861
0
LINE
8
BLACK
6
CONTINUOUS
10
113.162
20
-126.861
11
113.232
21
-126.808
0
LINE
8
BLACK
6
CONTINUOUS
10
113.232
20
-126.808
11
113.301
21
-126.705
0
LINE
8
BLACK
6
CONTINUOUS
10
113.301
20
-126.705
11
113.301
21
-126.551
0
LINE
8
BLACK
6
CONTINUOUS
10
113.301
20
-126.551
11
113.232
21
-126.448
0
LINE
8
BLACK
6
CONTINUOUS
10
113.232
20
-126.448
11
113.162
21
-126.395
0
LINE
8
BLACK
6
CONTINUOUS
10
113.162
20
-126.395
11
113.002
21
-126.335
0
LINE
8
BLACK
6
CONTINUOUS
10
113.002
20
-126.335
11
112.358
21
-126.335
0
LINE
8
BLACK
6
CONTINUOUS
10
81.4402
20
-127.122
11
81.0425
21
-127.489
0
LINE
8
BLACK
6
CONTINUOUS
10
81.0425
20
-127.489
11
80.5472
21
-127.708
0
LINE
8
BLACK
6
CONTINUOUS
10
80.5472
20
-127.708
11
80.0076
21
-127.755
0
LINE
8
BLACK
6
CONTINUOUS
10
80.0076
20
-127.755
11
79.482
21
-127.625
0
LINE
8
BLACK
6
CONTINUOUS
10
79.482
20
-127.625
11
79.027
21
-127.331
0
LINE
8
BLACK
6
CONTINUOUS
10
79.027
20
-127.331
11
78.6917
21
-126.906
0
LINE
8
BLACK
6
CONTINUOUS
10
78.6917
20
-126.906
11
78.5123
21
-126.395
0
LINE
8
BLACK
6
CONTINUOUS
10
78.5123
20
-126.395
11
78.508
21
-125.853
0
LINE
8
BLACK
6
CONTINUOUS
10
78.508
20
-125.853
11
78.6794
21
-125.339
0
LINE
8
BLACK
6
CONTINUOUS
10
78.6794
20
-125.339
11
79.008
21
-124.909
0
LINE
8
BLACK
6
CONTINUOUS
10
79.008
20
-124.909
11
79.4583
21
-124.608
0
LINE
8
BLACK
6
CONTINUOUS
10
79.4583
20
-124.608
11
79.9818
21
-124.469
0
LINE
8
BLACK
6
CONTINUOUS
10
79.9818
20
-124.469
11
80.522
21
-124.507
0
LINE
8
BLACK
6
CONTINUOUS
10
80.522
20
-124.507
11
81.0207
21
-124.718
0
LINE
8
BLACK
6
CONTINUOUS
10
81.0207
20
-124.718
11
81.4242
21
-125.08
0
LINE
8
BLACK
6
CONTINUOUS
10
81.4242
20
-125.08
11
81.6888
21
-125.552
0
LINE
8
BLACK
6
CONTINUOUS
10
81.6888
20
-125.552
11
81.7861
21
-126.085
0
LINE
8
BLACK
6
CONTINUOUS
10
81.7861
20
-126.085
11
81.7863
21
-126.111
0
LINE
8
BLACK
6
CONTINUOUS
10
81.7863
20
-126.111
11
81.6974
21
-126.645
0
LINE
8
BLACK
6
CONTINUOUS
10
81.6974
20
-126.645
11
81.4402
21
-127.122
0
LINE
8
BLACK
6
CONTINUOUS
10
81.2664
20
-125.235
11
80.9217
21
-124.916
0
LINE
8
BLACK
6
CONTINUOUS
10
80.9217
20
-124.916
11
80.4924
21
-124.727
0
LINE
8
BLACK
6
CONTINUOUS
10
80.4924
20
-124.727
11
80.0249
21
-124.686
0
LINE
8
BLACK
6
CONTINUOUS
10
80.0249
20
-124.686
11
79.5694
21
-124.799
0
LINE
8
BLACK
6
CONTINUOUS
10
79.5694
20
-124.799
11
79.1751
21
-125.054
0
LINE
8
BLACK
6
CONTINUOUS
10
79.1751
20
-125.054
11
78.8845
21
-125.422
0
LINE
8
BLACK
6
CONTINUOUS
10
78.8845
20
-125.422
11
78.729
21
-125.865
0
LINE
8
BLACK
6
CONTINUOUS
10
78.729
20
-125.865
11
78.7253
21
-126.335
0
LINE
8
BLACK
6
CONTINUOUS
10
78.7253
20
-126.335
11
78.8738
21
-126.78
0
LINE
8
BLACK
6
CONTINUOUS
10
78.8738
20
-126.78
11
79.1586
21
-127.153
0
LINE
8
BLACK
6
CONTINUOUS
10
79.1586
20
-127.153
11
79.5488
21
-127.414
0
LINE
8
BLACK
6
CONTINUOUS
10
79.5488
20
-127.414
11
80.0025
21
-127.534
0
LINE
8
BLACK
6
CONTINUOUS
10
80.0025
20
-127.534
11
80.4707
21
-127.501
0
LINE
8
BLACK
6
CONTINUOUS
10
80.4707
20
-127.501
11
80.9028
21
-127.318
0
LINE
8
BLACK
6
CONTINUOUS
10
80.9028
20
-127.318
11
81.2525
21
-127.005
0
LINE
8
BLACK
6
CONTINUOUS
10
81.2525
20
-127.005
11
81.4818
21
-126.595
0
LINE
8
BLACK
6
CONTINUOUS
10
81.4818
20
-126.595
11
81.5661
21
-126.133
0
LINE
8
BLACK
6
CONTINUOUS
10
81.5661
20
-126.133
11
81.5663
21
-126.111
0
LINE
8
BLACK
6
CONTINUOUS
10
81.5663
20
-126.111
11
81.4892
21
-125.648
0
LINE
8
BLACK
6
CONTINUOUS
10
81.4892
20
-125.648
11
81.2664
21
-125.235
0
LINE
8
BLACK
6
CONTINUOUS
10
161.953
20
-127.122
11
161.555
21
-127.489
0
LINE
8
BLACK
6
CONTINUOUS
10
161.555
20
-127.489
11
161.06
21
-127.708
0
LINE
8
BLACK
6
CONTINUOUS
10
161.06
20
-127.708
11
160.52
21
-127.755
0
LINE
8
BLACK
6
CONTINUOUS
10
160.52
20
-127.755
11
159.995
21
-127.625
0
LINE
8
BLACK
6
CONTINUOUS
10
159.995
20
-127.625
11
159.54
21
-127.331
0
LINE
8
BLACK
6
CONTINUOUS
10
159.54
20
-127.331
11
159.204
21
-126.906
0
LINE
8
BLACK
6
CONTINUOUS
10
159.204
20
-126.906
11
159.025
21
-126.395
0
LINE
8
BLACK
6
CONTINUOUS
10
159.025
20
-126.395
11
159.021
21
-125.853
0
LINE
8
BLACK
6
CONTINUOUS
10
159.021
20
-125.853
11
159.192
21
-125.339
0
LINE
8
BLACK
6
CONTINUOUS
10
159.192
20
-125.339
11
159.521
21
-124.909
0
LINE
8
BLACK
6
CONTINUOUS
10
159.521
20
-124.909
11
159.971
21
-124.608
0
LINE
8
BLACK
6
CONTINUOUS
10
159.971
20
-124.608
11
160.495
21
-124.469
0
LINE
8
BLACK
6
CONTINUOUS
10
160.495
20
-124.469
11
161.035
21
-124.507
0
LINE
8
BLACK
6
CONTINUOUS
10
161.035
20
-124.507
11
161.533
21
-124.718
0
LINE
8
BLACK
6
CONTINUOUS
10
161.533
20
-124.718
11
161.937
21
-125.08
0
LINE
8
BLACK
6
CONTINUOUS
10
161.937
20
-125.08
11
162.201
21
-125.552
0
LINE
8
BLACK
6
CONTINUOUS
10
162.201
20
-125.552
11
162.299
21
-126.085
0
LINE
8
BLACK
6
CONTINUOUS
10
162.299
20
-126.085
11
162.299
21
-126.111
0
LINE
8
BLACK
6
CONTINUOUS
10
162.299
20
-126.111
11
162.21
21
-126.645
0
LINE
8
BLACK
6
CONTINUOUS
10
162.21
20
-126.645
11
161.953
21
-127.122
0
LINE
8
BLACK
6
CONTINUOUS
10
161.779
20
-125.235
11
161.434
21
-124.916
0
LINE
8
BLACK
6
CONTINUOUS
10
161.434
20
-124.916
11
161.005
21
-124.727
0
LINE
8
BLACK
6
CONTINUOUS
10
161.005
20
-124.727
11
160.538
21
-124.686
0
LINE
8
BLACK
6
CONTINUOUS
10
160.538
20
-124.686
11
160.082
21
-124.799
0
LINE
8
BLACK
6
CONTINUOUS
10
160.082
20
-124.799
11
159.688
21
-125.054
0
LINE
8
BLACK
6
CONTINUOUS
10
159.688
20
-125.054
11
159.397
21
-125.422
0
LINE
8
BLACK
6
CONTINUOUS
10
159.397
20
-125.422
11
159.242
21
-125.865
0
LINE
8
BLACK
6
CONTINUOUS
10
159.242
20
-125.865
11
159.238
21
-126.335
0
LINE
8
BLACK
6
CONTINUOUS
10
159.238
20
-126.335
11
159.387
21
-126.78
0
LINE
8
BLACK
6
CONTINUOUS
10
159.387
20
-126.78
11
159.671
21
-127.153
0
LINE
8
BLACK
6
CONTINUOUS
10
159.671
20
-127.153
11
160.062
21
-127.414
0
LINE
8
BLACK
6
CONTINUOUS
10
160.062
20
-127.414
11
160.515
21
-127.534
0
LINE
8
BLACK
6
CONTINUOUS
10
160.515
20
-127.534
11
160.983
21
-127.501
0
LINE
8
BLACK
6
CONTINUOUS
10
160.983
20
-127.501
11
161.416
21
-127.318
0
LINE
8
BLACK
6
CONTINUOUS
10
161.416
20
-127.318
11
161.765
21
-127.005
0
LINE
8
BLACK
6
CONTINUOUS
10
161.765
20
-127.005
11
161.995
21
-126.595
0
LINE
8
BLACK
6
CONTINUOUS
10
161.995
20
-126.595
11
162.079
21
-126.133
0
LINE
8
BLACK
6
CONTINUOUS
10
162.079
20
-126.133
11
162.079
21
-126.111
0
LINE
8
BLACK
6
CONTINUOUS
10
162.079
20
-126.111
11
162.002
21
-125.648
0
LINE
8
BLACK
6
CONTINUOUS
10
162.002
20
-125.648
11
161.779
21
-125.235
0
LINE
8
BLACK
6
CONTINUOUS
10
131.538
20
-123.379
11
131.136
21
-124.159
0
LINE
8
BLACK
6
CONTINUOUS
10
131.136
20
-124.159
11
130.595
21
-124.848
0
LINE
8
BLACK
6
CONTINUOUS
10
130.595
20
-124.848
11
129.933
21
-125.422
0
LINE
8
BLACK
6
CONTINUOUS
10
129.933
20
-125.422
11
129.175
21
-125.861
0
LINE
8
BLACK
6
CONTINUOUS
10
129.175
20
-125.861
11
128.347
21
-126.148
0
LINE
8
BLACK
6
CONTINUOUS
10
128.347
20
-126.148
11
127.479
21
-126.274
0
LINE
8
BLACK
6
CONTINUOUS
10
127.479
20
-126.274
11
126.604
21
-126.234
0
LINE
8
BLACK
6
CONTINUOUS
10
126.604
20
-126.234
11
125.752
21
-126.028
0
LINE
8
BLACK
6
CONTINUOUS
10
125.752
20
-126.028
11
124.954
21
-125.666
0
LINE
8
BLACK
6
CONTINUOUS
10
124.954
20
-125.666
11
124.239
21
-125.159
0
LINE
8
BLACK
6
CONTINUOUS
10
124.239
20
-125.159
11
123.633
21
-124.525
0
LINE
8
BLACK
6
CONTINUOUS
10
123.633
20
-124.525
11
123.158
21
-123.789
0
LINE
8
BLACK
6
CONTINUOUS
10
123.158
20
-123.789
11
122.83
21
-122.976
0
LINE
8
BLACK
6
CONTINUOUS
10
122.83
20
-122.976
11
122.662
21
-122.116
0
LINE
8
BLACK
6
CONTINUOUS
10
122.662
20
-122.116
11
122.66
21
-121.24
0
LINE
8
BLACK
6
CONTINUOUS
10
122.66
20
-121.24
11
122.823
21
-120.379
0
LINE
8
BLACK
6
CONTINUOUS
10
122.823
20
-120.379
11
123.147
21
-119.564
0
LINE
8
BLACK
6
CONTINUOUS
10
123.147
20
-119.564
11
123.618
21
-118.826
0
LINE
8
BLACK
6
CONTINUOUS
10
123.618
20
-118.826
11
124.221
21
-118.189
0
LINE
8
BLACK
6
CONTINUOUS
10
124.221
20
-118.189
11
124.933
21
-117.678
0
LINE
8
BLACK
6
CONTINUOUS
10
124.933
20
-117.678
11
125.729
21
-117.312
0
LINE
8
BLACK
6
CONTINUOUS
10
125.729
20
-117.312
11
126.58
21
-117.102
0
LINE
8
BLACK
6
CONTINUOUS
10
126.58
20
-117.102
11
127.455
21
-117.057
0
LINE
8
BLACK
6
CONTINUOUS
10
127.455
20
-117.057
11
128.323
21
-117.178
0
LINE
8
BLACK
6
CONTINUOUS
10
128.323
20
-117.178
11
129.153
21
-117.461
0
LINE
8
BLACK
6
CONTINUOUS
10
129.153
20
-117.461
11
129.913
21
-117.896
0
LINE
8
BLACK
6
CONTINUOUS
10
129.913
20
-117.896
11
130.578
21
-118.467
0
LINE
8
BLACK
6
CONTINUOUS
10
130.578
20
-118.467
11
131.123
21
-119.153
0
LINE
8
BLACK
6
CONTINUOUS
10
131.123
20
-119.153
11
131.529
21
-119.93
0
LINE
8
BLACK
6
CONTINUOUS
10
131.529
20
-119.93
11
131.78
21
-120.77
0
LINE
8
BLACK
6
CONTINUOUS
10
131.78
20
-120.77
11
131.868
21
-121.642
0
LINE
8
BLACK
6
CONTINUOUS
10
131.868
20
-121.642
11
131.868
21
-121.666
0
LINE
8
BLACK
6
CONTINUOUS
10
131.868
20
-121.666
11
131.784
21
-122.538
0
LINE
8
BLACK
6
CONTINUOUS
10
131.784
20
-122.538
11
131.538
21
-123.379
0
LINE
8
BLACK
6
CONTINUOUS
10
131.334
20
-120.034
11
130.951
21
-119.292
0
LINE
8
BLACK
6
CONTINUOUS
10
130.951
20
-119.292
11
130.436
21
-118.636
0
LINE
8
BLACK
6
CONTINUOUS
10
130.436
20
-118.636
11
129.805
21
-118.089
0
LINE
8
BLACK
6
CONTINUOUS
10
129.805
20
-118.089
11
129.083
21
-117.671
0
LINE
8
BLACK
6
CONTINUOUS
10
129.083
20
-117.671
11
128.295
21
-117.397
0
LINE
8
BLACK
6
CONTINUOUS
10
128.295
20
-117.397
11
127.469
21
-117.278
0
LINE
8
BLACK
6
CONTINUOUS
10
127.469
20
-117.278
11
126.635
21
-117.316
0
LINE
8
BLACK
6
CONTINUOUS
10
126.635
20
-117.316
11
125.824
21
-117.512
0
LINE
8
BLACK
6
CONTINUOUS
10
125.824
20
-117.512
11
125.064
21
-117.857
0
LINE
8
BLACK
6
CONTINUOUS
10
125.064
20
-117.857
11
124.383
21
-118.34
0
LINE
8
BLACK
6
CONTINUOUS
10
124.383
20
-118.34
11
123.806
21
-118.943
0
LINE
8
BLACK
6
CONTINUOUS
10
123.806
20
-118.943
11
123.353
21
-119.644
0
LINE
8
BLACK
6
CONTINUOUS
10
123.353
20
-119.644
11
123.041
21
-120.418
0
LINE
8
BLACK
6
CONTINUOUS
10
123.041
20
-120.418
11
122.881
21
-121.237
0
LINE
8
BLACK
6
CONTINUOUS
10
122.881
20
-121.237
11
122.879
21
-122.072
0
LINE
8
BLACK
6
CONTINUOUS
10
122.879
20
-122.072
11
123.035
21
-122.892
0
LINE
8
BLACK
6
CONTINUOUS
10
123.035
20
-122.892
11
123.343
21
-123.668
0
LINE
8
BLACK
6
CONTINUOUS
10
123.343
20
-123.668
11
123.792
21
-124.371
0
LINE
8
BLACK
6
CONTINUOUS
10
123.792
20
-124.371
11
124.366
21
-124.977
0
LINE
8
BLACK
6
CONTINUOUS
10
124.366
20
-124.977
11
125.044
21
-125.463
0
LINE
8
BLACK
6
CONTINUOUS
10
125.044
20
-125.463
11
125.802
21
-125.813
0
LINE
8
BLACK
6
CONTINUOUS
10
125.802
20
-125.813
11
126.612
21
-126.013
0
LINE
8
BLACK
6
CONTINUOUS
10
126.612
20
-126.013
11
127.446
21
-126.056
0
LINE
8
BLACK
6
CONTINUOUS
10
127.446
20
-126.056
11
128.272
21
-125.94
0
LINE
8
BLACK
6
CONTINUOUS
10
128.272
20
-125.94
11
129.062
21
-125.67
0
LINE
8
BLACK
6
CONTINUOUS
10
129.062
20
-125.67
11
129.787
21
-125.256
0
LINE
8
BLACK
6
CONTINUOUS
10
129.787
20
-125.256
11
130.42
21
-124.713
0
LINE
8
BLACK
6
CONTINUOUS
10
130.42
20
-124.713
11
130.939
21
-124.059
0
LINE
8
BLACK
6
CONTINUOUS
10
130.939
20
-124.059
11
131.325
21
-123.319
0
LINE
8
BLACK
6
CONTINUOUS
10
131.325
20
-123.319
11
131.564
21
-122.519
0
LINE
8
BLACK
6
CONTINUOUS
10
131.564
20
-122.519
11
131.648
21
-121.689
0
LINE
8
BLACK
6
CONTINUOUS
10
131.648
20
-121.689
11
131.648
21
-121.666
0
LINE
8
BLACK
6
CONTINUOUS
10
131.648
20
-121.666
11
131.568
21
-120.835
0
LINE
8
BLACK
6
CONTINUOUS
10
131.568
20
-120.835
11
131.334
21
-120.034
0
LINE
8
BLACK
6
CONTINUOUS
10
111.07
20
-124.199
11
111.097
21
-124.221
0
LINE
8
BLACK
6
CONTINUOUS
10
111.097
20
-124.221
11
111.114
21
-124.251
0
LINE
8
BLACK
6
CONTINUOUS
10
111.114
20
-124.251
11
111.12
21
-124.285
0
LINE
8
BLACK
6
CONTINUOUS
10
111.12
20
-124.285
11
111.12
21
-125.041
0
LINE
8
BLACK
6
CONTINUOUS
10
111.12
20
-125.041
11
111.181
21
-125.131
0
LINE
8
BLACK
6
CONTINUOUS
10
111.181
20
-125.131
11
111.324
21
-125.185
0
LINE
8
BLACK
6
CONTINUOUS
10
111.324
20
-125.185
11
111.573
21
-125.185
0
LINE
8
BLACK
6
CONTINUOUS
10
111.573
20
-125.185
11
111.733
21
-125.125
0
LINE
8
BLACK
6
CONTINUOUS
10
111.733
20
-125.125
11
111.777
21
-125.092
0
LINE
8
BLACK
6
CONTINUOUS
10
111.777
20
-125.092
11
111.777
21
-124.285
0
LINE
8
BLACK
6
CONTINUOUS
10
111.777
20
-124.285
11
111.783
21
-124.251
0
LINE
8
BLACK
6
CONTINUOUS
10
111.783
20
-124.251
11
111.801
21
-124.221
0
LINE
8
BLACK
6
CONTINUOUS
10
111.801
20
-124.221
11
111.827
21
-124.199
0
LINE
8
BLACK
6
CONTINUOUS
10
111.827
20
-124.199
11
111.86
21
-124.187
0
LINE
8
BLACK
6
CONTINUOUS
10
111.86
20
-124.187
11
111.895
21
-124.187
0
LINE
8
BLACK
6
CONTINUOUS
10
111.895
20
-124.187
11
111.927
21
-124.199
0
LINE
8
BLACK
6
CONTINUOUS
10
111.927
20
-124.199
11
111.954
21
-124.221
0
LINE
8
BLACK
6
CONTINUOUS
10
111.954
20
-124.221
11
111.971
21
-124.251
0
LINE
8
BLACK
6
CONTINUOUS
10
111.971
20
-124.251
11
111.977
21
-124.285
0
LINE
8
BLACK
6
CONTINUOUS
10
111.977
20
-124.285
11
111.977
21
-125.285
0
LINE
8
BLACK
6
CONTINUOUS
10
111.977
20
-125.285
11
111.971
21
-125.319
0
LINE
8
BLACK
6
CONTINUOUS
10
111.971
20
-125.319
11
111.954
21
-125.349
0
LINE
8
BLACK
6
CONTINUOUS
10
111.954
20
-125.349
11
111.927
21
-125.372
0
LINE
8
BLACK
6
CONTINUOUS
10
111.927
20
-125.372
11
111.895
21
-125.384
0
LINE
8
BLACK
6
CONTINUOUS
10
111.895
20
-125.384
11
111.86
21
-125.384
0
LINE
8
BLACK
6
CONTINUOUS
10
111.86
20
-125.384
11
111.827
21
-125.372
0
LINE
8
BLACK
6
CONTINUOUS
10
111.827
20
-125.372
11
111.801
21
-125.349
0
LINE
8
BLACK
6
CONTINUOUS
10
111.801
20
-125.349
11
111.784
21
-125.32
0
LINE
8
BLACK
6
CONTINUOUS
10
111.784
20
-125.32
11
111.627
21
-125.379
0
LINE
8
BLACK
6
CONTINUOUS
10
111.627
20
-125.379
11
111.626
21
-125.379
0
LINE
8
BLACK
6
CONTINUOUS
10
111.626
20
-125.379
11
111.626
21
-125.379
0
LINE
8
BLACK
6
CONTINUOUS
10
111.626
20
-125.379
11
111.609
21
-125.382
0
LINE
8
BLACK
6
CONTINUOUS
10
111.609
20
-125.382
11
111.592
21
-125.385
0
LINE
8
BLACK
6
CONTINUOUS
10
111.592
20
-125.385
11
111.592
21
-125.385
0
LINE
8
BLACK
6
CONTINUOUS
10
111.592
20
-125.385
11
111.592
21
-125.385
0
LINE
8
BLACK
6
CONTINUOUS
10
111.592
20
-125.385
11
111.306
21
-125.385
0
LINE
8
BLACK
6
CONTINUOUS
10
111.306
20
-125.385
11
111.305
21
-125.385
0
LINE
8
BLACK
6
CONTINUOUS
10
111.305
20
-125.385
11
111.305
21
-125.385
0
LINE
8
BLACK
6
CONTINUOUS
10
111.305
20
-125.385
11
111.288
21
-125.382
0
LINE
8
BLACK
6
CONTINUOUS
10
111.288
20
-125.382
11
111.272
21
-125.379
0
LINE
8
BLACK
6
CONTINUOUS
10
111.272
20
-125.379
11
111.271
21
-125.379
0
LINE
8
BLACK
6
CONTINUOUS
10
111.271
20
-125.379
11
111.271
21
-125.379
0
LINE
8
BLACK
6
CONTINUOUS
10
111.271
20
-125.379
11
111.08
21
-125.307
0
LINE
8
BLACK
6
CONTINUOUS
10
111.08
20
-125.307
11
111.068
21
-125.3
0
LINE
8
BLACK
6
CONTINUOUS
10
111.068
20
-125.3
11
111.056
21
-125.294
0
LINE
8
BLACK
6
CONTINUOUS
10
111.056
20
-125.294
11
111.054
21
-125.292
0
LINE
8
BLACK
6
CONTINUOUS
10
111.054
20
-125.292
11
111.05
21
-125.29
0
LINE
8
BLACK
6
CONTINUOUS
10
111.05
20
-125.29
11
111.042
21
-125.279
0
LINE
8
BLACK
6
CONTINUOUS
10
111.042
20
-125.279
11
111.032
21
-125.269
0
LINE
8
BLACK
6
CONTINUOUS
10
111.032
20
-125.269
11
110.937
21
-125.126
0
LINE
8
BLACK
6
CONTINUOUS
10
110.937
20
-125.126
11
110.932
21
-125.115
0
LINE
8
BLACK
6
CONTINUOUS
10
110.932
20
-125.115
11
110.926
21
-125.105
0
LINE
8
BLACK
6
CONTINUOUS
10
110.926
20
-125.105
11
110.925
21
-125.1
0
LINE
8
BLACK
6
CONTINUOUS
10
110.925
20
-125.1
11
110.923
21
-125.095
0
LINE
8
BLACK
6
CONTINUOUS
10
110.923
20
-125.095
11
110.922
21
-125.083
0
LINE
8
BLACK
6
CONTINUOUS
10
110.922
20
-125.083
11
110.92
21
-125.071
0
LINE
8
BLACK
6
CONTINUOUS
10
110.92
20
-125.071
11
110.92
21
-124.285
0
LINE
8
BLACK
6
CONTINUOUS
10
110.92
20
-124.285
11
110.926
21
-124.251
0
LINE
8
BLACK
6
CONTINUOUS
10
110.926
20
-124.251
11
110.943
21
-124.221
0
LINE
8
BLACK
6
CONTINUOUS
10
110.943
20
-124.221
11
110.97
21
-124.199
0
LINE
8
BLACK
6
CONTINUOUS
10
110.97
20
-124.199
11
111.003
21
-124.187
0
LINE
8
BLACK
6
CONTINUOUS
10
111.003
20
-124.187
11
111.037
21
-124.187
0
LINE
8
BLACK
6
CONTINUOUS
10
111.037
20
-124.187
11
111.07
21
-124.199
0
LINE
8
BLACK
6
CONTINUOUS
10
108.118
20
-123.699
11
108.144
21
-123.721
0
LINE
8
BLACK
6
CONTINUOUS
10
108.144
20
-123.721
11
108.162
21
-123.751
0
LINE
8
BLACK
6
CONTINUOUS
10
108.162
20
-123.751
11
108.168
21
-123.785
0
LINE
8
BLACK
6
CONTINUOUS
10
108.168
20
-123.785
11
108.168
21
-124.185
0
LINE
8
BLACK
6
CONTINUOUS
10
108.168
20
-124.185
11
108.544
21
-124.185
0
LINE
8
BLACK
6
CONTINUOUS
10
108.544
20
-124.185
11
108.578
21
-124.191
0
LINE
8
BLACK
6
CONTINUOUS
10
108.578
20
-124.191
11
108.608
21
-124.209
0
LINE
8
BLACK
6
CONTINUOUS
10
108.608
20
-124.209
11
108.63
21
-124.235
0
LINE
8
BLACK
6
CONTINUOUS
10
108.63
20
-124.235
11
108.642
21
-124.268
0
LINE
8
BLACK
6
CONTINUOUS
10
108.642
20
-124.268
11
108.642
21
-124.303
0
LINE
8
BLACK
6
CONTINUOUS
10
108.642
20
-124.303
11
108.63
21
-124.335
0
LINE
8
BLACK
6
CONTINUOUS
10
108.63
20
-124.335
11
108.608
21
-124.362
0
LINE
8
BLACK
6
CONTINUOUS
10
108.608
20
-124.362
11
108.578
21
-124.379
0
LINE
8
BLACK
6
CONTINUOUS
10
108.578
20
-124.379
11
108.544
21
-124.385
0
LINE
8
BLACK
6
CONTINUOUS
10
108.544
20
-124.385
11
108.168
21
-124.385
0
LINE
8
BLACK
6
CONTINUOUS
10
108.168
20
-124.385
11
108.168
21
-125.041
0
LINE
8
BLACK
6
CONTINUOUS
10
108.168
20
-125.041
11
108.228
21
-125.131
0
LINE
8
BLACK
6
CONTINUOUS
10
108.228
20
-125.131
11
108.372
21
-125.185
0
LINE
8
BLACK
6
CONTINUOUS
10
108.372
20
-125.185
11
108.544
21
-125.185
0
LINE
8
BLACK
6
CONTINUOUS
10
108.544
20
-125.185
11
108.578
21
-125.191
0
LINE
8
BLACK
6
CONTINUOUS
10
108.578
20
-125.191
11
108.608
21
-125.209
0
LINE
8
BLACK
6
CONTINUOUS
10
108.608
20
-125.209
11
108.63
21
-125.235
0
LINE
8
BLACK
6
CONTINUOUS
10
108.63
20
-125.235
11
108.642
21
-125.268
0
LINE
8
BLACK
6
CONTINUOUS
10
108.642
20
-125.268
11
108.642
21
-125.303
0
LINE
8
BLACK
6
CONTINUOUS
10
108.642
20
-125.303
11
108.63
21
-125.335
0
LINE
8
BLACK
6
CONTINUOUS
10
108.63
20
-125.335
11
108.608
21
-125.362
0
LINE
8
BLACK
6
CONTINUOUS
10
108.608
20
-125.362
11
108.578
21
-125.379
0
LINE
8
BLACK
6
CONTINUOUS
10
108.578
20
-125.379
11
108.544
21
-125.385
0
LINE
8
BLACK
6
CONTINUOUS
10
108.544
20
-125.385
11
108.353
21
-125.385
0
LINE
8
BLACK
6
CONTINUOUS
10
108.353
20
-125.385
11
108.353
21
-125.385
0
LINE
8
BLACK
6
CONTINUOUS
10
108.353
20
-125.385
11
108.352
21
-125.385
0
LINE
8
BLACK
6
CONTINUOUS
10
108.352
20
-125.385
11
108.336
21
-125.382
0
LINE
8
BLACK
6
CONTINUOUS
10
108.336
20
-125.382
11
108.319
21
-125.379
0
LINE
8
BLACK
6
CONTINUOUS
10
108.319
20
-125.379
11
108.319
21
-125.379
0
LINE
8
BLACK
6
CONTINUOUS
10
108.319
20
-125.379
11
108.318
21
-125.379
0
LINE
8
BLACK
6
CONTINUOUS
10
108.318
20
-125.379
11
108.128
21
-125.307
0
LINE
8
BLACK
6
CONTINUOUS
10
108.128
20
-125.307
11
108.116
21
-125.3
0
LINE
8
BLACK
6
CONTINUOUS
10
108.116
20
-125.3
11
108.104
21
-125.294
0
LINE
8
BLACK
6
CONTINUOUS
10
108.104
20
-125.294
11
108.101
21
-125.292
0
LINE
8
BLACK
6
CONTINUOUS
10
108.101
20
-125.292
11
108.098
21
-125.29
0
LINE
8
BLACK
6
CONTINUOUS
10
108.098
20
-125.29
11
108.089
21
-125.279
0
LINE
8
BLACK
6
CONTINUOUS
10
108.089
20
-125.279
11
108.08
21
-125.269
0
LINE
8
BLACK
6
CONTINUOUS
10
108.08
20
-125.269
11
107.984
21
-125.126
0
LINE
8
BLACK
6
CONTINUOUS
10
107.984
20
-125.126
11
107.98
21
-125.115
0
LINE
8
BLACK
6
CONTINUOUS
10
107.98
20
-125.115
11
107.974
21
-125.105
0
LINE
8
BLACK
6
CONTINUOUS
10
107.974
20
-125.105
11
107.973
21
-125.1
0
LINE
8
BLACK
6
CONTINUOUS
10
107.973
20
-125.1
11
107.971
21
-125.095
0
LINE
8
BLACK
6
CONTINUOUS
10
107.971
20
-125.095
11
107.97
21
-125.083
0
LINE
8
BLACK
6
CONTINUOUS
10
107.97
20
-125.083
11
107.968
21
-125.071
0
LINE
8
BLACK
6
CONTINUOUS
10
107.968
20
-125.071
11
107.968
21
-124.385
0
LINE
8
BLACK
6
CONTINUOUS
10
107.968
20
-124.385
11
107.782
21
-124.385
0
LINE
8
BLACK
6
CONTINUOUS
10
107.782
20
-124.385
11
107.748
21
-124.379
0
LINE
8
BLACK
6
CONTINUOUS
10
107.748
20
-124.379
11
107.718
21
-124.362
0
LINE
8
BLACK
6
CONTINUOUS
10
107.718
20
-124.362
11
107.695
21
-124.335
0
LINE
8
BLACK
6
CONTINUOUS
10
107.695
20
-124.335
11
107.683
21
-124.303
0
LINE
8
BLACK
6
CONTINUOUS
10
107.683
20
-124.303
11
107.683
21
-124.268
0
LINE
8
BLACK
6
CONTINUOUS
10
107.683
20
-124.268
11
107.695
21
-124.235
0
LINE
8
BLACK
6
CONTINUOUS
10
107.695
20
-124.235
11
107.718
21
-124.209
0
LINE
8
BLACK
6
CONTINUOUS
10
107.718
20
-124.209
11
107.748
21
-124.191
0
LINE
8
BLACK
6
CONTINUOUS
10
107.748
20
-124.191
11
107.782
21
-124.185
0
LINE
8
BLACK
6
CONTINUOUS
10
107.782
20
-124.185
11
107.968
21
-124.185
0
LINE
8
BLACK
6
CONTINUOUS
10
107.968
20
-124.185
11
107.968
21
-123.785
0
LINE
8
BLACK
6
CONTINUOUS
10
107.968
20
-123.785
11
107.974
21
-123.751
0
LINE
8
BLACK
6
CONTINUOUS
10
107.974
20
-123.751
11
107.991
21
-123.721
0
LINE
8
BLACK
6
CONTINUOUS
10
107.991
20
-123.721
11
108.018
21
-123.699
0
LINE
8
BLACK
6
CONTINUOUS
10
108.018
20
-123.699
11
108.05
21
-123.687
0
LINE
8
BLACK
6
CONTINUOUS
10
108.05
20
-123.687
11
108.085
21
-123.687
0
LINE
8
BLACK
6
CONTINUOUS
10
108.085
20
-123.687
11
108.118
21
-123.699
0
LINE
8
BLACK
6
CONTINUOUS
10
113.737
20
-123.699
11
113.763
21
-123.721
0
LINE
8
BLACK
6
CONTINUOUS
10
113.763
20
-123.721
11
113.781
21
-123.751
0
LINE
8
BLACK
6
CONTINUOUS
10
113.781
20
-123.751
11
113.787
21
-123.785
0
LINE
8
BLACK
6
CONTINUOUS
10
113.787
20
-123.785
11
113.787
21
-125.285
0
LINE
8
BLACK
6
CONTINUOUS
10
113.787
20
-125.285
11
113.781
21
-125.319
0
LINE
8
BLACK
6
CONTINUOUS
10
113.781
20
-125.319
11
113.763
21
-125.349
0
LINE
8
BLACK
6
CONTINUOUS
10
113.763
20
-125.349
11
113.737
21
-125.372
0
LINE
8
BLACK
6
CONTINUOUS
10
113.737
20
-125.372
11
113.704
21
-125.384
0
LINE
8
BLACK
6
CONTINUOUS
10
113.704
20
-125.384
11
113.669
21
-125.384
0
LINE
8
BLACK
6
CONTINUOUS
10
113.669
20
-125.384
11
113.637
21
-125.372
0
LINE
8
BLACK
6
CONTINUOUS
10
113.637
20
-125.372
11
113.61
21
-125.349
0
LINE
8
BLACK
6
CONTINUOUS
10
113.61
20
-125.349
11
113.61
21
-125.349
0
LINE
8
BLACK
6
CONTINUOUS
10
113.61
20
-125.349
11
113.531
21
-125.379
0
LINE
8
BLACK
6
CONTINUOUS
10
113.531
20
-125.379
11
113.531
21
-125.379
0
LINE
8
BLACK
6
CONTINUOUS
10
113.531
20
-125.379
11
113.53
21
-125.379
0
LINE
8
BLACK
6
CONTINUOUS
10
113.53
20
-125.379
11
113.514
21
-125.382
0
LINE
8
BLACK
6
CONTINUOUS
10
113.514
20
-125.382
11
113.497
21
-125.385
0
LINE
8
BLACK
6
CONTINUOUS
10
113.497
20
-125.385
11
113.497
21
-125.385
0
LINE
8
BLACK
6
CONTINUOUS
10
113.497
20
-125.385
11
113.496
21
-125.385
0
LINE
8
BLACK
6
CONTINUOUS
10
113.496
20
-125.385
11
113.115
21
-125.385
0
LINE
8
BLACK
6
CONTINUOUS
10
113.115
20
-125.385
11
113.115
21
-125.385
0
LINE
8
BLACK
6
CONTINUOUS
10
113.115
20
-125.385
11
113.114
21
-125.385
0
LINE
8
BLACK
6
CONTINUOUS
10
113.114
20
-125.385
11
113.098
21
-125.382
0
LINE
8
BLACK
6
CONTINUOUS
10
113.098
20
-125.382
11
113.081
21
-125.379
0
LINE
8
BLACK
6
CONTINUOUS
10
113.081
20
-125.379
11
113.081
21
-125.379
0
LINE
8
BLACK
6
CONTINUOUS
10
113.081
20
-125.379
11
113.08
21
-125.379
0
LINE
8
BLACK
6
CONTINUOUS
10
113.08
20
-125.379
11
112.89
21
-125.307
0
LINE
8
BLACK
6
CONTINUOUS
10
112.89
20
-125.307
11
112.877
21
-125.3
0
LINE
8
BLACK
6
CONTINUOUS
10
112.877
20
-125.3
11
112.865
21
-125.294
0
LINE
8
BLACK
6
CONTINUOUS
10
112.865
20
-125.294
11
112.77
21
-125.222
0
LINE
8
BLACK
6
CONTINUOUS
10
112.77
20
-125.222
11
112.758
21
-125.21
0
LINE
8
BLACK
6
CONTINUOUS
10
112.758
20
-125.21
11
112.746
21
-125.198
0
LINE
8
BLACK
6
CONTINUOUS
10
112.746
20
-125.198
11
112.651
21
-125.055
0
LINE
8
BLACK
6
CONTINUOUS
10
112.651
20
-125.055
11
112.646
21
-125.044
0
LINE
8
BLACK
6
CONTINUOUS
10
112.646
20
-125.044
11
112.64
21
-125.034
0
LINE
8
BLACK
6
CONTINUOUS
10
112.64
20
-125.034
11
112.639
21
-125.028
0
LINE
8
BLACK
6
CONTINUOUS
10
112.639
20
-125.028
11
112.637
21
-125.023
0
LINE
8
BLACK
6
CONTINUOUS
10
112.637
20
-125.023
11
112.636
21
-125.011
0
LINE
8
BLACK
6
CONTINUOUS
10
112.636
20
-125.011
11
112.634
21
-124.999
0
LINE
8
BLACK
6
CONTINUOUS
10
112.634
20
-124.999
11
112.634
21
-124.571
0
LINE
8
BLACK
6
CONTINUOUS
10
112.634
20
-124.571
11
112.636
21
-124.559
0
LINE
8
BLACK
6
CONTINUOUS
10
112.636
20
-124.559
11
112.637
21
-124.547
0
LINE
8
BLACK
6
CONTINUOUS
10
112.637
20
-124.547
11
112.639
21
-124.542
0
LINE
8
BLACK
6
CONTINUOUS
10
112.639
20
-124.542
11
112.64
21
-124.537
0
LINE
8
BLACK
6
CONTINUOUS
10
112.64
20
-124.537
11
112.646
21
-124.526
0
LINE
8
BLACK
6
CONTINUOUS
10
112.646
20
-124.526
11
112.651
21
-124.515
0
LINE
8
BLACK
6
CONTINUOUS
10
112.651
20
-124.515
11
112.746
21
-124.373
0
LINE
8
BLACK
6
CONTINUOUS
10
112.746
20
-124.373
11
112.758
21
-124.36
0
LINE
8
BLACK
6
CONTINUOUS
10
112.758
20
-124.36
11
112.77
21
-124.348
0
LINE
8
BLACK
6
CONTINUOUS
10
112.77
20
-124.348
11
112.865
21
-124.277
0
LINE
8
BLACK
6
CONTINUOUS
10
112.865
20
-124.277
11
112.877
21
-124.27
0
LINE
8
BLACK
6
CONTINUOUS
10
112.877
20
-124.27
11
112.89
21
-124.263
0
LINE
8
BLACK
6
CONTINUOUS
10
112.89
20
-124.263
11
113.08
21
-124.192
0
LINE
8
BLACK
6
CONTINUOUS
10
113.08
20
-124.192
11
113.081
21
-124.191
0
LINE
8
BLACK
6
CONTINUOUS
10
113.081
20
-124.191
11
113.081
21
-124.191
0
LINE
8
BLACK
6
CONTINUOUS
10
113.081
20
-124.191
11
113.098
21
-124.188
0
LINE
8
BLACK
6
CONTINUOUS
10
113.098
20
-124.188
11
113.114
21
-124.185
0
LINE
8
BLACK
6
CONTINUOUS
10
113.114
20
-124.185
11
113.115
21
-124.185
0
LINE
8
BLACK
6
CONTINUOUS
10
113.115
20
-124.185
11
113.115
21
-124.185
0
LINE
8
BLACK
6
CONTINUOUS
10
113.115
20
-124.185
11
113.496
21
-124.185
0
LINE
8
BLACK
6
CONTINUOUS
10
113.496
20
-124.185
11
113.497
21
-124.185
0
LINE
8
BLACK
6
CONTINUOUS
10
113.497
20
-124.185
11
113.497
21
-124.185
0
LINE
8
BLACK
6
CONTINUOUS
10
113.497
20
-124.185
11
113.514
21
-124.188
0
LINE
8
BLACK
6
CONTINUOUS
10
113.514
20
-124.188
11
113.53
21
-124.191
0
LINE
8
BLACK
6
CONTINUOUS
10
113.53
20
-124.191
11
113.531
21
-124.191
0
LINE
8
BLACK
6
CONTINUOUS
10
113.531
20
-124.191
11
113.531
21
-124.192
0
LINE
8
BLACK
6
CONTINUOUS
10
113.531
20
-124.192
11
113.587
21
-124.212
0
LINE
8
BLACK
6
CONTINUOUS
10
113.587
20
-124.212
11
113.587
21
-123.785
0
LINE
8
BLACK
6
CONTINUOUS
10
113.587
20
-123.785
11
113.593
21
-123.751
0
LINE
8
BLACK
6
CONTINUOUS
10
113.593
20
-123.751
11
113.61
21
-123.721
0
LINE
8
BLACK
6
CONTINUOUS
10
113.61
20
-123.721
11
113.637
21
-123.699
0
LINE
8
BLACK
6
CONTINUOUS
10
113.637
20
-123.699
11
113.669
21
-123.687
0
LINE
8
BLACK
6
CONTINUOUS
10
113.669
20
-123.687
11
113.704
21
-123.687
0
LINE
8
BLACK
6
CONTINUOUS
10
113.704
20
-123.687
11
113.737
21
-123.699
0
LINE
8
BLACK
6
CONTINUOUS
10
113.133
20
-124.385
11
112.973
21
-124.445
0
LINE
8
BLACK
6
CONTINUOUS
10
112.973
20
-124.445
11
112.903
21
-124.498
0
LINE
8
BLACK
6
CONTINUOUS
10
112.903
20
-124.498
11
112.834
21
-124.601
0
LINE
8
BLACK
6
CONTINUOUS
10
112.834
20
-124.601
11
112.834
21
-124.969
0
LINE
8
BLACK
6
CONTINUOUS
10
112.834
20
-124.969
11
112.903
21
-125.073
0
LINE
8
BLACK
6
CONTINUOUS
10
112.903
20
-125.073
11
112.973
21
-125.125
0
LINE
8
BLACK
6
CONTINUOUS
10
112.973
20
-125.125
11
113.133
21
-125.185
0
LINE
8
BLACK
6
CONTINUOUS
10
113.133
20
-125.185
11
113.478
21
-125.185
0
LINE
8
BLACK
6
CONTINUOUS
10
113.478
20
-125.185
11
113.587
21
-125.144
0
LINE
8
BLACK
6
CONTINUOUS
10
113.587
20
-125.144
11
113.587
21
-124.426
0
LINE
8
BLACK
6
CONTINUOUS
10
113.587
20
-124.426
11
113.478
21
-124.385
0
LINE
8
BLACK
6
CONTINUOUS
10
113.478
20
-124.385
11
113.133
21
-124.385
0
LINE
8
BLACK
6
CONTINUOUS
10
105.782
20
-124.185
11
105.783
21
-124.185
0
LINE
8
BLACK
6
CONTINUOUS
10
105.783
20
-124.185
11
105.8
21
-124.188
0
LINE
8
BLACK
6
CONTINUOUS
10
105.8
20
-124.188
11
105.816
21
-124.191
0
LINE
8
BLACK
6
CONTINUOUS
10
105.816
20
-124.191
11
105.817
21
-124.191
0
LINE
8
BLACK
6
CONTINUOUS
10
105.817
20
-124.191
11
105.817
21
-124.192
0
LINE
8
BLACK
6
CONTINUOUS
10
105.817
20
-124.192
11
106.008
21
-124.263
0
LINE
8
BLACK
6
CONTINUOUS
10
106.008
20
-124.263
11
106.019
21
-124.27
0
LINE
8
BLACK
6
CONTINUOUS
10
106.019
20
-124.27
11
106.032
21
-124.276
0
LINE
8
BLACK
6
CONTINUOUS
10
106.032
20
-124.276
11
106.034
21
-124.279
0
LINE
8
BLACK
6
CONTINUOUS
10
106.034
20
-124.279
11
106.037
21
-124.281
0
LINE
8
BLACK
6
CONTINUOUS
10
106.037
20
-124.281
11
106.046
21
-124.291
0
LINE
8
BLACK
6
CONTINUOUS
10
106.046
20
-124.291
11
106.056
21
-124.301
0
LINE
8
BLACK
6
CONTINUOUS
10
106.056
20
-124.301
11
106.151
21
-124.444
0
LINE
8
BLACK
6
CONTINUOUS
10
106.151
20
-124.444
11
106.156
21
-124.455
0
LINE
8
BLACK
6
CONTINUOUS
10
106.156
20
-124.455
11
106.162
21
-124.465
0
LINE
8
BLACK
6
CONTINUOUS
10
106.162
20
-124.465
11
106.163
21
-124.471
0
LINE
8
BLACK
6
CONTINUOUS
10
106.163
20
-124.471
11
106.165
21
-124.476
0
LINE
8
BLACK
6
CONTINUOUS
10
106.165
20
-124.476
11
106.166
21
-124.488
0
LINE
8
BLACK
6
CONTINUOUS
10
106.166
20
-124.488
11
106.168
21
-124.499
0
LINE
8
BLACK
6
CONTINUOUS
10
106.168
20
-124.499
11
106.168
21
-124.642
0
LINE
8
BLACK
6
CONTINUOUS
10
106.168
20
-124.642
11
106.167
21
-124.644
0
LINE
8
BLACK
6
CONTINUOUS
10
106.167
20
-124.644
11
106.168
21
-124.645
0
LINE
8
BLACK
6
CONTINUOUS
10
106.168
20
-124.645
11
106.164
21
-124.661
0
LINE
8
BLACK
6
CONTINUOUS
10
106.164
20
-124.661
11
106.162
21
-124.677
0
LINE
8
BLACK
6
CONTINUOUS
10
106.162
20
-124.677
11
106.161
21
-124.678
0
LINE
8
BLACK
6
CONTINUOUS
10
106.161
20
-124.678
11
106.161
21
-124.679
0
LINE
8
BLACK
6
CONTINUOUS
10
106.161
20
-124.679
11
106.152
21
-124.693
0
LINE
8
BLACK
6
CONTINUOUS
10
106.152
20
-124.693
11
106.144
21
-124.707
0
LINE
8
BLACK
6
CONTINUOUS
10
106.144
20
-124.707
11
106.143
21
-124.707
0
LINE
8
BLACK
6
CONTINUOUS
10
106.143
20
-124.707
11
106.143
21
-124.709
0
LINE
8
BLACK
6
CONTINUOUS
10
106.143
20
-124.709
11
106.13
21
-124.719
0
LINE
8
BLACK
6
CONTINUOUS
10
106.13
20
-124.719
11
106.118
21
-124.729
0
LINE
8
BLACK
6
CONTINUOUS
10
106.118
20
-124.729
11
106.116
21
-124.729
0
LINE
8
BLACK
6
CONTINUOUS
10
106.116
20
-124.729
11
106.115
21
-124.73
0
LINE
8
BLACK
6
CONTINUOUS
10
106.115
20
-124.73
11
106.1
21
-124.735
0
LINE
8
BLACK
6
CONTINUOUS
10
106.1
20
-124.735
11
106.085
21
-124.741
0
LINE
8
BLACK
6
CONTINUOUS
10
106.085
20
-124.741
11
106.084
21
-124.741
0
LINE
8
BLACK
6
CONTINUOUS
10
106.084
20
-124.741
11
106.083
21
-124.741
0
LINE
8
BLACK
6
CONTINUOUS
10
106.083
20
-124.741
11
105.215
21
-124.871
0
LINE
8
BLACK
6
CONTINUOUS
10
105.215
20
-124.871
11
105.215
21
-125.041
0
LINE
8
BLACK
6
CONTINUOUS
10
105.215
20
-125.041
11
105.276
21
-125.131
0
LINE
8
BLACK
6
CONTINUOUS
10
105.276
20
-125.131
11
105.419
21
-125.185
0
LINE
8
BLACK
6
CONTINUOUS
10
105.419
20
-125.185
11
105.764
21
-125.185
0
LINE
8
BLACK
6
CONTINUOUS
10
105.764
20
-125.185
11
105.937
21
-125.12
0
LINE
8
BLACK
6
CONTINUOUS
10
105.937
20
-125.12
11
105.971
21
-125.114
0
LINE
8
BLACK
6
CONTINUOUS
10
105.971
20
-125.114
11
106.006
21
-125.119
0
LINE
8
BLACK
6
CONTINUOUS
10
106.006
20
-125.119
11
106.036
21
-125.137
0
LINE
8
BLACK
6
CONTINUOUS
10
106.036
20
-125.137
11
106.059
21
-125.163
0
LINE
8
BLACK
6
CONTINUOUS
10
106.059
20
-125.163
11
106.071
21
-125.195
0
LINE
8
BLACK
6
CONTINUOUS
10
106.071
20
-125.195
11
106.071
21
-125.23
0
LINE
8
BLACK
6
CONTINUOUS
10
106.071
20
-125.23
11
106.06
21
-125.263
0
LINE
8
BLACK
6
CONTINUOUS
10
106.06
20
-125.263
11
106.037
21
-125.29
0
LINE
8
BLACK
6
CONTINUOUS
10
106.037
20
-125.29
11
106.008
21
-125.307
0
LINE
8
BLACK
6
CONTINUOUS
10
106.008
20
-125.307
11
105.817
21
-125.379
0
LINE
8
BLACK
6
CONTINUOUS
10
105.817
20
-125.379
11
105.817
21
-125.379
0
LINE
8
BLACK
6
CONTINUOUS
10
105.817
20
-125.379
11
105.816
21
-125.379
0
LINE
8
BLACK
6
CONTINUOUS
10
105.816
20
-125.379
11
105.8
21
-125.382
0
LINE
8
BLACK
6
CONTINUOUS
10
105.8
20
-125.382
11
105.783
21
-125.385
0
LINE
8
BLACK
6
CONTINUOUS
10
105.783
20
-125.385
11
105.782
21
-125.385
0
LINE
8
BLACK
6
CONTINUOUS
10
105.782
20
-125.385
11
105.782
21
-125.385
0
LINE
8
BLACK
6
CONTINUOUS
10
105.782
20
-125.385
11
105.401
21
-125.385
0
LINE
8
BLACK
6
CONTINUOUS
10
105.401
20
-125.385
11
105.401
21
-125.385
0
LINE
8
BLACK
6
CONTINUOUS
10
105.401
20
-125.385
11
105.4
21
-125.385
0
LINE
8
BLACK
6
CONTINUOUS
10
105.4
20
-125.385
11
105.383
21
-125.382
0
LINE
8
BLACK
6
CONTINUOUS
10
105.383
20
-125.382
11
105.367
21
-125.379
0
LINE
8
BLACK
6
CONTINUOUS
10
105.367
20
-125.379
11
105.366
21
-125.379
0
LINE
8
BLACK
6
CONTINUOUS
10
105.366
20
-125.379
11
105.366
21
-125.379
0
LINE
8
BLACK
6
CONTINUOUS
10
105.366
20
-125.379
11
105.175
21
-125.307
0
LINE
8
BLACK
6
CONTINUOUS
10
105.175
20
-125.307
11
105.164
21
-125.3
0
LINE
8
BLACK
6
CONTINUOUS
10
105.164
20
-125.3
11
105.151
21
-125.294
0
LINE
8
BLACK
6
CONTINUOUS
10
105.151
20
-125.294
11
105.149
21
-125.292
0
LINE
8
BLACK
6
CONTINUOUS
10
105.149
20
-125.292
11
105.146
21
-125.29
0
LINE
8
BLACK
6
CONTINUOUS
10
105.146
20
-125.29
11
105.137
21
-125.279
0
LINE
8
BLACK
6
CONTINUOUS
10
105.137
20
-125.279
11
105.127
21
-125.269
0
LINE
8
BLACK
6
CONTINUOUS
10
105.127
20
-125.269
11
105.032
21
-125.126
0
LINE
8
BLACK
6
CONTINUOUS
10
105.032
20
-125.126
11
105.027
21
-125.115
0
LINE
8
BLACK
6
CONTINUOUS
10
105.027
20
-125.115
11
105.021
21
-125.105
0
LINE
8
BLACK
6
CONTINUOUS
10
105.021
20
-125.105
11
105.02
21
-125.1
0
LINE
8
BLACK
6
CONTINUOUS
10
105.02
20
-125.1
11
105.018
21
-125.095
0
LINE
8
BLACK
6
CONTINUOUS
10
105.018
20
-125.095
11
105.017
21
-125.083
0
LINE
8
BLACK
6
CONTINUOUS
10
105.017
20
-125.083
11
105.015
21
-125.071
0
LINE
8
BLACK
6
CONTINUOUS
10
105.015
20
-125.071
11
105.015
21
-124.499
0
LINE
8
BLACK
6
CONTINUOUS
10
105.015
20
-124.499
11
105.017
21
-124.488
0
LINE
8
BLACK
6
CONTINUOUS
10
105.017
20
-124.488
11
105.018
21
-124.476
0
LINE
8
BLACK
6
CONTINUOUS
10
105.018
20
-124.476
11
105.02
21
-124.471
0
LINE
8
BLACK
6
CONTINUOUS
10
105.02
20
-124.471
11
105.021
21
-124.465
0
LINE
8
BLACK
6
CONTINUOUS
10
105.021
20
-124.465
11
105.027
21
-124.455
0
LINE
8
BLACK
6
CONTINUOUS
10
105.027
20
-124.455
11
105.032
21
-124.444
0
LINE
8
BLACK
6
CONTINUOUS
10
105.032
20
-124.444
11
105.127
21
-124.301
0
LINE
8
BLACK
6
CONTINUOUS
10
105.127
20
-124.301
11
105.137
21
-124.291
0
LINE
8
BLACK
6
CONTINUOUS
10
105.137
20
-124.291
11
105.146
21
-124.281
0
LINE
8
BLACK
6
CONTINUOUS
10
105.146
20
-124.281
11
105.149
21
-124.279
0
LINE
8
BLACK
6
CONTINUOUS
10
105.149
20
-124.279
11
105.151
21
-124.276
0
LINE
8
BLACK
6
CONTINUOUS
10
105.151
20
-124.276
11
105.164
21
-124.27
0
LINE
8
BLACK
6
CONTINUOUS
10
105.164
20
-124.27
11
105.175
21
-124.263
0
LINE
8
BLACK
6
CONTINUOUS
10
105.175
20
-124.263
11
105.366
21
-124.192
0
LINE
8
BLACK
6
CONTINUOUS
10
105.366
20
-124.192
11
105.366
21
-124.191
0
LINE
8
BLACK
6
CONTINUOUS
10
105.366
20
-124.191
11
105.367
21
-124.191
0
LINE
8
BLACK
6
CONTINUOUS
10
105.367
20
-124.191
11
105.383
21
-124.188
0
LINE
8
BLACK
6
CONTINUOUS
10
105.383
20
-124.188
11
105.4
21
-124.185
0
LINE
8
BLACK
6
CONTINUOUS
10
105.4
20
-124.185
11
105.401
21
-124.185
0
LINE
8
BLACK
6
CONTINUOUS
10
105.401
20
-124.185
11
105.401
21
-124.185
0
LINE
8
BLACK
6
CONTINUOUS
10
105.401
20
-124.185
11
105.782
21
-124.185
0
LINE
8
BLACK
6
CONTINUOUS
10
105.782
20
-124.185
11
105.782
21
-124.185
0
LINE
8
BLACK
6
CONTINUOUS
10
105.419
20
-124.385
11
105.276
21
-124.439
0
LINE
8
BLACK
6
CONTINUOUS
10
105.276
20
-124.439
11
105.215
21
-124.53
0
LINE
8
BLACK
6
CONTINUOUS
10
105.215
20
-124.53
11
105.215
21
-124.669
0
LINE
8
BLACK
6
CONTINUOUS
10
105.215
20
-124.669
11
105.968
21
-124.556
0
LINE
8
BLACK
6
CONTINUOUS
10
105.968
20
-124.556
11
105.968
21
-124.53
0
LINE
8
BLACK
6
CONTINUOUS
10
105.968
20
-124.53
11
105.907
21
-124.439
0
LINE
8
BLACK
6
CONTINUOUS
10
105.907
20
-124.439
11
105.764
21
-124.385
0
LINE
8
BLACK
6
CONTINUOUS
10
105.764
20
-124.385
11
105.419
21
-124.385
0
LINE
8
BLACK
6
CONTINUOUS
10
116.163
20
-124.185
11
116.164
21
-124.185
0
LINE
8
BLACK
6
CONTINUOUS
10
116.164
20
-124.185
11
116.181
21
-124.188
0
LINE
8
BLACK
6
CONTINUOUS
10
116.181
20
-124.188
11
116.197
21
-124.191
0
LINE
8
BLACK
6
CONTINUOUS
10
116.197
20
-124.191
11
116.198
21
-124.191
0
LINE
8
BLACK
6
CONTINUOUS
10
116.198
20
-124.191
11
116.198
21
-124.192
0
LINE
8
BLACK
6
CONTINUOUS
10
116.198
20
-124.192
11
116.389
21
-124.263
0
LINE
8
BLACK
6
CONTINUOUS
10
116.389
20
-124.263
11
116.401
21
-124.27
0
LINE
8
BLACK
6
CONTINUOUS
10
116.401
20
-124.27
11
116.413
21
-124.277
0
LINE
8
BLACK
6
CONTINUOUS
10
116.413
20
-124.277
11
116.509
21
-124.348
0
LINE
8
BLACK
6
CONTINUOUS
10
116.509
20
-124.348
11
116.52
21
-124.36
0
LINE
8
BLACK
6
CONTINUOUS
10
116.52
20
-124.36
11
116.532
21
-124.373
0
LINE
8
BLACK
6
CONTINUOUS
10
116.532
20
-124.373
11
116.627
21
-124.515
0
LINE
8
BLACK
6
CONTINUOUS
10
116.627
20
-124.515
11
116.632
21
-124.526
0
LINE
8
BLACK
6
CONTINUOUS
10
116.632
20
-124.526
11
116.638
21
-124.537
0
LINE
8
BLACK
6
CONTINUOUS
10
116.638
20
-124.537
11
116.639
21
-124.542
0
LINE
8
BLACK
6
CONTINUOUS
10
116.639
20
-124.542
11
116.641
21
-124.547
0
LINE
8
BLACK
6
CONTINUOUS
10
116.641
20
-124.547
11
116.642
21
-124.559
0
LINE
8
BLACK
6
CONTINUOUS
10
116.642
20
-124.559
11
116.644
21
-124.571
0
LINE
8
BLACK
6
CONTINUOUS
10
116.644
20
-124.571
11
116.644
21
-124.999
0
LINE
8
BLACK
6
CONTINUOUS
10
116.644
20
-124.999
11
116.642
21
-125.011
0
LINE
8
BLACK
6
CONTINUOUS
10
116.642
20
-125.011
11
116.641
21
-125.023
0
LINE
8
BLACK
6
CONTINUOUS
10
116.641
20
-125.023
11
116.639
21
-125.028
0
LINE
8
BLACK
6
CONTINUOUS
10
116.639
20
-125.028
11
116.638
21
-125.034
0
LINE
8
BLACK
6
CONTINUOUS
10
116.638
20
-125.034
11
116.632
21
-125.044
0
LINE
8
BLACK
6
CONTINUOUS
10
116.632
20
-125.044
11
116.627
21
-125.055
0
LINE
8
BLACK
6
CONTINUOUS
10
116.627
20
-125.055
11
116.532
21
-125.198
0
LINE
8
BLACK
6
CONTINUOUS
10
116.532
20
-125.198
11
116.52
21
-125.21
0
LINE
8
BLACK
6
CONTINUOUS
10
116.52
20
-125.21
11
116.509
21
-125.222
0
LINE
8
BLACK
6
CONTINUOUS
10
116.509
20
-125.222
11
116.413
21
-125.294
0
LINE
8
BLACK
6
CONTINUOUS
10
116.413
20
-125.294
11
116.401
21
-125.3
0
LINE
8
BLACK
6
CONTINUOUS
10
116.401
20
-125.3
11
116.389
21
-125.307
0
LINE
8
BLACK
6
CONTINUOUS
10
116.389
20
-125.307
11
116.198
21
-125.379
0
LINE
8
BLACK
6
CONTINUOUS
10
116.198
20
-125.379
11
116.198
21
-125.379
0
LINE
8
BLACK
6
CONTINUOUS
10
116.198
20
-125.379
11
116.197
21
-125.379
0
LINE
8
BLACK
6
CONTINUOUS
10
116.197
20
-125.379
11
116.181
21
-125.382
0
LINE
8
BLACK
6
CONTINUOUS
10
116.181
20
-125.382
11
116.164
21
-125.385
0
LINE
8
BLACK
6
CONTINUOUS
10
116.164
20
-125.385
11
116.163
21
-125.385
0
LINE
8
BLACK
6
CONTINUOUS
10
116.163
20
-125.385
11
116.163
21
-125.385
0
LINE
8
BLACK
6
CONTINUOUS
10
116.163
20
-125.385
11
115.877
21
-125.385
0
LINE
8
BLACK
6
CONTINUOUS
10
115.877
20
-125.385
11
115.877
21
-125.385
0
LINE
8
BLACK
6
CONTINUOUS
10
115.877
20
-125.385
11
115.876
21
-125.385
0
LINE
8
BLACK
6
CONTINUOUS
10
115.876
20
-125.385
11
115.86
21
-125.382
0
LINE
8
BLACK
6
CONTINUOUS
10
115.86
20
-125.382
11
115.843
21
-125.379
0
LINE
8
BLACK
6
CONTINUOUS
10
115.843
20
-125.379
11
115.843
21
-125.379
0
LINE
8
BLACK
6
CONTINUOUS
10
115.843
20
-125.379
11
115.842
21
-125.379
0
LINE
8
BLACK
6
CONTINUOUS
10
115.842
20
-125.379
11
115.652
21
-125.307
0
LINE
8
BLACK
6
CONTINUOUS
10
115.652
20
-125.307
11
115.639
21
-125.3
0
LINE
8
BLACK
6
CONTINUOUS
10
115.639
20
-125.3
11
115.627
21
-125.294
0
LINE
8
BLACK
6
CONTINUOUS
10
115.627
20
-125.294
11
115.532
21
-125.222
0
LINE
8
BLACK
6
CONTINUOUS
10
115.532
20
-125.222
11
115.52
21
-125.21
0
LINE
8
BLACK
6
CONTINUOUS
10
115.52
20
-125.21
11
115.508
21
-125.198
0
LINE
8
BLACK
6
CONTINUOUS
10
115.508
20
-125.198
11
115.413
21
-125.055
0
LINE
8
BLACK
6
CONTINUOUS
10
115.413
20
-125.055
11
115.408
21
-125.044
0
LINE
8
BLACK
6
CONTINUOUS
10
115.408
20
-125.044
11
115.402
21
-125.034
0
LINE
8
BLACK
6
CONTINUOUS
10
115.402
20
-125.034
11
115.401
21
-125.028
0
LINE
8
BLACK
6
CONTINUOUS
10
115.401
20
-125.028
11
115.399
21
-125.023
0
LINE
8
BLACK
6
CONTINUOUS
10
115.399
20
-125.023
11
115.398
21
-125.011
0
LINE
8
BLACK
6
CONTINUOUS
10
115.398
20
-125.011
11
115.396
21
-124.999
0
LINE
8
BLACK
6
CONTINUOUS
10
115.396
20
-124.999
11
115.396
21
-124.571
0
LINE
8
BLACK
6
CONTINUOUS
10
115.396
20
-124.571
11
115.398
21
-124.559
0
LINE
8
BLACK
6
CONTINUOUS
10
115.398
20
-124.559
11
115.399
21
-124.547
0
LINE
8
BLACK
6
CONTINUOUS
10
115.399
20
-124.547
11
115.401
21
-124.542
0
LINE
8
BLACK
6
CONTINUOUS
10
115.401
20
-124.542
11
115.402
21
-124.537
0
LINE
8
BLACK
6
CONTINUOUS
10
115.402
20
-124.537
11
115.408
21
-124.526
0
LINE
8
BLACK
6
CONTINUOUS
10
115.408
20
-124.526
11
115.413
21
-124.515
0
LINE
8
BLACK
6
CONTINUOUS
10
115.413
20
-124.515
11
115.508
21
-124.373
0
LINE
8
BLACK
6
CONTINUOUS
10
115.508
20
-124.373
11
115.52
21
-124.36
0
LINE
8
BLACK
6
CONTINUOUS
10
115.52
20
-124.36
11
115.532
21
-124.348
0
LINE
8
BLACK
6
CONTINUOUS
10
115.532
20
-124.348
11
115.627
21
-124.277
0
LINE
8
BLACK
6
CONTINUOUS
10
115.627
20
-124.277
11
115.639
21
-124.27
0
LINE
8
BLACK
6
CONTINUOUS
10
115.639
20
-124.27
11
115.652
21
-124.263
0
LINE
8
BLACK
6
CONTINUOUS
10
115.652
20
-124.263
11
115.842
21
-124.192
0
LINE
8
BLACK
6
CONTINUOUS
10
115.842
20
-124.192
11
115.843
21
-124.191
0
LINE
8
BLACK
6
CONTINUOUS
10
115.843
20
-124.191
11
115.843
21
-124.191
0
LINE
8
BLACK
6
CONTINUOUS
10
115.843
20
-124.191
11
115.86
21
-124.188
0
LINE
8
BLACK
6
CONTINUOUS
10
115.86
20
-124.188
11
115.876
21
-124.185
0
LINE
8
BLACK
6
CONTINUOUS
10
115.876
20
-124.185
11
115.877
21
-124.185
0
LINE
8
BLACK
6
CONTINUOUS
10
115.877
20
-124.185
11
115.877
21
-124.185
0
LINE
8
BLACK
6
CONTINUOUS
10
115.877
20
-124.185
11
116.163
21
-124.185
0
LINE
8
BLACK
6
CONTINUOUS
10
116.163
20
-124.185
11
116.163
21
-124.185
0
LINE
8
BLACK
6
CONTINUOUS
10
115.895
20
-124.385
11
115.735
21
-124.445
0
LINE
8
BLACK
6
CONTINUOUS
10
115.735
20
-124.445
11
115.665
21
-124.498
0
LINE
8
BLACK
6
CONTINUOUS
10
115.665
20
-124.498
11
115.596
21
-124.601
0
LINE
8
BLACK
6
CONTINUOUS
10
115.596
20
-124.601
11
115.596
21
-124.969
0
LINE
8
BLACK
6
CONTINUOUS
10
115.596
20
-124.969
11
115.665
21
-125.073
0
LINE
8
BLACK
6
CONTINUOUS
10
115.665
20
-125.073
11
115.735
21
-125.125
0
LINE
8
BLACK
6
CONTINUOUS
10
115.735
20
-125.125
11
115.895
21
-125.185
0
LINE
8
BLACK
6
CONTINUOUS
10
115.895
20
-125.185
11
116.145
21
-125.185
0
LINE
8
BLACK
6
CONTINUOUS
10
116.145
20
-125.185
11
116.305
21
-125.125
0
LINE
8
BLACK
6
CONTINUOUS
10
116.305
20
-125.125
11
116.375
21
-125.073
0
LINE
8
BLACK
6
CONTINUOUS
10
116.375
20
-125.073
11
116.444
21
-124.969
0
LINE
8
BLACK
6
CONTINUOUS
10
116.444
20
-124.969
11
116.444
21
-124.601
0
LINE
8
BLACK
6
CONTINUOUS
10
116.444
20
-124.601
11
116.375
21
-124.498
0
LINE
8
BLACK
6
CONTINUOUS
10
116.375
20
-124.498
11
116.305
21
-124.445
0
LINE
8
BLACK
6
CONTINUOUS
10
116.305
20
-124.445
11
116.145
21
-124.385
0
LINE
8
BLACK
6
CONTINUOUS
10
116.145
20
-124.385
11
115.895
21
-124.385
0
LINE
8
BLACK
6
CONTINUOUS
10
103.699
20
-123.687
11
103.711
21
-123.688
0
LINE
8
BLACK
6
CONTINUOUS
10
103.711
20
-123.688
11
103.997
21
-123.76
0
LINE
8
BLACK
6
CONTINUOUS
10
103.997
20
-123.76
11
103.999
21
-123.761
0
LINE
8
BLACK
6
CONTINUOUS
10
103.999
20
-123.761
11
104.001
21
-123.761
0
LINE
8
BLACK
6
CONTINUOUS
10
104.001
20
-123.761
11
104.015
21
-123.768
0
LINE
8
BLACK
6
CONTINUOUS
10
104.015
20
-123.768
11
104.028
21
-123.774
0
LINE
8
BLACK
6
CONTINUOUS
10
104.028
20
-123.774
11
104.03
21
-123.775
0
LINE
8
BLACK
6
CONTINUOUS
10
104.03
20
-123.775
11
104.032
21
-123.777
0
LINE
8
BLACK
6
CONTINUOUS
10
104.032
20
-123.777
11
104.223
21
-123.919
0
LINE
8
BLACK
6
CONTINUOUS
10
104.223
20
-123.919
11
104.234
21
-123.932
0
LINE
8
BLACK
6
CONTINUOUS
10
104.234
20
-123.932
11
104.246
21
-123.944
0
LINE
8
BLACK
6
CONTINUOUS
10
104.246
20
-123.944
11
104.341
21
-124.087
0
LINE
8
BLACK
6
CONTINUOUS
10
104.341
20
-124.087
11
104.347
21
-124.099
0
LINE
8
BLACK
6
CONTINUOUS
10
104.347
20
-124.099
11
104.353
21
-124.111
0
LINE
8
BLACK
6
CONTINUOUS
10
104.353
20
-124.111
11
104.448
21
-124.396
0
LINE
8
BLACK
6
CONTINUOUS
10
104.448
20
-124.396
11
104.451
21
-124.412
0
LINE
8
BLACK
6
CONTINUOUS
10
104.451
20
-124.412
11
104.453
21
-124.428
0
LINE
8
BLACK
6
CONTINUOUS
10
104.453
20
-124.428
11
104.453
21
-124.642
0
LINE
8
BLACK
6
CONTINUOUS
10
104.453
20
-124.642
11
104.451
21
-124.658
0
LINE
8
BLACK
6
CONTINUOUS
10
104.451
20
-124.658
11
104.448
21
-124.674
0
LINE
8
BLACK
6
CONTINUOUS
10
104.448
20
-124.674
11
104.353
21
-124.96
0
LINE
8
BLACK
6
CONTINUOUS
10
104.353
20
-124.96
11
104.347
21
-124.971
0
LINE
8
BLACK
6
CONTINUOUS
10
104.347
20
-124.971
11
104.341
21
-124.983
0
LINE
8
BLACK
6
CONTINUOUS
10
104.341
20
-124.983
11
104.246
21
-125.126
0
LINE
8
BLACK
6
CONTINUOUS
10
104.246
20
-125.126
11
104.234
21
-125.139
0
LINE
8
BLACK
6
CONTINUOUS
10
104.234
20
-125.139
11
104.223
21
-125.151
0
LINE
8
BLACK
6
CONTINUOUS
10
104.223
20
-125.151
11
104.032
21
-125.294
0
LINE
8
BLACK
6
CONTINUOUS
10
104.032
20
-125.294
11
104.03
21
-125.295
0
LINE
8
BLACK
6
CONTINUOUS
10
104.03
20
-125.295
11
104.028
21
-125.297
0
LINE
8
BLACK
6
CONTINUOUS
10
104.028
20
-125.297
11
104.015
21
-125.303
0
LINE
8
BLACK
6
CONTINUOUS
10
104.015
20
-125.303
11
104.001
21
-125.309
0
LINE
8
BLACK
6
CONTINUOUS
10
104.001
20
-125.309
11
103.999
21
-125.31
0
LINE
8
BLACK
6
CONTINUOUS
10
103.999
20
-125.31
11
103.997
21
-125.311
0
LINE
8
BLACK
6
CONTINUOUS
10
103.997
20
-125.311
11
103.711
21
-125.382
0
LINE
8
BLACK
6
CONTINUOUS
10
103.711
20
-125.382
11
103.699
21
-125.383
0
LINE
8
BLACK
6
CONTINUOUS
10
103.699
20
-125.383
11
103.687
21
-125.385
0
LINE
8
BLACK
6
CONTINUOUS
10
103.687
20
-125.385
11
103.211
21
-125.385
0
LINE
8
BLACK
6
CONTINUOUS
10
103.211
20
-125.385
11
103.202
21
-125.384
0
LINE
8
BLACK
6
CONTINUOUS
10
103.202
20
-125.384
11
103.193
21
-125.384
0
LINE
8
BLACK
6
CONTINUOUS
10
103.193
20
-125.384
11
103.185
21
-125.381
0
LINE
8
BLACK
6
CONTINUOUS
10
103.185
20
-125.381
11
103.176
21
-125.379
0
LINE
8
BLACK
6
CONTINUOUS
10
103.176
20
-125.379
11
103.169
21
-125.375
0
LINE
8
BLACK
6
CONTINUOUS
10
103.169
20
-125.375
11
103.161
21
-125.372
0
LINE
8
BLACK
6
CONTINUOUS
10
103.161
20
-125.372
11
103.154
21
-125.366
0
LINE
8
BLACK
6
CONTINUOUS
10
103.154
20
-125.366
11
103.146
21
-125.362
0
LINE
8
BLACK
6
CONTINUOUS
10
103.146
20
-125.362
11
103.141
21
-125.355
0
LINE
8
BLACK
6
CONTINUOUS
10
103.141
20
-125.355
11
103.134
21
-125.349
0
LINE
8
BLACK
6
CONTINUOUS
10
103.134
20
-125.349
11
103.13
21
-125.342
0
LINE
8
BLACK
6
CONTINUOUS
10
103.13
20
-125.342
11
103.124
21
-125.335
0
LINE
8
BLACK
6
CONTINUOUS
10
103.124
20
-125.335
11
103.121
21
-125.327
0
LINE
8
BLACK
6
CONTINUOUS
10
103.121
20
-125.327
11
103.117
21
-125.319
0
LINE
8
BLACK
6
CONTINUOUS
10
103.117
20
-125.319
11
103.115
21
-125.311
0
LINE
8
BLACK
6
CONTINUOUS
10
103.115
20
-125.311
11
103.112
21
-125.303
0
LINE
8
BLACK
6
CONTINUOUS
10
103.112
20
-125.303
11
103.112
21
-125.294
0
LINE
8
BLACK
6
CONTINUOUS
10
103.112
20
-125.294
11
103.111
21
-125.285
0
LINE
8
BLACK
6
CONTINUOUS
10
103.111
20
-125.285
11
103.111
21
-123.785
0
LINE
8
BLACK
6
CONTINUOUS
10
103.111
20
-123.785
11
103.112
21
-123.777
0
LINE
8
BLACK
6
CONTINUOUS
10
103.112
20
-123.777
11
103.112
21
-123.768
0
LINE
8
BLACK
6
CONTINUOUS
10
103.112
20
-123.768
11
103.115
21
-123.76
0
LINE
8
BLACK
6
CONTINUOUS
10
103.115
20
-123.76
11
103.117
21
-123.751
0
LINE
8
BLACK
6
CONTINUOUS
10
103.117
20
-123.751
11
103.121
21
-123.743
0
LINE
8
BLACK
6
CONTINUOUS
10
103.121
20
-123.743
11
103.124
21
-123.735
0
LINE
8
BLACK
6
CONTINUOUS
10
103.124
20
-123.735
11
103.13
21
-123.728
0
LINE
8
BLACK
6
CONTINUOUS
10
103.13
20
-123.728
11
103.134
21
-123.721
0
LINE
8
BLACK
6
CONTINUOUS
10
103.134
20
-123.721
11
103.141
21
-123.715
0
LINE
8
BLACK
6
CONTINUOUS
10
103.141
20
-123.715
11
103.146
21
-123.709
0
LINE
8
BLACK
6
CONTINUOUS
10
103.146
20
-123.709
11
103.154
21
-123.704
0
LINE
8
BLACK
6
CONTINUOUS
10
103.154
20
-123.704
11
103.161
21
-123.699
0
LINE
8
BLACK
6
CONTINUOUS
10
103.161
20
-123.699
11
103.169
21
-123.696
0
LINE
8
BLACK
6
CONTINUOUS
10
103.169
20
-123.696
11
103.176
21
-123.691
0
LINE
8
BLACK
6
CONTINUOUS
10
103.176
20
-123.691
11
103.185
21
-123.69
0
LINE
8
BLACK
6
CONTINUOUS
10
103.185
20
-123.69
11
103.193
21
-123.687
0
LINE
8
BLACK
6
CONTINUOUS
10
103.193
20
-123.687
11
103.202
21
-123.687
0
LINE
8
BLACK
6
CONTINUOUS
10
103.202
20
-123.687
11
103.211
21
-123.685
0
LINE
8
BLACK
6
CONTINUOUS
10
103.211
20
-123.685
11
103.687
21
-123.685
0
LINE
8
BLACK
6
CONTINUOUS
10
103.687
20
-123.685
11
103.699
21
-123.687
0
LINE
8
BLACK
6
CONTINUOUS
10
103.311
20
-123.885
11
103.311
21
-125.185
0
LINE
8
BLACK
6
CONTINUOUS
10
103.311
20
-125.185
11
103.674
21
-125.185
0
LINE
8
BLACK
6
CONTINUOUS
10
103.674
20
-125.185
11
103.929
21
-125.122
0
LINE
8
BLACK
6
CONTINUOUS
10
103.929
20
-125.122
11
104.089
21
-125.001
0
LINE
8
BLACK
6
CONTINUOUS
10
104.089
20
-125.001
11
104.168
21
-124.884
0
LINE
8
BLACK
6
CONTINUOUS
10
104.168
20
-124.884
11
104.253
21
-124.626
0
LINE
8
BLACK
6
CONTINUOUS
10
104.253
20
-124.626
11
104.253
21
-124.444
0
LINE
8
BLACK
6
CONTINUOUS
10
104.253
20
-124.444
11
104.168
21
-124.187
0
LINE
8
BLACK
6
CONTINUOUS
10
104.168
20
-124.187
11
104.089
21
-124.069
0
LINE
8
BLACK
6
CONTINUOUS
10
104.089
20
-124.069
11
103.929
21
-123.949
0
LINE
8
BLACK
6
CONTINUOUS
10
103.929
20
-123.949
11
103.674
21
-123.885
0
LINE
8
BLACK
6
CONTINUOUS
10
103.674
20
-123.885
11
103.311
21
-123.885
0
LINE
8
BLACK
6
CONTINUOUS
10
109.782
20
-124.185
11
109.783
21
-124.185
0
LINE
8
BLACK
6
CONTINUOUS
10
109.783
20
-124.185
11
109.8
21
-124.188
0
LINE
8
BLACK
6
CONTINUOUS
10
109.8
20
-124.188
11
109.816
21
-124.191
0
LINE
8
BLACK
6
CONTINUOUS
10
109.816
20
-124.191
11
109.817
21
-124.191
0
LINE
8
BLACK
6
CONTINUOUS
10
109.817
20
-124.191
11
109.817
21
-124.192
0
LINE
8
BLACK
6
CONTINUOUS
10
109.817
20
-124.192
11
110.008
21
-124.263
0
LINE
8
BLACK
6
CONTINUOUS
10
110.008
20
-124.263
11
110.019
21
-124.27
0
LINE
8
BLACK
6
CONTINUOUS
10
110.019
20
-124.27
11
110.032
21
-124.276
0
LINE
8
BLACK
6
CONTINUOUS
10
110.032
20
-124.276
11
110.034
21
-124.279
0
LINE
8
BLACK
6
CONTINUOUS
10
110.034
20
-124.279
11
110.037
21
-124.281
0
LINE
8
BLACK
6
CONTINUOUS
10
110.037
20
-124.281
11
110.046
21
-124.291
0
LINE
8
BLACK
6
CONTINUOUS
10
110.046
20
-124.291
11
110.056
21
-124.301
0
LINE
8
BLACK
6
CONTINUOUS
10
110.056
20
-124.301
11
110.151
21
-124.444
0
LINE
8
BLACK
6
CONTINUOUS
10
110.151
20
-124.444
11
110.156
21
-124.455
0
LINE
8
BLACK
6
CONTINUOUS
10
110.156
20
-124.455
11
110.162
21
-124.465
0
LINE
8
BLACK
6
CONTINUOUS
10
110.162
20
-124.465
11
110.163
21
-124.471
0
LINE
8
BLACK
6
CONTINUOUS
10
110.163
20
-124.471
11
110.165
21
-124.476
0
LINE
8
BLACK
6
CONTINUOUS
10
110.165
20
-124.476
11
110.166
21
-124.488
0
LINE
8
BLACK
6
CONTINUOUS
10
110.166
20
-124.488
11
110.168
21
-124.499
0
LINE
8
BLACK
6
CONTINUOUS
10
110.168
20
-124.499
11
110.168
21
-125.285
0
LINE
8
BLACK
6
CONTINUOUS
10
110.168
20
-125.285
11
110.162
21
-125.319
0
LINE
8
BLACK
6
CONTINUOUS
10
110.162
20
-125.319
11
110.144
21
-125.349
0
LINE
8
BLACK
6
CONTINUOUS
10
110.144
20
-125.349
11
110.118
21
-125.372
0
LINE
8
BLACK
6
CONTINUOUS
10
110.118
20
-125.372
11
110.085
21
-125.384
0
LINE
8
BLACK
6
CONTINUOUS
10
110.085
20
-125.384
11
110.05
21
-125.384
0
LINE
8
BLACK
6
CONTINUOUS
10
110.05
20
-125.384
11
110.018
21
-125.372
0
LINE
8
BLACK
6
CONTINUOUS
10
110.018
20
-125.372
11
109.991
21
-125.349
0
LINE
8
BLACK
6
CONTINUOUS
10
109.991
20
-125.349
11
109.991
21
-125.349
0
LINE
8
BLACK
6
CONTINUOUS
10
109.991
20
-125.349
11
109.912
21
-125.379
0
LINE
8
BLACK
6
CONTINUOUS
10
109.912
20
-125.379
11
109.912
21
-125.379
0
LINE
8
BLACK
6
CONTINUOUS
10
109.912
20
-125.379
11
109.911
21
-125.379
0
LINE
8
BLACK
6
CONTINUOUS
10
109.911
20
-125.379
11
109.895
21
-125.382
0
LINE
8
BLACK
6
CONTINUOUS
10
109.895
20
-125.382
11
109.878
21
-125.385
0
LINE
8
BLACK
6
CONTINUOUS
10
109.878
20
-125.385
11
109.878
21
-125.385
0
LINE
8
BLACK
6
CONTINUOUS
10
109.878
20
-125.385
11
109.877
21
-125.385
0
LINE
8
BLACK
6
CONTINUOUS
10
109.877
20
-125.385
11
109.401
21
-125.385
0
LINE
8
BLACK
6
CONTINUOUS
10
109.401
20
-125.385
11
109.401
21
-125.385
0
LINE
8
BLACK
6
CONTINUOUS
10
109.401
20
-125.385
11
109.4
21
-125.385
0
LINE
8
BLACK
6
CONTINUOUS
10
109.4
20
-125.385
11
109.383
21
-125.382
0
LINE
8
BLACK
6
CONTINUOUS
10
109.383
20
-125.382
11
109.367
21
-125.379
0
LINE
8
BLACK
6
CONTINUOUS
10
109.367
20
-125.379
11
109.366
21
-125.379
0
LINE
8
BLACK
6
CONTINUOUS
10
109.366
20
-125.379
11
109.366
21
-125.379
0
LINE
8
BLACK
6
CONTINUOUS
10
109.366
20
-125.379
11
109.175
21
-125.307
0
LINE
8
BLACK
6
CONTINUOUS
10
109.175
20
-125.307
11
109.164
21
-125.3
0
LINE
8
BLACK
6
CONTINUOUS
10
109.164
20
-125.3
11
109.151
21
-125.294
0
LINE
8
BLACK
6
CONTINUOUS
10
109.151
20
-125.294
11
109.149
21
-125.292
0
LINE
8
BLACK
6
CONTINUOUS
10
109.149
20
-125.292
11
109.146
21
-125.29
0
LINE
8
BLACK
6
CONTINUOUS
10
109.146
20
-125.29
11
109.137
21
-125.279
0
LINE
8
BLACK
6
CONTINUOUS
10
109.137
20
-125.279
11
109.127
21
-125.269
0
LINE
8
BLACK
6
CONTINUOUS
10
109.127
20
-125.269
11
109.032
21
-125.126
0
LINE
8
BLACK
6
CONTINUOUS
10
109.032
20
-125.126
11
109.027
21
-125.115
0
LINE
8
BLACK
6
CONTINUOUS
10
109.027
20
-125.115
11
109.021
21
-125.105
0
LINE
8
BLACK
6
CONTINUOUS
10
109.021
20
-125.105
11
109.02
21
-125.1
0
LINE
8
BLACK
6
CONTINUOUS
10
109.02
20
-125.1
11
109.018
21
-125.095
0
LINE
8
BLACK
6
CONTINUOUS
10
109.018
20
-125.095
11
109.017
21
-125.083
0
LINE
8
BLACK
6
CONTINUOUS
10
109.017
20
-125.083
11
109.015
21
-125.071
0
LINE
8
BLACK
6
CONTINUOUS
10
109.015
20
-125.071
11
109.015
21
-124.928
0
LINE
8
BLACK
6
CONTINUOUS
10
109.015
20
-124.928
11
109.017
21
-124.916
0
LINE
8
BLACK
6
CONTINUOUS
10
109.017
20
-124.916
11
109.018
21
-124.904
0
LINE
8
BLACK
6
CONTINUOUS
10
109.018
20
-124.904
11
109.02
21
-124.899
0
LINE
8
BLACK
6
CONTINUOUS
10
109.02
20
-124.899
11
109.021
21
-124.894
0
LINE
8
BLACK
6
CONTINUOUS
10
109.021
20
-124.894
11
109.027
21
-124.883
0
LINE
8
BLACK
6
CONTINUOUS
10
109.027
20
-124.883
11
109.032
21
-124.873
0
LINE
8
BLACK
6
CONTINUOUS
10
109.032
20
-124.873
11
109.127
21
-124.73
0
LINE
8
BLACK
6
CONTINUOUS
10
109.127
20
-124.73
11
109.137
21
-124.72
0
LINE
8
BLACK
6
CONTINUOUS
10
109.137
20
-124.72
11
109.146
21
-124.709
0
LINE
8
BLACK
6
CONTINUOUS
10
109.146
20
-124.709
11
109.149
21
-124.707
0
LINE
8
BLACK
6
CONTINUOUS
10
109.149
20
-124.707
11
109.151
21
-124.705
0
LINE
8
BLACK
6
CONTINUOUS
10
109.151
20
-124.705
11
109.164
21
-124.699
0
LINE
8
BLACK
6
CONTINUOUS
10
109.164
20
-124.699
11
109.175
21
-124.692
0
LINE
8
BLACK
6
CONTINUOUS
10
109.175
20
-124.692
11
109.366
21
-124.62
0
LINE
8
BLACK
6
CONTINUOUS
10
109.366
20
-124.62
11
109.366
21
-124.62
0
LINE
8
BLACK
6
CONTINUOUS
10
109.366
20
-124.62
11
109.367
21
-124.62
0
LINE
8
BLACK
6
CONTINUOUS
10
109.367
20
-124.62
11
109.383
21
-124.617
0
LINE
8
BLACK
6
CONTINUOUS
10
109.383
20
-124.617
11
109.4
21
-124.614
0
LINE
8
BLACK
6
CONTINUOUS
10
109.4
20
-124.614
11
109.401
21
-124.614
0
LINE
8
BLACK
6
CONTINUOUS
10
109.401
20
-124.614
11
109.401
21
-124.614
0
LINE
8
BLACK
6
CONTINUOUS
10
109.401
20
-124.614
11
109.859
21
-124.614
0
LINE
8
BLACK
6
CONTINUOUS
10
109.859
20
-124.614
11
109.968
21
-124.573
0
LINE
8
BLACK
6
CONTINUOUS
10
109.968
20
-124.573
11
109.968
21
-124.53
0
LINE
8
BLACK
6
CONTINUOUS
10
109.968
20
-124.53
11
109.907
21
-124.439
0
LINE
8
BLACK
6
CONTINUOUS
10
109.907
20
-124.439
11
109.764
21
-124.385
0
LINE
8
BLACK
6
CONTINUOUS
10
109.764
20
-124.385
11
109.419
21
-124.385
0
LINE
8
BLACK
6
CONTINUOUS
10
109.419
20
-124.385
11
109.246
21
-124.45
0
LINE
8
BLACK
6
CONTINUOUS
10
109.246
20
-124.45
11
109.212
21
-124.457
0
LINE
8
BLACK
6
CONTINUOUS
10
109.212
20
-124.457
11
109.177
21
-124.451
0
LINE
8
BLACK
6
CONTINUOUS
10
109.177
20
-124.451
11
109.147
21
-124.434
0
LINE
8
BLACK
6
CONTINUOUS
10
109.147
20
-124.434
11
109.124
21
-124.407
0
LINE
8
BLACK
6
CONTINUOUS
10
109.124
20
-124.407
11
109.112
21
-124.375
0
LINE
8
BLACK
6
CONTINUOUS
10
109.112
20
-124.375
11
109.112
21
-124.34
0
LINE
8
BLACK
6
CONTINUOUS
10
109.112
20
-124.34
11
109.123
21
-124.307
0
LINE
8
BLACK
6
CONTINUOUS
10
109.123
20
-124.307
11
109.146
21
-124.281
0
LINE
8
BLACK
6
CONTINUOUS
10
109.146
20
-124.281
11
109.175
21
-124.263
0
LINE
8
BLACK
6
CONTINUOUS
10
109.175
20
-124.263
11
109.366
21
-124.192
0
LINE
8
BLACK
6
CONTINUOUS
10
109.366
20
-124.192
11
109.366
21
-124.191
0
LINE
8
BLACK
6
CONTINUOUS
10
109.366
20
-124.191
11
109.367
21
-124.191
0
LINE
8
BLACK
6
CONTINUOUS
10
109.367
20
-124.191
11
109.383
21
-124.188
0
LINE
8
BLACK
6
CONTINUOUS
10
109.383
20
-124.188
11
109.4
21
-124.185
0
LINE
8
BLACK
6
CONTINUOUS
10
109.4
20
-124.185
11
109.401
21
-124.185
0
LINE
8
BLACK
6
CONTINUOUS
10
109.401
20
-124.185
11
109.401
21
-124.185
0
LINE
8
BLACK
6
CONTINUOUS
10
109.401
20
-124.185
11
109.782
21
-124.185
0
LINE
8
BLACK
6
CONTINUOUS
10
109.782
20
-124.185
11
109.782
21
-124.185
0
LINE
8
BLACK
6
CONTINUOUS
10
109.912
20
-124.807
11
109.912
21
-124.807
0
LINE
8
BLACK
6
CONTINUOUS
10
109.912
20
-124.807
11
109.911
21
-124.808
0
LINE
8
BLACK
6
CONTINUOUS
10
109.911
20
-124.808
11
109.895
21
-124.811
0
LINE
8
BLACK
6
CONTINUOUS
10
109.895
20
-124.811
11
109.878
21
-124.814
0
LINE
8
BLACK
6
CONTINUOUS
10
109.878
20
-124.814
11
109.878
21
-124.814
0
LINE
8
BLACK
6
CONTINUOUS
10
109.878
20
-124.814
11
109.877
21
-124.814
0
LINE
8
BLACK
6
CONTINUOUS
10
109.877
20
-124.814
11
109.419
21
-124.814
0
LINE
8
BLACK
6
CONTINUOUS
10
109.419
20
-124.814
11
109.276
21
-124.867
0
LINE
8
BLACK
6
CONTINUOUS
10
109.276
20
-124.867
11
109.215
21
-124.958
0
LINE
8
BLACK
6
CONTINUOUS
10
109.215
20
-124.958
11
109.215
21
-125.041
0
LINE
8
BLACK
6
CONTINUOUS
10
109.215
20
-125.041
11
109.276
21
-125.131
0
LINE
8
BLACK
6
CONTINUOUS
10
109.276
20
-125.131
11
109.419
21
-125.185
0
LINE
8
BLACK
6
CONTINUOUS
10
109.419
20
-125.185
11
109.859
21
-125.185
0
LINE
8
BLACK
6
CONTINUOUS
10
109.859
20
-125.185
11
109.968
21
-125.144
0
LINE
8
BLACK
6
CONTINUOUS
10
109.968
20
-125.144
11
109.968
21
-124.787
0
LINE
8
BLACK
6
CONTINUOUS
10
109.968
20
-124.787
11
109.912
21
-124.807
0
LINE
8
BLACK
6
CONTINUOUS
10
107.435
20
-123.691
11
107.465
21
-123.709
0
LINE
8
BLACK
6
CONTINUOUS
10
107.465
20
-123.709
11
107.488
21
-123.735
0
LINE
8
BLACK
6
CONTINUOUS
10
107.488
20
-123.735
11
107.5
21
-123.768
0
LINE
8
BLACK
6
CONTINUOUS
10
107.5
20
-123.768
11
107.5
21
-123.803
0
LINE
8
BLACK
6
CONTINUOUS
10
107.5
20
-123.803
11
107.488
21
-123.835
0
LINE
8
BLACK
6
CONTINUOUS
10
107.488
20
-123.835
11
107.465
21
-123.862
0
LINE
8
BLACK
6
CONTINUOUS
10
107.465
20
-123.862
11
107.435
21
-123.879
0
LINE
8
BLACK
6
CONTINUOUS
10
107.435
20
-123.879
11
107.401
21
-123.885
0
LINE
8
BLACK
6
CONTINUOUS
10
107.401
20
-123.885
11
107.229
21
-123.885
0
LINE
8
BLACK
6
CONTINUOUS
10
107.229
20
-123.885
11
107.085
21
-123.939
0
LINE
8
BLACK
6
CONTINUOUS
10
107.085
20
-123.939
11
107.025
21
-124.03
0
LINE
8
BLACK
6
CONTINUOUS
10
107.025
20
-124.03
11
107.025
21
-124.185
0
LINE
8
BLACK
6
CONTINUOUS
10
107.025
20
-124.185
11
107.401
21
-124.185
0
LINE
8
BLACK
6
CONTINUOUS
10
107.401
20
-124.185
11
107.435
21
-124.191
0
LINE
8
BLACK
6
CONTINUOUS
10
107.435
20
-124.191
11
107.465
21
-124.209
0
LINE
8
BLACK
6
CONTINUOUS
10
107.465
20
-124.209
11
107.488
21
-124.235
0
LINE
8
BLACK
6
CONTINUOUS
10
107.488
20
-124.235
11
107.5
21
-124.268
0
LINE
8
BLACK
6
CONTINUOUS
10
107.5
20
-124.268
11
107.5
21
-124.303
0
LINE
8
BLACK
6
CONTINUOUS
10
107.5
20
-124.303
11
107.488
21
-124.335
0
LINE
8
BLACK
6
CONTINUOUS
10
107.488
20
-124.335
11
107.465
21
-124.362
0
LINE
8
BLACK
6
CONTINUOUS
10
107.465
20
-124.362
11
107.435
21
-124.379
0
LINE
8
BLACK
6
CONTINUOUS
10
107.435
20
-124.379
11
107.401
21
-124.385
0
LINE
8
BLACK
6
CONTINUOUS
10
107.401
20
-124.385
11
107.025
21
-124.385
0
LINE
8
BLACK
6
CONTINUOUS
10
107.025
20
-124.385
11
107.025
21
-125.285
0
LINE
8
BLACK
6
CONTINUOUS
10
107.025
20
-125.285
11
107.019
21
-125.319
0
LINE
8
BLACK
6
CONTINUOUS
10
107.019
20
-125.319
11
107.001
21
-125.349
0
LINE
8
BLACK
6
CONTINUOUS
10
107.001
20
-125.349
11
106.975
21
-125.372
0
LINE
8
BLACK
6
CONTINUOUS
10
106.975
20
-125.372
11
106.942
21
-125.384
0
LINE
8
BLACK
6
CONTINUOUS
10
106.942
20
-125.384
11
106.907
21
-125.384
0
LINE
8
BLACK
6
CONTINUOUS
10
106.907
20
-125.384
11
106.875
21
-125.372
0
LINE
8
BLACK
6
CONTINUOUS
10
106.875
20
-125.372
11
106.848
21
-125.349
0
LINE
8
BLACK
6
CONTINUOUS
10
106.848
20
-125.349
11
106.831
21
-125.319
0
LINE
8
BLACK
6
CONTINUOUS
10
106.831
20
-125.319
11
106.825
21
-125.285
0
LINE
8
BLACK
6
CONTINUOUS
10
106.825
20
-125.285
11
106.825
21
-124.385
0
LINE
8
BLACK
6
CONTINUOUS
10
106.825
20
-124.385
11
106.639
21
-124.385
0
LINE
8
BLACK
6
CONTINUOUS
10
106.639
20
-124.385
11
106.605
21
-124.379
0
LINE
8
BLACK
6
CONTINUOUS
10
106.605
20
-124.379
11
106.575
21
-124.362
0
LINE
8
BLACK
6
CONTINUOUS
10
106.575
20
-124.362
11
106.553
21
-124.335
0
LINE
8
BLACK
6
CONTINUOUS
10
106.553
20
-124.335
11
106.541
21
-124.303
0
LINE
8
BLACK
6
CONTINUOUS
10
106.541
20
-124.303
11
106.541
21
-124.268
0
LINE
8
BLACK
6
CONTINUOUS
10
106.541
20
-124.268
11
106.553
21
-124.235
0
LINE
8
BLACK
6
CONTINUOUS
10
106.553
20
-124.235
11
106.575
21
-124.209
0
LINE
8
BLACK
6
CONTINUOUS
10
106.575
20
-124.209
11
106.605
21
-124.191
0
LINE
8
BLACK
6
CONTINUOUS
10
106.605
20
-124.191
11
106.639
21
-124.185
0
LINE
8
BLACK
6
CONTINUOUS
10
106.639
20
-124.185
11
106.825
21
-124.185
0
LINE
8
BLACK
6
CONTINUOUS
10
106.825
20
-124.185
11
106.825
21
-123.999
0
LINE
8
BLACK
6
CONTINUOUS
10
106.825
20
-123.999
11
106.827
21
-123.988
0
LINE
8
BLACK
6
CONTINUOUS
10
106.827
20
-123.988
11
106.828
21
-123.976
0
LINE
8
BLACK
6
CONTINUOUS
10
106.828
20
-123.976
11
106.83
21
-123.971
0
LINE
8
BLACK
6
CONTINUOUS
10
106.83
20
-123.971
11
106.831
21
-123.965
0
LINE
8
BLACK
6
CONTINUOUS
10
106.831
20
-123.965
11
106.837
21
-123.955
0
LINE
8
BLACK
6
CONTINUOUS
10
106.837
20
-123.955
11
106.842
21
-123.944
0
LINE
8
BLACK
6
CONTINUOUS
10
106.842
20
-123.944
11
106.937
21
-123.801
0
LINE
8
BLACK
6
CONTINUOUS
10
106.937
20
-123.801
11
106.946
21
-123.791
0
LINE
8
BLACK
6
CONTINUOUS
10
106.946
20
-123.791
11
106.955
21
-123.781
0
LINE
8
BLACK
6
CONTINUOUS
10
106.955
20
-123.781
11
106.958
21
-123.779
0
LINE
8
BLACK
6
CONTINUOUS
10
106.958
20
-123.779
11
106.961
21
-123.776
0
LINE
8
BLACK
6
CONTINUOUS
10
106.961
20
-123.776
11
106.973
21
-123.77
0
LINE
8
BLACK
6
CONTINUOUS
10
106.973
20
-123.77
11
106.985
21
-123.763
0
LINE
8
BLACK
6
CONTINUOUS
10
106.985
20
-123.763
11
107.175
21
-123.692
0
LINE
8
BLACK
6
CONTINUOUS
10
107.175
20
-123.692
11
107.176
21
-123.691
0
LINE
8
BLACK
6
CONTINUOUS
10
107.176
20
-123.691
11
107.176
21
-123.691
0
LINE
8
BLACK
6
CONTINUOUS
10
107.176
20
-123.691
11
107.193
21
-123.688
0
LINE
8
BLACK
6
CONTINUOUS
10
107.193
20
-123.688
11
107.21
21
-123.685
0
LINE
8
BLACK
6
CONTINUOUS
10
107.21
20
-123.685
11
107.21
21
-123.685
0
LINE
8
BLACK
6
CONTINUOUS
10
107.21
20
-123.685
11
107.211
21
-123.685
0
LINE
8
BLACK
6
CONTINUOUS
10
107.211
20
-123.685
11
107.401
21
-123.685
0
LINE
8
BLACK
6
CONTINUOUS
10
107.401
20
-123.685
11
107.435
21
-123.691
0
LINE
8
BLACK
6
CONTINUOUS
10
114.689
20
-124.199
11
114.716
21
-124.221
0
LINE
8
BLACK
6
CONTINUOUS
10
114.716
20
-124.221
11
114.733
21
-124.251
0
LINE
8
BLACK
6
CONTINUOUS
10
114.733
20
-124.251
11
114.739
21
-124.285
0
LINE
8
BLACK
6
CONTINUOUS
10
114.739
20
-124.285
11
114.739
21
-125.285
0
LINE
8
BLACK
6
CONTINUOUS
10
114.739
20
-125.285
11
114.733
21
-125.319
0
LINE
8
BLACK
6
CONTINUOUS
10
114.733
20
-125.319
11
114.716
21
-125.349
0
LINE
8
BLACK
6
CONTINUOUS
10
114.716
20
-125.349
11
114.689
21
-125.372
0
LINE
8
BLACK
6
CONTINUOUS
10
114.689
20
-125.372
11
114.656
21
-125.384
0
LINE
8
BLACK
6
CONTINUOUS
10
114.656
20
-125.384
11
114.622
21
-125.384
0
LINE
8
BLACK
6
CONTINUOUS
10
114.622
20
-125.384
11
114.589
21
-125.372
0
LINE
8
BLACK
6
CONTINUOUS
10
114.589
20
-125.372
11
114.563
21
-125.349
0
LINE
8
BLACK
6
CONTINUOUS
10
114.563
20
-125.349
11
114.545
21
-125.319
0
LINE
8
BLACK
6
CONTINUOUS
10
114.545
20
-125.319
11
114.539
21
-125.285
0
LINE
8
BLACK
6
CONTINUOUS
10
114.539
20
-125.285
11
114.539
21
-124.285
0
LINE
8
BLACK
6
CONTINUOUS
10
114.539
20
-124.285
11
114.545
21
-124.251
0
LINE
8
BLACK
6
CONTINUOUS
10
114.545
20
-124.251
11
114.563
21
-124.221
0
LINE
8
BLACK
6
CONTINUOUS
10
114.563
20
-124.221
11
114.589
21
-124.199
0
LINE
8
BLACK
6
CONTINUOUS
10
114.589
20
-124.199
11
114.622
21
-124.187
0
LINE
8
BLACK
6
CONTINUOUS
10
114.622
20
-124.187
11
114.656
21
-124.187
0
LINE
8
BLACK
6
CONTINUOUS
10
114.656
20
-124.187
11
114.689
21
-124.199
0
LINE
8
BLACK
6
CONTINUOUS
10
114.65
20
-123.687
11
114.656
21
-123.687
0
LINE
8
BLACK
6
CONTINUOUS
10
114.656
20
-123.687
11
114.662
21
-123.689
0
LINE
8
BLACK
6
CONTINUOUS
10
114.662
20
-123.689
11
114.668
21
-123.689
0
LINE
8
BLACK
6
CONTINUOUS
10
114.668
20
-123.689
11
114.673
21
-123.692
0
LINE
8
BLACK
6
CONTINUOUS
10
114.673
20
-123.692
11
114.678
21
-123.693
0
LINE
8
BLACK
6
CONTINUOUS
10
114.678
20
-123.693
11
114.683
21
-123.697
0
LINE
8
BLACK
6
CONTINUOUS
10
114.683
20
-123.697
11
114.689
21
-123.699
0
LINE
8
BLACK
6
CONTINUOUS
10
114.689
20
-123.699
11
114.694
21
-123.702
0
LINE
8
BLACK
6
CONTINUOUS
10
114.694
20
-123.702
11
114.699
21
-123.705
0
LINE
8
BLACK
6
CONTINUOUS
10
114.699
20
-123.705
11
114.794
21
-123.777
0
LINE
8
BLACK
6
CONTINUOUS
10
114.794
20
-123.777
11
114.798
21
-123.781
0
LINE
8
BLACK
6
CONTINUOUS
10
114.798
20
-123.781
11
114.803
21
-123.784
0
LINE
8
BLACK
6
CONTINUOUS
10
114.803
20
-123.784
11
114.81
21
-123.793
0
LINE
8
BLACK
6
CONTINUOUS
10
114.81
20
-123.793
11
114.818
21
-123.802
0
LINE
8
BLACK
6
CONTINUOUS
10
114.818
20
-123.802
11
114.82
21
-123.807
0
LINE
8
BLACK
6
CONTINUOUS
10
114.82
20
-123.807
11
114.824
21
-123.811
0
LINE
8
BLACK
6
CONTINUOUS
10
114.824
20
-123.811
11
114.827
21
-123.823
0
LINE
8
BLACK
6
CONTINUOUS
10
114.827
20
-123.823
11
114.832
21
-123.834
0
LINE
8
BLACK
6
CONTINUOUS
10
114.832
20
-123.834
11
114.832
21
-123.839
0
LINE
8
BLACK
6
CONTINUOUS
10
114.832
20
-123.839
11
114.834
21
-123.845
0
LINE
8
BLACK
6
CONTINUOUS
10
114.834
20
-123.845
11
114.833
21
-123.857
0
LINE
8
BLACK
6
CONTINUOUS
10
114.833
20
-123.857
11
114.834
21
-123.869
0
LINE
8
BLACK
6
CONTINUOUS
10
114.834
20
-123.869
11
114.832
21
-123.874
0
LINE
8
BLACK
6
CONTINUOUS
10
114.832
20
-123.874
11
114.832
21
-123.879
0
LINE
8
BLACK
6
CONTINUOUS
10
114.832
20
-123.879
11
114.827
21
-123.89
0
LINE
8
BLACK
6
CONTINUOUS
10
114.827
20
-123.89
11
114.824
21
-123.902
0
LINE
8
BLACK
6
CONTINUOUS
10
114.824
20
-123.902
11
114.82
21
-123.906
0
LINE
8
BLACK
6
CONTINUOUS
10
114.82
20
-123.906
11
114.818
21
-123.911
0
LINE
8
BLACK
6
CONTINUOUS
10
114.818
20
-123.911
11
114.81
21
-123.92
0
LINE
8
BLACK
6
CONTINUOUS
10
114.81
20
-123.92
11
114.803
21
-123.93
0
LINE
8
BLACK
6
CONTINUOUS
10
114.803
20
-123.93
11
114.798
21
-123.933
0
LINE
8
BLACK
6
CONTINUOUS
10
114.798
20
-123.933
11
114.794
21
-123.937
0
LINE
8
BLACK
6
CONTINUOUS
10
114.794
20
-123.937
11
114.699
21
-124.008
0
LINE
8
BLACK
6
CONTINUOUS
10
114.699
20
-124.008
11
114.694
21
-124.011
0
LINE
8
BLACK
6
CONTINUOUS
10
114.694
20
-124.011
11
114.689
21
-124.015
0
LINE
8
BLACK
6
CONTINUOUS
10
114.689
20
-124.015
11
114.683
21
-124.017
0
LINE
8
BLACK
6
CONTINUOUS
10
114.683
20
-124.017
11
114.678
21
-124.02
0
LINE
8
BLACK
6
CONTINUOUS
10
114.678
20
-124.02
11
114.673
21
-124.021
0
LINE
8
BLACK
6
CONTINUOUS
10
114.673
20
-124.021
11
114.668
21
-124.024
0
LINE
8
BLACK
6
CONTINUOUS
10
114.668
20
-124.024
11
114.662
21
-124.024
0
LINE
8
BLACK
6
CONTINUOUS
10
114.662
20
-124.024
11
114.656
21
-124.027
0
LINE
8
BLACK
6
CONTINUOUS
10
114.656
20
-124.027
11
114.65
21
-124.027
0
LINE
8
BLACK
6
CONTINUOUS
10
114.65
20
-124.027
11
114.645
21
-124.028
0
LINE
8
BLACK
6
CONTINUOUS
10
114.645
20
-124.028
11
114.639
21
-124.027
0
LINE
8
BLACK
6
CONTINUOUS
10
114.639
20
-124.027
11
114.634
21
-124.028
0
LINE
8
BLACK
6
CONTINUOUS
10
114.634
20
-124.028
11
114.628
21
-124.027
0
LINE
8
BLACK
6
CONTINUOUS
10
114.628
20
-124.027
11
114.622
21
-124.027
0
LINE
8
BLACK
6
CONTINUOUS
10
114.622
20
-124.027
11
114.616
21
-124.024
0
LINE
8
BLACK
6
CONTINUOUS
10
114.616
20
-124.024
11
114.61
21
-124.024
0
LINE
8
BLACK
6
CONTINUOUS
10
114.61
20
-124.024
11
114.605
21
-124.021
0
LINE
8
BLACK
6
CONTINUOUS
10
114.605
20
-124.021
11
114.6
21
-124.02
0
LINE
8
BLACK
6
CONTINUOUS
10
114.6
20
-124.02
11
114.595
21
-124.017
0
LINE
8
BLACK
6
CONTINUOUS
10
114.595
20
-124.017
11
114.589
21
-124.015
0
LINE
8
BLACK
6
CONTINUOUS
10
114.589
20
-124.015
11
114.585
21
-124.011
0
LINE
8
BLACK
6
CONTINUOUS
10
114.585
20
-124.011
11
114.579
21
-124.008
0
LINE
8
BLACK
6
CONTINUOUS
10
114.579
20
-124.008
11
114.484
21
-123.937
0
LINE
8
BLACK
6
CONTINUOUS
10
114.484
20
-123.937
11
114.48
21
-123.933
0
LINE
8
BLACK
6
CONTINUOUS
10
114.48
20
-123.933
11
114.476
21
-123.93
0
LINE
8
BLACK
6
CONTINUOUS
10
114.476
20
-123.93
11
114.468
21
-123.92
0
LINE
8
BLACK
6
CONTINUOUS
10
114.468
20
-123.92
11
114.46
21
-123.911
0
LINE
8
BLACK
6
CONTINUOUS
10
114.46
20
-123.911
11
114.458
21
-123.906
0
LINE
8
BLACK
6
CONTINUOUS
10
114.458
20
-123.906
11
114.455
21
-123.902
0
LINE
8
BLACK
6
CONTINUOUS
10
114.455
20
-123.902
11
114.451
21
-123.89
0
LINE
8
BLACK
6
CONTINUOUS
10
114.451
20
-123.89
11
114.446
21
-123.879
0
LINE
8
BLACK
6
CONTINUOUS
10
114.446
20
-123.879
11
114.446
21
-123.874
0
LINE
8
BLACK
6
CONTINUOUS
10
114.446
20
-123.874
11
114.445
21
-123.869
0
LINE
8
BLACK
6
CONTINUOUS
10
114.445
20
-123.869
11
114.445
21
-123.857
0
LINE
8
BLACK
6
CONTINUOUS
10
114.445
20
-123.857
11
114.445
21
-123.845
0
LINE
8
BLACK
6
CONTINUOUS
10
114.445
20
-123.845
11
114.446
21
-123.839
0
LINE
8
BLACK
6
CONTINUOUS
10
114.446
20
-123.839
11
114.446
21
-123.834
0
LINE
8
BLACK
6
CONTINUOUS
10
114.446
20
-123.834
11
114.451
21
-123.823
0
LINE
8
BLACK
6
CONTINUOUS
10
114.451
20
-123.823
11
114.455
21
-123.811
0
LINE
8
BLACK
6
CONTINUOUS
10
114.455
20
-123.811
11
114.458
21
-123.807
0
LINE
8
BLACK
6
CONTINUOUS
10
114.458
20
-123.807
11
114.46
21
-123.802
0
LINE
8
BLACK
6
CONTINUOUS
10
114.46
20
-123.802
11
114.468
21
-123.793
0
LINE
8
BLACK
6
CONTINUOUS
10
114.468
20
-123.793
11
114.476
21
-123.784
0
LINE
8
BLACK
6
CONTINUOUS
10
114.476
20
-123.784
11
114.48
21
-123.781
0
LINE
8
BLACK
6
CONTINUOUS
10
114.48
20
-123.781
11
114.484
21
-123.777
0
LINE
8
BLACK
6
CONTINUOUS
10
114.484
20
-123.777
11
114.579
21
-123.705
0
LINE
8
BLACK
6
CONTINUOUS
10
114.579
20
-123.705
11
114.585
21
-123.702
0
LINE
8
BLACK
6
CONTINUOUS
10
114.585
20
-123.702
11
114.589
21
-123.699
0
LINE
8
BLACK
6
CONTINUOUS
10
114.589
20
-123.699
11
114.595
21
-123.697
0
LINE
8
BLACK
6
CONTINUOUS
10
114.595
20
-123.697
11
114.6
21
-123.693
0
LINE
8
BLACK
6
CONTINUOUS
10
114.6
20
-123.693
11
114.605
21
-123.692
0
LINE
8
BLACK
6
CONTINUOUS
10
114.605
20
-123.692
11
114.61
21
-123.689
0
LINE
8
BLACK
6
CONTINUOUS
10
114.61
20
-123.689
11
114.616
21
-123.689
0
LINE
8
BLACK
6
CONTINUOUS
10
114.616
20
-123.689
11
114.622
21
-123.687
0
LINE
8
BLACK
6
CONTINUOUS
10
114.622
20
-123.687
11
114.628
21
-123.687
0
LINE
8
BLACK
6
CONTINUOUS
10
114.628
20
-123.687
11
114.634
21
-123.685
0
LINE
8
BLACK
6
CONTINUOUS
10
114.634
20
-123.685
11
114.639
21
-123.686
0
LINE
8
BLACK
6
CONTINUOUS
10
114.639
20
-123.686
11
114.645
21
-123.685
0
LINE
8
BLACK
6
CONTINUOUS
10
114.645
20
-123.685
11
114.65
21
-123.687
0
LINE
8
BLACK
6
CONTINUOUS
10
155.12
20
-115.804
11
154.722
21
-116.88
0
LINE
8
BLACK
6
CONTINUOUS
10
154.722
20
-116.88
11
154.178
21
-117.89
0
LINE
8
BLACK
6
CONTINUOUS
10
154.178
20
-117.89
11
153.496
21
-118.813
0
LINE
8
BLACK
6
CONTINUOUS
10
153.496
20
-118.813
11
152.691
21
-119.63
0
LINE
8
BLACK
6
CONTINUOUS
10
152.691
20
-119.63
11
151.779
21
-120.326
0
LINE
8
BLACK
6
CONTINUOUS
10
151.779
20
-120.326
11
150.778
21
-120.887
0
LINE
8
BLACK
6
CONTINUOUS
10
150.778
20
-120.887
11
149.708
21
-121.301
0
LINE
8
BLACK
6
CONTINUOUS
10
149.708
20
-121.301
11
148.591
21
-121.56
0
LINE
8
BLACK
6
CONTINUOUS
10
148.591
20
-121.56
11
147.448
21
-121.659
0
LINE
8
BLACK
6
CONTINUOUS
10
147.448
20
-121.659
11
146.302
21
-121.596
0
LINE
8
BLACK
6
CONTINUOUS
10
146.302
20
-121.596
11
145.177
21
-121.372
0
LINE
8
BLACK
6
CONTINUOUS
10
145.177
20
-121.372
11
144.094
21
-120.992
0
LINE
8
BLACK
6
CONTINUOUS
10
144.094
20
-120.992
11
143.076
21
-120.463
0
LINE
8
BLACK
6
CONTINUOUS
10
143.076
20
-120.463
11
142.143
21
-119.796
0
LINE
8
BLACK
6
CONTINUOUS
10
142.143
20
-119.796
11
141.313
21
-119.004
0
LINE
8
BLACK
6
CONTINUOUS
10
141.313
20
-119.004
11
140.602
21
-118.103
0
LINE
8
BLACK
6
CONTINUOUS
10
140.602
20
-118.103
11
140.026
21
-117.111
0
LINE
8
BLACK
6
CONTINUOUS
10
140.026
20
-117.111
11
139.596
21
-116.048
0
LINE
8
BLACK
6
CONTINUOUS
10
139.596
20
-116.048
11
139.319
21
-114.934
0
LINE
8
BLACK
6
CONTINUOUS
10
139.319
20
-114.934
11
139.202
21
-113.793
0
LINE
8
BLACK
6
CONTINUOUS
10
139.202
20
-113.793
11
139.247
21
-112.647
0
LINE
8
BLACK
6
CONTINUOUS
10
139.247
20
-112.647
11
139.453
21
-111.518
0
LINE
8
BLACK
6
CONTINUOUS
10
139.453
20
-111.518
11
139.816
21
-110.43
0
LINE
8
BLACK
6
CONTINUOUS
10
139.816
20
-110.43
11
140.329
21
-109.404
0
LINE
8
BLACK
6
CONTINUOUS
10
140.329
20
-109.404
11
140.981
21
-108.46
0
LINE
8
BLACK
6
CONTINUOUS
10
140.981
20
-108.46
11
141.76
21
-107.617
0
LINE
8
BLACK
6
CONTINUOUS
10
141.76
20
-107.617
11
142.65
21
-106.893
0
LINE
8
BLACK
6
CONTINUOUS
10
142.65
20
-106.893
11
143.633
21
-106.301
0
LINE
8
BLACK
6
CONTINUOUS
10
143.633
20
-106.301
11
144.689
21
-105.854
0
LINE
8
BLACK
6
CONTINUOUS
10
144.689
20
-105.854
11
145.798
21
-105.56
0
LINE
8
BLACK
6
CONTINUOUS
10
145.798
20
-105.56
11
146.937
21
-105.425
0
LINE
8
BLACK
6
CONTINUOUS
10
146.937
20
-105.425
11
148.084
21
-105.452
0
LINE
8
BLACK
6
CONTINUOUS
10
148.084
20
-105.452
11
149.216
21
-105.64
0
LINE
8
BLACK
6
CONTINUOUS
10
149.216
20
-105.64
11
150.31
21
-105.986
0
LINE
8
BLACK
6
CONTINUOUS
10
150.31
20
-105.986
11
151.344
21
-106.483
0
LINE
8
BLACK
6
CONTINUOUS
10
151.344
20
-106.483
11
152.298
21
-107.12
0
LINE
8
BLACK
6
CONTINUOUS
10
152.298
20
-107.12
11
153.153
21
-107.886
0
LINE
8
BLACK
6
CONTINUOUS
10
153.153
20
-107.886
11
153.891
21
-108.764
0
LINE
8
BLACK
6
CONTINUOUS
10
153.891
20
-108.764
11
154.498
21
-109.737
0
LINE
8
BLACK
6
CONTINUOUS
10
154.498
20
-109.737
11
154.962
21
-110.787
0
LINE
8
BLACK
6
CONTINUOUS
10
154.962
20
-110.787
11
155.273
21
-111.891
0
LINE
8
BLACK
6
CONTINUOUS
10
155.273
20
-111.891
11
155.426
21
-113.028
0
LINE
8
BLACK
6
CONTINUOUS
10
155.426
20
-113.028
11
155.442
21
-113.538
0
LINE
8
BLACK
6
CONTINUOUS
10
155.442
20
-113.538
11
155.361
21
-114.682
0
LINE
8
BLACK
6
CONTINUOUS
10
155.361
20
-114.682
11
155.12
21
-115.804
0
LINE
8
BLACK
6
CONTINUOUS
10
154.908
20
-111.333
11
154.522
21
-110.286
0
LINE
8
BLACK
6
CONTINUOUS
10
154.522
20
-110.286
11
153.992
21
-109.304
0
LINE
8
BLACK
6
CONTINUOUS
10
153.992
20
-109.304
11
153.329
21
-108.406
0
LINE
8
BLACK
6
CONTINUOUS
10
153.329
20
-108.406
11
152.546
21
-107.611
0
LINE
8
BLACK
6
CONTINUOUS
10
152.546
20
-107.611
11
151.658
21
-106.933
0
LINE
8
BLACK
6
CONTINUOUS
10
151.658
20
-106.933
11
150.685
21
-106.388
0
LINE
8
BLACK
6
CONTINUOUS
10
150.685
20
-106.388
11
149.644
21
-105.985
0
LINE
8
BLACK
6
CONTINUOUS
10
149.644
20
-105.985
11
148.556
21
-105.733
0
LINE
8
BLACK
6
CONTINUOUS
10
148.556
20
-105.733
11
147.444
21
-105.637
0
LINE
8
BLACK
6
CONTINUOUS
10
147.444
20
-105.637
11
146.33
21
-105.698
0
LINE
8
BLACK
6
CONTINUOUS
10
146.33
20
-105.698
11
145.235
21
-105.916
0
LINE
8
BLACK
6
CONTINUOUS
10
145.235
20
-105.916
11
144.182
21
-106.286
0
LINE
8
BLACK
6
CONTINUOUS
10
144.182
20
-106.286
11
143.191
21
-106.8
0
LINE
8
BLACK
6
CONTINUOUS
10
143.191
20
-106.8
11
142.283
21
-107.449
0
LINE
8
BLACK
6
CONTINUOUS
10
142.283
20
-107.449
11
141.475
21
-108.22
0
LINE
8
BLACK
6
CONTINUOUS
10
141.475
20
-108.22
11
140.784
21
-109.096
0
LINE
8
BLACK
6
CONTINUOUS
10
140.784
20
-109.096
11
140.224
21
-110.062
0
LINE
8
BLACK
6
CONTINUOUS
10
140.224
20
-110.062
11
139.805
21
-111.096
0
LINE
8
BLACK
6
CONTINUOUS
10
139.805
20
-111.096
11
139.536
21
-112.179
0
LINE
8
BLACK
6
CONTINUOUS
10
139.536
20
-112.179
11
139.422
21
-113.29
0
LINE
8
BLACK
6
CONTINUOUS
10
139.422
20
-113.29
11
139.466
21
-114.405
0
LINE
8
BLACK
6
CONTINUOUS
10
139.466
20
-114.405
11
139.666
21
-115.503
0
LINE
8
BLACK
6
CONTINUOUS
10
139.666
20
-115.503
11
140.019
21
-116.562
0
LINE
8
BLACK
6
CONTINUOUS
10
140.019
20
-116.562
11
140.518
21
-117.56
0
LINE
8
BLACK
6
CONTINUOUS
10
140.518
20
-117.56
11
141.153
21
-118.479
0
LINE
8
BLACK
6
CONTINUOUS
10
141.153
20
-118.479
11
141.911
21
-119.298
0
LINE
8
BLACK
6
CONTINUOUS
10
141.911
20
-119.298
11
142.776
21
-120.003
0
LINE
8
BLACK
6
CONTINUOUS
10
142.776
20
-120.003
11
143.733
21
-120.579
0
LINE
8
BLACK
6
CONTINUOUS
10
143.733
20
-120.579
11
144.76
21
-121.014
0
LINE
8
BLACK
6
CONTINUOUS
10
144.76
20
-121.014
11
145.839
21
-121.3
0
LINE
8
BLACK
6
CONTINUOUS
10
145.839
20
-121.3
11
146.948
21
-121.431
0
LINE
8
BLACK
6
CONTINUOUS
10
146.948
20
-121.431
11
148.064
21
-121.405
0
LINE
8
BLACK
6
CONTINUOUS
10
148.064
20
-121.405
11
149.165
21
-121.222
0
LINE
8
BLACK
6
CONTINUOUS
10
149.165
20
-121.222
11
150.229
21
-120.885
0
LINE
8
BLACK
6
CONTINUOUS
10
150.229
20
-120.885
11
151.235
21
-120.402
0
LINE
8
BLACK
6
CONTINUOUS
10
151.235
20
-120.402
11
152.163
21
-119.782
0
LINE
8
BLACK
6
CONTINUOUS
10
152.163
20
-119.782
11
152.995
21
-119.037
0
LINE
8
BLACK
6
CONTINUOUS
10
152.995
20
-119.037
11
153.713
21
-118.183
0
LINE
8
BLACK
6
CONTINUOUS
10
153.713
20
-118.183
11
154.304
21
-117.236
0
LINE
8
BLACK
6
CONTINUOUS
10
154.304
20
-117.236
11
154.755
21
-116.215
0
LINE
8
BLACK
6
CONTINUOUS
10
154.755
20
-116.215
11
155.058
21
-115.14
0
LINE
8
BLACK
6
CONTINUOUS
10
155.058
20
-115.14
11
155.206
21
-114.034
0
LINE
8
BLACK
6
CONTINUOUS
10
155.206
20
-114.034
11
155.222
21
-113.538
0
LINE
8
BLACK
6
CONTINUOUS
10
155.222
20
-113.538
11
155.143
21
-112.425
0
LINE
8
BLACK
6
CONTINUOUS
10
155.143
20
-112.425
11
154.908
21
-111.333
0
LINE
8
BLACK
6
CONTINUOUS
10
122.209
20
-105.95
11
122.239
21
-105.967
0
LINE
8
BLACK
6
CONTINUOUS
10
122.239
20
-105.967
11
122.262
21
-105.994
0
LINE
8
BLACK
6
CONTINUOUS
10
122.262
20
-105.994
11
122.274
21
-106.027
0
LINE
8
BLACK
6
CONTINUOUS
10
122.274
20
-106.027
11
122.274
21
-106.063
0
LINE
8
BLACK
6
CONTINUOUS
10
122.274
20
-106.063
11
122.262
21
-106.096
0
LINE
8
BLACK
6
CONTINUOUS
10
122.262
20
-106.096
11
122.252
21
-106.107
0
LINE
8
BLACK
6
CONTINUOUS
10
122.252
20
-106.107
11
122.269
21
-106.137
0
LINE
8
BLACK
6
CONTINUOUS
10
122.269
20
-106.137
11
122.274
21
-106.163
0
LINE
8
BLACK
6
CONTINUOUS
10
122.274
20
-106.163
11
122.274
21
-121.04
0
LINE
8
BLACK
6
CONTINUOUS
10
122.274
20
-121.04
11
122.274
21
-121.04
0
LINE
8
BLACK
6
CONTINUOUS
10
122.274
20
-121.04
11
122.274
21
-121.049
0
LINE
8
BLACK
6
CONTINUOUS
10
122.274
20
-121.049
11
122.271
21
-121.057
0
LINE
8
BLACK
6
CONTINUOUS
10
122.271
20
-121.057
11
122.269
21
-121.066
0
LINE
8
BLACK
6
CONTINUOUS
10
122.269
20
-121.066
11
122.265
21
-121.073
0
LINE
8
BLACK
6
CONTINUOUS
10
122.265
20
-121.073
11
122.262
21
-121.082
0
LINE
8
BLACK
6
CONTINUOUS
10
122.262
20
-121.082
11
122.256
21
-121.089
0
LINE
8
BLACK
6
CONTINUOUS
10
122.256
20
-121.089
11
122.252
21
-121.096
0
LINE
8
BLACK
6
CONTINUOUS
10
122.252
20
-121.096
11
122.245
21
-121.102
0
LINE
8
BLACK
6
CONTINUOUS
10
122.245
20
-121.102
11
122.239
21
-121.109
0
LINE
8
BLACK
6
CONTINUOUS
10
122.239
20
-121.109
11
122.232
21
-121.113
0
LINE
8
BLACK
6
CONTINUOUS
10
122.232
20
-121.113
11
122.225
21
-121.119
0
LINE
8
BLACK
6
CONTINUOUS
10
122.225
20
-121.119
11
122.216
21
-121.122
0
LINE
8
BLACK
6
CONTINUOUS
10
122.216
20
-121.122
11
122.209
21
-121.126
0
LINE
8
BLACK
6
CONTINUOUS
10
122.209
20
-121.126
11
122.2
21
-121.128
0
LINE
8
BLACK
6
CONTINUOUS
10
122.2
20
-121.128
11
122.192
21
-121.131
0
LINE
8
BLACK
6
CONTINUOUS
10
122.192
20
-121.131
11
122.183
21
-121.131
0
LINE
8
BLACK
6
CONTINUOUS
10
122.183
20
-121.131
11
122.183
21
-121.131
0
LINE
8
BLACK
6
CONTINUOUS
10
122.183
20
-121.131
11
80.2553
21
-121.131
0
LINE
8
BLACK
6
CONTINUOUS
10
80.2553
20
-121.131
11
80.2552
21
-121.131
0
LINE
8
BLACK
6
CONTINUOUS
10
80.2552
20
-121.131
11
80.2464
21
-121.131
0
LINE
8
BLACK
6
CONTINUOUS
10
80.2464
20
-121.131
11
80.238
21
-121.128
0
LINE
8
BLACK
6
CONTINUOUS
10
80.238
20
-121.128
11
80.2293
21
-121.126
0
LINE
8
BLACK
6
CONTINUOUS
10
80.2293
20
-121.126
11
80.2216
21
-121.122
0
LINE
8
BLACK
6
CONTINUOUS
10
80.2216
20
-121.122
11
80.2132
21
-121.119
0
LINE
8
BLACK
6
CONTINUOUS
10
80.2132
20
-121.119
11
80.2064
21
-121.113
0
LINE
8
BLACK
6
CONTINUOUS
10
80.2064
20
-121.113
11
80.1987
21
-121.109
0
LINE
8
BLACK
6
CONTINUOUS
10
80.1987
20
-121.109
11
80.193
21
-121.102
0
LINE
8
BLACK
6
CONTINUOUS
10
80.193
20
-121.102
11
80.1862
21
-121.096
0
LINE
8
BLACK
6
CONTINUOUS
10
80.1862
20
-121.096
11
80.1818
21
-121.089
0
LINE
8
BLACK
6
CONTINUOUS
10
80.1818
20
-121.089
11
80.1761
21
-121.082
0
LINE
8
BLACK
6
CONTINUOUS
10
80.1761
20
-121.082
11
80.173
21
-121.073
0
LINE
8
BLACK
6
CONTINUOUS
10
80.173
20
-121.073
11
80.1686
21
-121.066
0
LINE
8
BLACK
6
CONTINUOUS
10
80.1686
20
-121.066
11
80.167
21
-121.057
0
LINE
8
BLACK
6
CONTINUOUS
10
80.167
20
-121.057
11
80.164
21
-121.049
0
LINE
8
BLACK
6
CONTINUOUS
10
80.164
20
-121.049
11
80.164
21
-121.013
0
LINE
8
BLACK
6
CONTINUOUS
10
80.164
20
-121.013
11
80.164
21
-106.163
0
LINE
8
BLACK
6
CONTINUOUS
10
80.164
20
-106.163
11
80.1686
21
-106.137
0
LINE
8
BLACK
6
CONTINUOUS
10
80.1686
20
-106.137
11
80.1858
21
-106.107
0
LINE
8
BLACK
6
CONTINUOUS
10
80.1858
20
-106.107
11
80.1761
21
-106.096
0
LINE
8
BLACK
6
CONTINUOUS
10
80.1761
20
-106.096
11
80.164
21
-106.063
0
LINE
8
BLACK
6
CONTINUOUS
10
80.164
20
-106.063
11
80.164
21
-106.027
0
LINE
8
BLACK
6
CONTINUOUS
10
80.164
20
-106.027
11
80.1761
21
-105.994
0
LINE
8
BLACK
6
CONTINUOUS
10
80.1761
20
-105.994
11
80.1987
21
-105.967
0
LINE
8
BLACK
6
CONTINUOUS
10
80.1987
20
-105.967
11
80.2293
21
-105.95
0
LINE
8
BLACK
6
CONTINUOUS
10
80.2293
20
-105.95
11
80.2553
21
-105.945
0
LINE
8
BLACK
6
CONTINUOUS
10
80.2553
20
-105.945
11
122.183
21
-105.945
0
LINE
8
BLACK
6
CONTINUOUS
10
122.183
20
-105.945
11
122.209
21
-105.95
0
LINE
8
BLACK
6
CONTINUOUS
10
80.3608
20
-106.145
11
80.364
21
-106.163
0
LINE
8
BLACK
6
CONTINUOUS
10
80.364
20
-106.163
11
80.364
21
-120.931
0
LINE
8
BLACK
6
CONTINUOUS
10
80.364
20
-120.931
11
122.074
21
-120.931
0
LINE
8
BLACK
6
CONTINUOUS
10
122.074
20
-120.931
11
122.074
21
-106.163
0
LINE
8
BLACK
6
CONTINUOUS
10
122.074
20
-106.163
11
122.077
21
-106.145
0
LINE
8
BLACK
6
CONTINUOUS
10
122.077
20
-106.145
11
80.3608
21
-106.145
0
LINE
8
BLACK
6
CONTINUOUS
10
131.538
20
-107.123
11
131.136
21
-107.903
0
LINE
8
BLACK
6
CONTINUOUS
10
131.136
20
-107.903
11
130.595
21
-108.592
0
LINE
8
BLACK
6
CONTINUOUS
10
130.595
20
-108.592
11
129.933
21
-109.166
0
LINE
8
BLACK
6
CONTINUOUS
10
129.933
20
-109.166
11
129.175
21
-109.605
0
LINE
8
BLACK
6
CONTINUOUS
10
129.175
20
-109.605
11
128.347
21
-109.892
0
LINE
8
BLACK
6
CONTINUOUS
10
128.347
20
-109.892
11
127.479
21
-110.018
0
LINE
8
BLACK
6
CONTINUOUS
10
127.479
20
-110.018
11
126.604
21
-109.978
0
LINE
8
BLACK
6
CONTINUOUS
10
126.604
20
-109.978
11
125.752
21
-109.772
0
LINE
8
BLACK
6
CONTINUOUS
10
125.752
20
-109.772
11
124.954
21
-109.41
0
LINE
8
BLACK
6
CONTINUOUS
10
124.954
20
-109.41
11
124.239
21
-108.903
0
LINE
8
BLACK
6
CONTINUOUS
10
124.239
20
-108.903
11
123.633
21
-108.269
0
LINE
8
BLACK
6
CONTINUOUS
10
123.633
20
-108.269
11
123.158
21
-107.533
0
LINE
8
BLACK
6
CONTINUOUS
10
123.158
20
-107.533
11
122.83
21
-106.72
0
LINE
8
BLACK
6
CONTINUOUS
10
122.83
20
-106.72
11
122.662
21
-105.86
0
LINE
8
BLACK
6
CONTINUOUS
10
122.662
20
-105.86
11
122.66
21
-104.984
0
LINE
8
BLACK
6
CONTINUOUS
10
122.66
20
-104.984
11
122.823
21
-104.123
0
LINE
8
BLACK
6
CONTINUOUS
10
122.823
20
-104.123
11
123.147
21
-103.308
0
LINE
8
BLACK
6
CONTINUOUS
10
123.147
20
-103.308
11
123.618
21
-102.57
0
LINE
8
BLACK
6
CONTINUOUS
10
123.618
20
-102.57
11
124.221
21
-101.933
0
LINE
8
BLACK
6
CONTINUOUS
10
124.221
20
-101.933
11
124.933
21
-101.422
0
LINE
8
BLACK
6
CONTINUOUS
10
124.933
20
-101.422
11
125.729
21
-101.056
0
LINE
8
BLACK
6
CONTINUOUS
10
125.729
20
-101.056
11
126.58
21
-100.846
0
LINE
8
BLACK
6
CONTINUOUS
10
126.58
20
-100.846
11
127.455
21
-100.801
0
LINE
8
BLACK
6
CONTINUOUS
10
127.455
20
-100.801
11
128.323
21
-100.922
0
LINE
8
BLACK
6
CONTINUOUS
10
128.323
20
-100.922
11
129.153
21
-101.205
0
LINE
8
BLACK
6
CONTINUOUS
10
129.153
20
-101.205
11
129.913
21
-101.64
0
LINE
8
BLACK
6
CONTINUOUS
10
129.913
20
-101.64
11
130.578
21
-102.211
0
LINE
8
BLACK
6
CONTINUOUS
10
130.578
20
-102.211
11
131.123
21
-102.897
0
LINE
8
BLACK
6
CONTINUOUS
10
131.123
20
-102.897
11
131.529
21
-103.674
0
LINE
8
BLACK
6
CONTINUOUS
10
131.529
20
-103.674
11
131.78
21
-104.514
0
LINE
8
BLACK
6
CONTINUOUS
10
131.78
20
-104.514
11
131.868
21
-105.386
0
LINE
8
BLACK
6
CONTINUOUS
10
131.868
20
-105.386
11
131.868
21
-105.41
0
LINE
8
BLACK
6
CONTINUOUS
10
131.868
20
-105.41
11
131.784
21
-106.282
0
LINE
8
BLACK
6
CONTINUOUS
10
131.784
20
-106.282
11
131.538
21
-107.123
0
LINE
8
BLACK
6
CONTINUOUS
10
131.334
20
-103.778
11
130.951
21
-103.036
0
LINE
8
BLACK
6
CONTINUOUS
10
130.951
20
-103.036
11
130.436
21
-102.38
0
LINE
8
BLACK
6
CONTINUOUS
10
130.436
20
-102.38
11
129.805
21
-101.833
0
LINE
8
BLACK
6
CONTINUOUS
10
129.805
20
-101.833
11
129.083
21
-101.415
0
LINE
8
BLACK
6
CONTINUOUS
10
129.083
20
-101.415
11
128.295
21
-101.141
0
LINE
8
BLACK
6
CONTINUOUS
10
128.295
20
-101.141
11
127.469
21
-101.022
0
LINE
8
BLACK
6
CONTINUOUS
10
127.469
20
-101.022
11
126.635
21
-101.06
0
LINE
8
BLACK
6
CONTINUOUS
10
126.635
20
-101.06
11
125.824
21
-101.256
0
LINE
8
BLACK
6
CONTINUOUS
10
125.824
20
-101.256
11
125.064
21
-101.601
0
LINE
8
BLACK
6
CONTINUOUS
10
125.064
20
-101.601
11
124.383
21
-102.084
0
LINE
8
BLACK
6
CONTINUOUS
10
124.383
20
-102.084
11
123.806
21
-102.687
0
LINE
8
BLACK
6
CONTINUOUS
10
123.806
20
-102.687
11
123.353
21
-103.388
0
LINE
8
BLACK
6
CONTINUOUS
10
123.353
20
-103.388
11
123.041
21
-104.162
0
LINE
8
BLACK
6
CONTINUOUS
10
123.041
20
-104.162
11
122.881
21
-104.981
0
LINE
8
BLACK
6
CONTINUOUS
10
122.881
20
-104.981
11
122.879
21
-105.816
0
LINE
8
BLACK
6
CONTINUOUS
10
122.879
20
-105.816
11
123.035
21
-106.636
0
LINE
8
BLACK
6
CONTINUOUS
10
123.035
20
-106.636
11
123.343
21
-107.412
0
LINE
8
BLACK
6
CONTINUOUS
10
123.343
20
-107.412
11
123.792
21
-108.115
0
LINE
8
BLACK
6
CONTINUOUS
10
123.792
20
-108.115
11
124.366
21
-108.721
0
LINE
8
BLACK
6
CONTINUOUS
10
124.366
20
-108.721
11
125.044
21
-109.207
0
LINE
8
BLACK
6
CONTINUOUS
10
125.044
20
-109.207
11
125.802
21
-109.557
0
LINE
8
BLACK
6
CONTINUOUS
10
125.802
20
-109.557
11
126.612
21
-109.757
0
LINE
8
BLACK
6
CONTINUOUS
10
126.612
20
-109.757
11
127.446
21
-109.8
0
LINE
8
BLACK
6
CONTINUOUS
10
127.446
20
-109.8
11
128.272
21
-109.684
0
LINE
8
BLACK
6
CONTINUOUS
10
128.272
20
-109.684
11
129.062
21
-109.414
0
LINE
8
BLACK
6
CONTINUOUS
10
129.062
20
-109.414
11
129.787
21
-109
0
LINE
8
BLACK
6
CONTINUOUS
10
129.787
20
-109
11
130.42
21
-108.457
0
LINE
8
BLACK
6
CONTINUOUS
10
130.42
20
-108.457
11
130.939
21
-107.803
0
LINE
8
BLACK
6
CONTINUOUS
10
130.939
20
-107.803
11
131.325
21
-107.063
0
LINE
8
BLACK
6
CONTINUOUS
10
131.325
20
-107.063
11
131.564
21
-106.263
0
LINE
8
BLACK
6
CONTINUOUS
10
131.564
20
-106.263
11
131.648
21
-105.433
0
LINE
8
BLACK
6
CONTINUOUS
10
131.648
20
-105.433
11
131.648
21
-105.41
0
LINE
8
BLACK
6
CONTINUOUS
10
131.648
20
-105.41
11
131.568
21
-104.579
0
LINE
8
BLACK
6
CONTINUOUS
10
131.568
20
-104.579
11
131.334
21
-103.778
0
LINE
8
BLACK
6
CONTINUOUS
10
81.4402
20
-101.976
11
81.0425
21
-102.343
0
LINE
8
BLACK
6
CONTINUOUS
10
81.0425
20
-102.343
11
80.5472
21
-102.562
0
LINE
8
BLACK
6
CONTINUOUS
10
80.5472
20
-102.562
11
80.0076
21
-102.609
0
LINE
8
BLACK
6
CONTINUOUS
10
80.0076
20
-102.609
11
79.482
21
-102.479
0
LINE
8
BLACK
6
CONTINUOUS
10
79.482
20
-102.479
11
79.027
21
-102.185
0
LINE
8
BLACK
6
CONTINUOUS
10
79.027
20
-102.185
11
78.6917
21
-101.76
0
LINE
8
BLACK
6
CONTINUOUS
10
78.6917
20
-101.76
11
78.5123
21
-101.249
0
LINE
8
BLACK
6
CONTINUOUS
10
78.5123
20
-101.249
11
78.508
21
-100.707
0
LINE
8
BLACK
6
CONTINUOUS
10
78.508
20
-100.707
11
78.6794
21
-100.193
0
LINE
8
BLACK
6
CONTINUOUS
10
78.6794
20
-100.193
11
79.008
21
-99.7627
0
LINE
8
BLACK
6
CONTINUOUS
10
79.008
20
-99.7627
11
79.4583
21
-99.4618
0
LINE
8
BLACK
6
CONTINUOUS
10
79.4583
20
-99.4618
11
79.9818
21
-99.323
0
LINE
8
BLACK
6
CONTINUOUS
10
79.9818
20
-99.323
11
80.522
21
-99.3613
0
LINE
8
BLACK
6
CONTINUOUS
10
80.522
20
-99.3613
11
81.0207
21
-99.5725
0
LINE
8
BLACK
6
CONTINUOUS
10
81.0207
20
-99.5725
11
81.4242
21
-99.9338
0
LINE
8
BLACK
6
CONTINUOUS
10
81.4242
20
-99.9338
11
81.6888
21
-100.406
0
LINE
8
BLACK
6
CONTINUOUS
10
81.6888
20
-100.406
11
81.7861
21
-100.939
0
LINE
8
BLACK
6
CONTINUOUS
10
81.7861
20
-100.939
11
81.7863
21
-100.965
0
LINE
8
BLACK
6
CONTINUOUS
10
81.7863
20
-100.965
11
81.6974
21
-101.499
0
LINE
8
BLACK
6
CONTINUOUS
10
81.6974
20
-101.499
11
81.4402
21
-101.976
0
LINE
8
BLACK
6
CONTINUOUS
10
81.2664
20
-100.089
11
80.9217
21
-99.7704
0
LINE
8
BLACK
6
CONTINUOUS
10
80.9217
20
-99.7704
11
80.4924
21
-99.5806
0
LINE
8
BLACK
6
CONTINUOUS
10
80.4924
20
-99.5806
11
80.0249
21
-99.5401
0
LINE
8
BLACK
6
CONTINUOUS
10
80.0249
20
-99.5401
11
79.5694
21
-99.6533
0
LINE
8
BLACK
6
CONTINUOUS
10
79.5694
20
-99.6533
11
79.1751
21
-99.9079
0
LINE
8
BLACK
6
CONTINUOUS
10
79.1751
20
-99.9079
11
78.8845
21
-100.276
0
LINE
8
BLACK
6
CONTINUOUS
10
78.8845
20
-100.276
11
78.729
21
-100.719
0
LINE
8
BLACK
6
CONTINUOUS
10
78.729
20
-100.719
11
78.7253
21
-101.189
0
LINE
8
BLACK
6
CONTINUOUS
10
78.7253
20
-101.189
11
78.8738
21
-101.634
0
LINE
8
BLACK
6
CONTINUOUS
10
78.8738
20
-101.634
11
79.1586
21
-102.007
0
LINE
8
BLACK
6
CONTINUOUS
10
79.1586
20
-102.007
11
79.5488
21
-102.268
0
LINE
8
BLACK
6
CONTINUOUS
10
79.5488
20
-102.268
11
80.0025
21
-102.388
0
LINE
8
BLACK
6
CONTINUOUS
10
80.0025
20
-102.388
11
80.4707
21
-102.355
0
LINE
8
BLACK
6
CONTINUOUS
10
80.4707
20
-102.355
11
80.9028
21
-102.172
0
LINE
8
BLACK
6
CONTINUOUS
10
80.9028
20
-102.172
11
81.2525
21
-101.859
0
LINE
8
BLACK
6
CONTINUOUS
10
81.2525
20
-101.859
11
81.4818
21
-101.449
0
LINE
8
BLACK
6
CONTINUOUS
10
81.4818
20
-101.449
11
81.5661
21
-100.987
0
LINE
8
BLACK
6
CONTINUOUS
10
81.5661
20
-100.987
11
81.5663
21
-100.965
0
LINE
8
BLACK
6
CONTINUOUS
10
81.5663
20
-100.965
11
81.4892
21
-100.502
0
LINE
8
BLACK
6
CONTINUOUS
10
81.4892
20
-100.502
11
81.2664
21
-100.089
0
LINE
8
BLACK
6
CONTINUOUS
10
162.085
20
-101.849
11
161.687
21
-102.216
0
LINE
8
BLACK
6
CONTINUOUS
10
161.687
20
-102.216
11
161.192
21
-102.435
0
LINE
8
BLACK
6
CONTINUOUS
10
161.192
20
-102.435
11
160.653
21
-102.482
0
LINE
8
BLACK
6
CONTINUOUS
10
160.653
20
-102.482
11
160.127
21
-102.352
0
LINE
8
BLACK
6
CONTINUOUS
10
160.127
20
-102.352
11
159.672
21
-102.058
0
LINE
8
BLACK
6
CONTINUOUS
10
159.672
20
-102.058
11
159.337
21
-101.633
0
LINE
8
BLACK
6
CONTINUOUS
10
159.337
20
-101.633
11
159.157
21
-101.122
0
LINE
8
BLACK
6
CONTINUOUS
10
159.157
20
-101.122
11
159.153
21
-100.58
0
LINE
8
BLACK
6
CONTINUOUS
10
159.153
20
-100.58
11
159.324
21
-100.066
0
LINE
8
BLACK
6
CONTINUOUS
10
159.324
20
-100.066
11
159.653
21
-99.6357
0
LINE
8
BLACK
6
CONTINUOUS
10
159.653
20
-99.6357
11
160.103
21
-99.3348
0
LINE
8
BLACK
6
CONTINUOUS
10
160.103
20
-99.3348
11
160.627
21
-99.196
0
LINE
8
BLACK
6
CONTINUOUS
10
160.627
20
-99.196
11
161.167
21
-99.2343
0
LINE
8
BLACK
6
CONTINUOUS
10
161.167
20
-99.2343
11
161.666
21
-99.4455
0
LINE
8
BLACK
6
CONTINUOUS
10
161.666
20
-99.4455
11
162.069
21
-99.8068
0
LINE
8
BLACK
6
CONTINUOUS
10
162.069
20
-99.8068
11
162.334
21
-100.279
0
LINE
8
BLACK
6
CONTINUOUS
10
162.334
20
-100.279
11
162.431
21
-100.812
0
LINE
8
BLACK
6
CONTINUOUS
10
162.431
20
-100.812
11
162.431
21
-100.838
0
LINE
8
BLACK
6
CONTINUOUS
10
162.431
20
-100.838
11
162.342
21
-101.372
0
LINE
8
BLACK
6
CONTINUOUS
10
162.342
20
-101.372
11
162.085
21
-101.849
0
LINE
8
BLACK
6
CONTINUOUS
10
161.911
20
-99.962
11
161.567
21
-99.6434
0
LINE
8
BLACK
6
CONTINUOUS
10
161.567
20
-99.6434
11
161.137
21
-99.4536
0
LINE
8
BLACK
6
CONTINUOUS
10
161.137
20
-99.4536
11
160.67
21
-99.4131
0
LINE
8
BLACK
6
CONTINUOUS
10
160.67
20
-99.4131
11
160.214
21
-99.5263
0
LINE
8
BLACK
6
CONTINUOUS
10
160.214
20
-99.5263
11
159.82
21
-99.7809
0
LINE
8
BLACK
6
CONTINUOUS
10
159.82
20
-99.7809
11
159.53
21
-100.149
0
LINE
8
BLACK
6
CONTINUOUS
10
159.53
20
-100.149
11
159.374
21
-100.592
0
LINE
8
BLACK
6
CONTINUOUS
10
159.374
20
-100.592
11
159.37
21
-101.062
0
LINE
8
BLACK
6
CONTINUOUS
10
159.37
20
-101.062
11
159.519
21
-101.507
0
LINE
8
BLACK
6
CONTINUOUS
10
159.519
20
-101.507
11
159.804
21
-101.88
0
LINE
8
BLACK
6
CONTINUOUS
10
159.804
20
-101.88
11
160.194
21
-102.141
0
LINE
8
BLACK
6
CONTINUOUS
10
160.194
20
-102.141
11
160.647
21
-102.261
0
LINE
8
BLACK
6
CONTINUOUS
10
160.647
20
-102.261
11
161.116
21
-102.228
0
LINE
8
BLACK
6
CONTINUOUS
10
161.116
20
-102.228
11
161.548
21
-102.045
0
LINE
8
BLACK
6
CONTINUOUS
10
161.548
20
-102.045
11
161.897
21
-101.732
0
LINE
8
BLACK
6
CONTINUOUS
10
161.897
20
-101.732
11
162.127
21
-101.322
0
LINE
8
BLACK
6
CONTINUOUS
10
162.127
20
-101.322
11
162.211
21
-100.86
0
LINE
8
BLACK
6
CONTINUOUS
10
162.211
20
-100.86
11
162.211
21
-100.838
0
LINE
8
BLACK
6
CONTINUOUS
10
162.211
20
-100.838
11
162.134
21
-100.375
0
LINE
8
BLACK
6
CONTINUOUS
10
162.134
20
-100.375
11
161.911
21
-99.962
  0
ENDSEC
  0
EOF
