<?xml version="1.0" standalone="no"?>
 <!DOCTYPE svg PUBLIC "-//W3C//DTD SVG 1.1//EN" 
 "http://www.w3.org/Graphics/SVG/1.1/DTD/svg11.dtd"> 
<svg xmlns="http://www.w3.org/2000/svg" version="1.1" 
    width="29.7002cm" height="21.0007cm" viewBox="0 0 116930 82680 ">
<title>SVG Picture created as middle_acryl-Eco1.User.svg date 2019/05/18 00:41:16 </title>
  <desc>Picture generated by PCBNEW </desc>
<g style="fill:#000000; fill-opacity:1;stroke:#000000; stroke-opacity:1;
stroke-linecap:round; stroke-linejoin:round; "
 transform="translate(0 0) scale(1 1)">
</g>
<g style="fill:#000000; fill-opacity:0.0; 
stroke:#000000; stroke-width:-0.000393701; stroke-opacity:1; 
stroke-linecap:round; stroke-linejoin:round;">
</g>
<g style="fill:#000000; fill-opacity:0.0; 
stroke:#000000; stroke-width:78.7402; stroke-opacity:1; 
stroke-linecap:round; stroke-linejoin:round;">
<path d="M40634 49324
L40634 48734
L40821 48734
L40934 48762
L41009 48818
L41046 48874
L41084 48987
L41084 49071
L41046 49184
L41009 49240
L40934 49296
L40821 49324
L40634 49324
" />
<path d="M41721 49296
L41646 49324
L41496 49324
L41421 49296
L41383 49240
L41383 49015
L41421 48959
L41496 48931
L41646 48931
L41721 48959
L41758 49015
L41758 49071
L41383 49128
" />
<path d="M41983 48931
L42283 48931
" />
<path d="M42096 49324
L42096 48818
L42133 48762
L42208 48734
L42283 48734
" />
<path d="M42433 48931
L42733 48931
" />
<path d="M42546 48734
L42546 49240
L42583 49296
L42658 49324
L42733 49324
" />
<path d="M43333 49324
L43333 49015
L43296 48959
L43221 48931
L43071 48931
L42996 48959
" />
<path d="M43333 49296
L43258 49324
L43071 49324
L42996 49296
L42958 49240
L42958 49184
L42996 49128
L43071 49099
L43258 49099
L43333 49071
" />
<path d="M44046 48931
L44046 49324
" />
<path d="M43708 48931
L43708 49240
L43746 49296
L43821 49324
L43933 49324
L44008 49296
L44046 49268
" />
<path d="M44758 49324
L44758 48734
" />
<path d="M44758 49296
L44683 49324
L44533 49324
L44458 49296
L44421 49268
L44383 49212
L44383 49043
L44421 48987
L44458 48959
L44533 48931
L44683 48931
L44758 48959
" />
<path d="M45133 49324
L45133 48931
" />
<path d="M45133 48734
L45096 48762
L45133 48790
L45171 48762
L45133 48734
L45133 48790
" />
<path d="M45620 49324
L45545 49296
L45508 49268
L45470 49212
L45470 49043
L45508 48987
L45545 48959
L45620 48931
L45733 48931
L45808 48959
L45845 48987
L45883 49043
L45883 49212
L45845 49268
L45808 49296
L45733 49324
L45620 49324
" />
<path d="M40709 50289
L40709 49698
L40971 50120
L41234 49698
L41234 50289
" />
<path d="M41946 50289
L41946 49980
L41908 49923
L41833 49895
L41683 49895
L41608 49923
" />
<path d="M41946 50261
L41871 50289
L41683 50289
L41608 50261
L41571 50205
L41571 50148
L41608 50092
L41683 50064
L41871 50064
L41946 50036
" />
<path d="M42658 50261
L42583 50289
L42433 50289
L42358 50261
L42321 50233
L42283 50176
L42283 50008
L42321 49951
L42358 49923
L42433 49895
L42583 49895
L42658 49923
" />
<path d="M42996 50289
L42996 49895
" />
<path d="M42996 50008
L43033 49951
L43071 49923
L43146 49895
L43221 49895
" />
<path d="M43596 50289
L43521 50261
L43483 50233
L43446 50176
L43446 50008
L43483 49951
L43521 49923
L43596 49895
L43708 49895
L43783 49923
L43821 49951
L43858 50008
L43858 50176
L43821 50233
L43783 50261
L43708 50289
L43596 50289
" />
<path d="M44196 50289
L44196 49698
L44496 49698
L44571 49727
L44608 49755
L44646 49811
L44646 49895
L44608 49951
L44571 49980
L44496 50008
L44196 50008
" />
<path d="M45096 50289
L45021 50261
L44983 50233
L44946 50176
L44946 50008
L44983 49951
L45021 49923
L45096 49895
L45208 49895
L45283 49923
L45320 49951
L45358 50008
L45358 50176
L45320 50233
L45283 50261
L45208 50289
L45096 50289
" />
<path d="M45583 49895
L45883 49895
" />
<path d="M45695 49698
L45695 50205
L45733 50261
L45808 50289
L45883 50289
" />
<circle cx="50100" cy="47900" r="1769.18" /> 
<path d="M48100 41800
L48100 47650
" />
<path d="M31600 41750
L48100 41750
" />
<circle cx="63247.9" cy="49650" r="602.08" /> 
<circle cx="63300" cy="39700" r="602.08" /> 
<circle cx="31550" cy="39750" r="602.08" /> 
<circle cx="31550" cy="49650" r="602.08" /> 
<path d="M63250 51200 A1550 1550 0.0 0 0 64799.2 49700 " />
<path d="M64798.5 39802.5 A1503.33 1503.33 0.0 0 0 63250 38200 " />
<path d="M30000 49700 A1550.81 1550.81 0.0 0 0 31550 51200.8 " />
<path d="M31500 38200 A1550.81 1550.81 0.0 0 0 30011.9 39551.5 " />
<circle cx="50100" cy="41500" r="1769.18" /> 
<path d="M64800 49700
L64800 39800
" />
<path d="M31450 38200
L63250 38200
" />
<path d="M30000 39600
L30000 49700
" />
<path d="M31500 51200
L63250 51200
" />
<circle cx="34500" cy="49650" r="781.025" /> 
<path d="M31600 47650
L48100 47650
" />
<path d="M31600 41800
L31600 47650
" />
<circle cx="58000" cy="44700" r="3150.4" /> 
</g> 
</svg>
